M48
;DRILL file {KiCad 4.0.1-stable} date 1/20/2016 5:17:15 PM
;FORMAT={-:-/ absolute / inch / decimal}
FMAT,2
INCH,TZ
T1C0.016
T2C0.024
T3C0.030
T4C0.031
T5C0.040
T6C0.063
%
G90
G05
M72
T1
X0.995Y-3.895
X0.995Y-4.005
X0.995Y-4.15
X0.995Y-4.31
X0.995Y-4.45
X0.995Y-4.57
X0.995Y-4.705
X1.Y-3.7
X1.07Y-3.625
X1.08Y-4.355
X1.11Y-4.705
X1.115Y-4.455
X1.115Y-4.57
X1.14Y-3.7
X1.14Y-3.95
X1.14Y-4.035
X1.14Y-4.15
X1.16Y-3.83
X1.175Y-4.24
X1.195Y-3.57
X1.195Y-4.7
X1.2Y-4.475
X1.2Y-4.575
X1.21Y-3.76
X1.21Y-3.9
X1.215Y-3.995
X1.235Y-4.295
X1.3Y-3.645
X1.3Y-4.57
X1.305Y-4.365
X1.305Y-4.7
X1.31Y-4.285
X1.365Y-3.995
X1.385Y-4.295
X1.385Y-4.37
X1.385Y-4.45
X1.405Y-3.57
X1.405Y-4.57
X1.405Y-4.705
X1.435Y-4.22
X1.44Y-3.815
X1.445Y-3.655
X1.49Y-3.6
X1.5Y-4.705
X1.505Y-4.03
X1.505Y-4.45
X1.505Y-4.56
X1.51Y-4.15
X1.51Y-4.365
X1.515Y-4.295
X1.535Y-3.655
X1.535Y-3.815
X1.555Y-4.22
X1.57Y-3.555
X1.59Y-4.29
X1.59Y-4.365
X1.6Y-3.81
X1.6Y-4.445
X1.6Y-4.56
X1.6Y-4.705
X1.63Y-3.72
X1.64Y-4.225
X1.645Y-4.15
X1.67Y-4.37
X1.675Y-4.03
X1.7Y-3.79
X1.73Y-4.42
X1.77Y-3.72
X1.79Y-4.37
X1.795Y-3.885
X1.795Y-4.07
X1.8Y-4.235
X1.805Y-4.535
X1.805Y-4.625
X1.82Y-3.535
X1.835Y-3.695
X1.855Y-4.445
X1.895Y-4.535
X1.895Y-4.625
X1.92Y-3.88
X1.92Y-4.37
X1.925Y-4.1
X1.945Y-4.195
X1.955Y-4.705
X1.98Y-3.755
X1.98Y-4.42
X2.02Y-4.105
X2.02Y-4.19
X2.04Y-4.045
X2.04Y-4.37
X2.075Y-3.885
X2.08Y-4.2
X2.085Y-4.33
X2.085Y-4.45
X2.09Y-4.1
X2.1Y-3.635
X2.11Y-4.705
X2.14Y-4.045
X2.145Y-4.515
X2.15Y-4.125
X2.155Y-4.2
X2.165Y-3.98
X2.195Y-3.885
X2.21Y-4.33
X2.21Y-4.455
X2.225Y-3.76
X2.225Y-4.11
X2.225Y-4.205
X2.24Y-3.98
X2.285Y-4.325
X2.285Y-4.4
X2.285Y-4.525
X2.3Y-3.885
X2.31Y-4.71
X2.35Y-3.635
X2.35Y-3.98
X2.35Y-4.1
X2.35Y-4.2
X2.37Y-4.455
X2.385Y-4.325
X2.415Y-3.885
X2.46Y-4.1
X2.465Y-4.39
X2.47Y-4.71
X2.475Y-3.76
X2.475Y-4.315
X2.475Y-4.595
X2.48Y-3.98
X2.53Y-3.885
X2.545Y-4.2
X2.55Y-4.1
X2.59Y-4.45
X2.59Y-4.71
X2.595Y-4.33
X2.595Y-4.595
X2.6Y-3.635
X2.63Y-3.88
X2.63Y-3.98
X2.715Y-3.75
X2.725Y-4.105
X2.725Y-4.255
X2.725Y-4.4
X2.725Y-4.54
X2.725Y-4.695
X2.73Y-3.935
X2.82Y-3.64
X2.84Y-3.83
X2.85Y-4.63
X2.915Y-3.92
X2.915Y-4.105
X2.915Y-4.25
X2.915Y-4.4
X2.935Y-3.755
X3.02Y-4.37
X3.045Y-3.64
X3.065Y-4.63
X3.115Y-3.99
X3.12Y-3.83
X3.12Y-4.165
X3.205Y-4.055
X3.21Y-3.73
X3.21Y-3.91
X3.21Y-4.455
X3.22Y-4.26
X3.265Y-4.625
X3.3Y-4.175
X3.315Y-4.35
X3.325Y-4.53
X3.335Y-3.94
X3.385Y-3.895
X3.385Y-3.985
X3.395Y-4.06
X3.4Y-4.245
X3.425Y-4.61
X3.475Y-4.42
X3.54Y-3.655
X3.54Y-4.12
X3.555Y-3.935
X3.56Y-3.8
X3.565Y-3.585
X3.575Y-4.6
X3.585Y-4.37
X3.635Y-3.595
X3.66Y-3.725
X3.66Y-3.94
X3.71Y-4.07
X3.71Y-4.44
X3.77Y-4.12
X3.805Y-4.605
X3.81Y-4.21
X3.83Y-4.07
X3.835Y-4.405
X3.915Y-3.93
X3.925Y-3.565
X3.925Y-3.74
X3.945Y-4.445
X4.005Y-4.18
X4.015Y-4.61
X4.085Y-4.31
X4.09Y-4.045
X4.1Y-3.56
X4.1Y-3.74
X4.11Y-4.48
X4.125Y-4.6
X4.125Y-4.715
X4.24Y-4.6
X4.24Y-4.715
X4.255Y-3.915
X4.26Y-4.19
X4.265Y-3.76
X4.27Y-4.39
X4.28Y-3.545
X4.36Y-4.615
X4.435Y-3.55
X4.45Y-4.4
X4.45Y-4.52
X4.49Y-4.675
X4.5Y-4.305
X4.505Y-4.015
X4.53Y-3.775
T2
X1.73Y-4.27
X1.73Y-4.32
X1.73Y-4.37
X1.92Y-3.94
X1.92Y-3.99
X1.92Y-4.04
X1.98Y-4.27
X1.98Y-4.32
X1.98Y-4.37
X3.45Y-3.74
X3.45Y-3.79
X3.45Y-3.84
X3.77Y-3.97
X3.77Y-4.02
X3.77Y-4.07
X3.8Y-3.59
X3.8Y-3.64
X3.8Y-3.69
T3
X1.7319Y-4.58
X1.85Y-4.58
X1.9681Y-4.58
T4
X1.29Y-4.15
X1.29Y-4.4453
X2.45Y-4.2
X2.45Y-4.4953
X2.71Y-3.82
X3.0053Y-3.82
X3.12Y-4.34
X3.4153Y-4.34
X4.11Y-3.83
X4.4053Y-3.83
T5
X1.07Y-3.7
X1.07Y-3.8
X1.7Y-3.62
X1.7Y-3.72
T6
X4.183Y-4.6569G85X4.183Y-4.6569
G05
X4.3719Y-4.2828G85X4.3719Y-4.2828
G05
X4.5117Y-4.46G85X4.5117Y-4.46
G05
T0
M30
