M48
;DRILL file {KiCad 4.0.1-stable} date 1/9/2016 1:44:56 PM
;FORMAT={-:-/ absolute / inch / decimal}
FMAT,2
INCH,TZ
T1C0.016
T2C0.020
T3C0.024
T4C0.030
T5C0.031
T6C0.040
%
G90
G05
M72
T1
X0.99Y-4.025
X0.995Y-3.7
X0.995Y-4.305
X1.06Y-4.455
X1.07Y-3.625
X1.085Y-4.615
X1.14Y-4.18
X1.145Y-3.705
X1.16Y-3.83
X1.165Y-3.985
X1.195Y-3.57
X1.21Y-3.75
X1.21Y-3.9
X1.275Y-4.32
X1.3Y-3.635
X1.365Y-4.565
X1.405Y-3.57
X1.42Y-4.275
X1.44Y-3.655
X1.445Y-3.815
X1.49Y-3.6
X1.525Y-4.66
X1.535Y-3.65
X1.535Y-3.815
X1.545Y-4.42
X1.63Y-3.72
X1.63Y-4.15
X1.665Y-4.37
X1.7Y-3.79
X1.73Y-4.425
X1.77Y-3.72
X1.795Y-3.88
X1.8Y-4.37
X1.81Y-4.535
X1.81Y-4.62
X1.895Y-4.535
X1.895Y-4.62
X1.925Y-4.37
X1.945Y-3.88
X1.97Y-4.15
X1.98Y-4.425
X2.Y-3.75
X2.035Y-4.045
X2.045Y-4.37
X2.09Y-3.89
X2.09Y-4.1
X2.11Y-4.49
X2.115Y-3.64
X2.145Y-4.045
X2.21Y-4.395
X2.225Y-3.76
X2.25Y-4.07
X2.27Y-3.89
X2.3Y-4.205
X2.37Y-3.64
X2.385Y-4.05
X2.405Y-4.38
X2.425Y-4.625
X2.475Y-3.75
X2.55Y-3.895
X2.55Y-4.125
X2.56Y-4.29
X2.61Y-4.465
X2.62Y-3.635
X2.64Y-4.07
X2.65Y-4.22
X2.7Y-4.615
X2.73Y-3.74
X2.73Y-4.405
X2.84Y-3.645
X2.84Y-4.22
X2.845Y-3.895
X2.91Y-3.795
X2.92Y-4.075
X2.99Y-4.39
X3.075Y-3.65
X3.085Y-3.885
X3.085Y-4.185
X3.105Y-4.63
X3.195Y-3.79
X3.2Y-4.075
X3.205Y-4.245
X3.22Y-4.435
X3.31Y-4.24
X3.335Y-4.625
X3.385Y-3.995
X3.39Y-3.885
X3.405Y-4.09
X3.445Y-3.69
X3.52Y-4.43
X3.54Y-3.805
X3.54Y-3.945
X3.545Y-3.665
X3.555Y-4.135
X3.595Y-3.59
X3.635Y-4.6
X3.66Y-3.745
X3.665Y-3.945
X3.695Y-4.285
X3.71Y-4.075
X3.77Y-4.125
X3.835Y-4.07
X3.845Y-4.36
X3.855Y-4.66
X3.885Y-4.165
X3.9Y-3.925
X3.955Y-3.605
X3.96Y-3.72
X4.03Y-4.48
X4.055Y-4.175
X4.08Y-3.96
X4.1Y-4.7
X4.165Y-3.625
X4.19Y-4.63
X4.215Y-3.76
X4.215Y-4.51
X4.225Y-4.075
X4.285Y-4.695
X4.38Y-3.625
X4.44Y-4.5
X4.465Y-3.705
X4.52Y-4.415
X4.52Y-4.585
T3
X1.73Y-4.27
X1.73Y-4.32
X1.73Y-4.37
X1.92Y-3.94
X1.92Y-3.99
X1.92Y-4.04
X1.98Y-4.27
X1.98Y-4.32
X1.98Y-4.37
X3.45Y-3.74
X3.45Y-3.79
X3.45Y-3.84
X3.77Y-3.97
X3.77Y-4.02
X3.77Y-4.07
X3.8Y-3.59
X3.8Y-3.64
X3.8Y-3.69
T4
X1.7319Y-4.58
X1.85Y-4.58
X1.9681Y-4.58
T5
X1.29Y-4.15
X1.29Y-4.4453
X2.45Y-4.2
X2.45Y-4.4953
X2.71Y-3.82
X3.0053Y-3.82
X3.12Y-4.34
X3.4153Y-4.34
X4.11Y-3.83
X4.4053Y-3.83
T6
X1.07Y-3.7
X1.07Y-3.8
X1.7Y-3.62
X1.7Y-3.72
T2
X4.1683Y-4.6969G85X4.2076Y-4.6969
G05
X4.3572Y-4.3228G85X4.3966Y-4.3228
G05
X4.5167Y-4.4803G85X4.5167Y-4.5197
G05
T0
M30
