G04 #@! TF.FileFunction,Copper,L2,Bot,Signal*
%FSLAX46Y46*%
G04 Gerber Fmt 4.6, Leading zero omitted, Abs format (unit mm)*
G04 Created by KiCad (PCBNEW 4.0.1-stable) date 1/20/2016 5:17:17 PM*
%MOMM*%
G01*
G04 APERTURE LIST*
%ADD10C,0.100000*%
%ADD11C,2.600000*%
%ADD12R,2.032000X2.032000*%
%ADD13O,2.032000X2.032000*%
%ADD14R,1.300000X1.300000*%
%ADD15C,1.300000*%
%ADD16O,1.501140X0.899160*%
%ADD17C,1.500000*%
%ADD18C,0.600000*%
%ADD19C,0.750000*%
G04 APERTURE END LIST*
D10*
D11*
X114597000Y-113284000D03*
X111047000Y-108784000D03*
X106247000Y-118284000D03*
D12*
X43180000Y-91948000D03*
D13*
X43180000Y-94488000D03*
D12*
X27178000Y-96520000D03*
D13*
X27178000Y-93980000D03*
D14*
X32766000Y-105410000D03*
D15*
X32766000Y-112910000D03*
D14*
X62230000Y-106680000D03*
D15*
X62230000Y-114180000D03*
D14*
X68834000Y-97028000D03*
D15*
X76334000Y-97028000D03*
D14*
X79248000Y-110236000D03*
D15*
X86748000Y-110236000D03*
D14*
X104394000Y-97282000D03*
D15*
X111894000Y-97282000D03*
D16*
X43942000Y-109728000D03*
X43942000Y-108458000D03*
X43942000Y-110998000D03*
X48768000Y-101346000D03*
X48768000Y-100076000D03*
X48768000Y-102616000D03*
X50292000Y-109728000D03*
X50292000Y-108458000D03*
X50292000Y-110998000D03*
X87630000Y-96266000D03*
X87630000Y-94996000D03*
X87630000Y-97536000D03*
X96520000Y-92456000D03*
X96520000Y-91186000D03*
X96520000Y-93726000D03*
X95758000Y-102108000D03*
X95758000Y-103378000D03*
X95758000Y-100838000D03*
D17*
X49990000Y-116332000D03*
X46990000Y-116332000D03*
X43990000Y-116332000D03*
D18*
X34671000Y-101473000D03*
X38227000Y-102362000D03*
X42545000Y-102362000D03*
X45593000Y-103378000D03*
X45720000Y-107569000D03*
X45593000Y-98679000D03*
X48768000Y-98552000D03*
X103759000Y-109474000D03*
X114046000Y-118745000D03*
X110744000Y-117221000D03*
X108458000Y-111506000D03*
X104394000Y-113792000D03*
X99695000Y-90551000D03*
X114300000Y-109347000D03*
X114427000Y-101981000D03*
X115062000Y-95885000D03*
X112649000Y-90170000D03*
X108331000Y-95504000D03*
X108712000Y-90043000D03*
X104140000Y-90424000D03*
X104140000Y-94996000D03*
X99695000Y-94996000D03*
X92964000Y-94615000D03*
X90424000Y-96520000D03*
X90297000Y-99949000D03*
X92964000Y-100076000D03*
X46228000Y-89789000D03*
X39878000Y-90297000D03*
X40640000Y-96774000D03*
X46609000Y-93853000D03*
X89916000Y-92837000D03*
X92329000Y-91313000D03*
X90551000Y-91059000D03*
X89916000Y-104648000D03*
X103886000Y-102743000D03*
X101727000Y-106172000D03*
X108204000Y-106426000D03*
X108077000Y-99441000D03*
X99441000Y-99822000D03*
X97409000Y-111887000D03*
X96774000Y-106934000D03*
X91059000Y-110998000D03*
X72390000Y-117602000D03*
X101981000Y-117094000D03*
X100203000Y-112903000D03*
X96647000Y-116967000D03*
X94234000Y-112776000D03*
X90805000Y-116840000D03*
X88265000Y-112268000D03*
X86995000Y-117094000D03*
X84455000Y-115062000D03*
X84201000Y-110490000D03*
X83820000Y-106045000D03*
X86360000Y-107823000D03*
X86233000Y-103124000D03*
X81407000Y-102997000D03*
X81534000Y-99314000D03*
X81534000Y-94742000D03*
X79248000Y-97282000D03*
X79121000Y-101346000D03*
X79248000Y-105791000D03*
X81788000Y-108204000D03*
X81534000Y-113157000D03*
X82931000Y-117475000D03*
X77851000Y-117602000D03*
X69215000Y-119253000D03*
X74041000Y-111760000D03*
X76708000Y-110998000D03*
X74041000Y-107950000D03*
X74041000Y-104267000D03*
X74041000Y-99568000D03*
X72136000Y-97282000D03*
X69342000Y-99949000D03*
X69215000Y-104267000D03*
X69215000Y-108077000D03*
X69215000Y-111760000D03*
X69215000Y-115316000D03*
X49657000Y-119507000D03*
X65913000Y-109982000D03*
X65786000Y-113030000D03*
X65913000Y-116713000D03*
X65786000Y-119634000D03*
X62865000Y-116713000D03*
X62738000Y-119634000D03*
X58674000Y-119634000D03*
X53594000Y-119507000D03*
X50292000Y-95377000D03*
X77343000Y-92456000D03*
X74549000Y-95377000D03*
X71628000Y-92456000D03*
X68961000Y-95250000D03*
X66040000Y-92329000D03*
X62865000Y-95504000D03*
X59690000Y-92329000D03*
X56515000Y-95504000D03*
X53340000Y-92329000D03*
X52705000Y-98679000D03*
X54991000Y-101092000D03*
X56896000Y-101092000D03*
X59690000Y-101092000D03*
X62992000Y-101092000D03*
X66802000Y-101092000D03*
X66802000Y-98552000D03*
X64262000Y-98679000D03*
X61341000Y-98679000D03*
X58420000Y-98679000D03*
X55753000Y-98679000D03*
X52832000Y-106680000D03*
X54610000Y-104775000D03*
X54737000Y-106680000D03*
X48895000Y-104140000D03*
X51308000Y-104267000D03*
X51308000Y-106426000D03*
X49403000Y-106553000D03*
X58039000Y-114935000D03*
X56515000Y-104394000D03*
X56515000Y-106807000D03*
X59690000Y-106680000D03*
X59690000Y-104140000D03*
X62484000Y-104140000D03*
X64770000Y-104140000D03*
X64643000Y-106680000D03*
X62865000Y-109601000D03*
X62611000Y-111506000D03*
X60198000Y-113157000D03*
X60579000Y-109855000D03*
X58039000Y-109855000D03*
X58039000Y-111760000D03*
X40640000Y-119507000D03*
X54483000Y-114681000D03*
X56134000Y-113157000D03*
X56134000Y-109982000D03*
X52959000Y-109982000D03*
X52959000Y-113030000D03*
X47117000Y-112903000D03*
X40640000Y-112903000D03*
X40640000Y-115824000D03*
X33147000Y-110871000D03*
X30861000Y-101473000D03*
X28956000Y-100330000D03*
X28956000Y-102489000D03*
X28956000Y-105410000D03*
X29845000Y-107696000D03*
X31369000Y-109093000D03*
X33274000Y-108839000D03*
X30480000Y-113665000D03*
X39497000Y-107188000D03*
X36449000Y-107188000D03*
X38354000Y-105410000D03*
X41783000Y-105410000D03*
X41656000Y-107315000D03*
X40386000Y-108966000D03*
X40386000Y-110871000D03*
X38354000Y-110871000D03*
X38481000Y-109093000D03*
X35179000Y-109093000D03*
X35179000Y-110998000D03*
X35179000Y-113030000D03*
X38227000Y-113030000D03*
X38227000Y-115824000D03*
X38100000Y-119507000D03*
X35687000Y-119507000D03*
X35687000Y-116078000D03*
X33020000Y-116078000D03*
X33147000Y-119380000D03*
X30353000Y-119380000D03*
X30480000Y-116205000D03*
X25273000Y-98933000D03*
X27432000Y-110617000D03*
X28321000Y-113157000D03*
X28321000Y-116078000D03*
X28194000Y-119507000D03*
X25273000Y-119507000D03*
X25273000Y-116078000D03*
X25273000Y-113030000D03*
X25273000Y-109474000D03*
X25273000Y-105410000D03*
X25273000Y-101727000D03*
X113030000Y-111760000D03*
X113030000Y-114808000D03*
X107696000Y-119761000D03*
X104775000Y-119761000D03*
X107696000Y-116840000D03*
X104775000Y-116840000D03*
X94234000Y-103378000D03*
X95758000Y-104648000D03*
X97282000Y-103378000D03*
X44958000Y-94488000D03*
X43180000Y-96266000D03*
X41402000Y-94488000D03*
X85979000Y-98933000D03*
X84709000Y-100076000D03*
X85979000Y-101219000D03*
X53086000Y-104140000D03*
X54356000Y-102743000D03*
X51816000Y-102743000D03*
X48133000Y-117475000D03*
X45847000Y-117475000D03*
X45847000Y-115189000D03*
X48133000Y-115189000D03*
X51816000Y-110998000D03*
X50292000Y-112268000D03*
X48768000Y-110998000D03*
X45466000Y-110998000D03*
X42418000Y-110998000D03*
X43942000Y-112268000D03*
X36576000Y-96901000D03*
X38989000Y-96901000D03*
X38989000Y-92837000D03*
X36703000Y-92837000D03*
X37846000Y-91440000D03*
X28956000Y-93980000D03*
X27178000Y-92075000D03*
X25400000Y-93980000D03*
X30734000Y-99060000D03*
X29464000Y-97282000D03*
X30734000Y-95504000D03*
X33020000Y-92583000D03*
X35687000Y-90678000D03*
X30353000Y-90678000D03*
D19*
X47371000Y-98552000D02*
X48768000Y-98552000D01*
X110744000Y-113792000D02*
X110744000Y-117221000D01*
X108458000Y-111506000D02*
X110744000Y-113792000D01*
X104394000Y-110109000D02*
X104394000Y-113792000D01*
X104394000Y-110109000D02*
X103759000Y-109474000D01*
X114300000Y-109347000D02*
X114300000Y-102108000D01*
X114427000Y-101981000D02*
X114300000Y-102108000D01*
X115062000Y-92583000D02*
X115062000Y-95885000D01*
X112649000Y-90170000D02*
X115062000Y-92583000D01*
X108331000Y-90424000D02*
X108331000Y-95504000D01*
X108712000Y-90043000D02*
X108331000Y-90424000D01*
X104140000Y-94996000D02*
X104140000Y-90424000D01*
X99695000Y-94996000D02*
X99695000Y-90551000D01*
X90424000Y-96520000D02*
X90424000Y-99822000D01*
X90297000Y-99949000D02*
X90424000Y-99822000D01*
X92964000Y-100076000D02*
X92964000Y-94615000D01*
X39878000Y-90297000D02*
X39878000Y-90424000D01*
X92329000Y-91313000D02*
X92202000Y-91313000D01*
X107950000Y-106172000D02*
X101727000Y-106172000D01*
X108204000Y-106426000D02*
X107950000Y-106172000D01*
X99822000Y-99441000D02*
X108077000Y-99441000D01*
X99441000Y-99822000D02*
X99822000Y-99441000D01*
X97409000Y-107569000D02*
X97409000Y-111887000D01*
X96774000Y-106934000D02*
X97409000Y-107569000D01*
X91059000Y-105791000D02*
X91059000Y-110998000D01*
X91059000Y-105791000D02*
X89916000Y-104648000D01*
X101981000Y-117094000D02*
X101981000Y-114681000D01*
X100203000Y-112903000D02*
X101981000Y-114681000D01*
X96647000Y-115189000D02*
X96647000Y-116967000D01*
X94234000Y-112776000D02*
X96647000Y-115189000D01*
X90805000Y-114808000D02*
X90805000Y-116840000D01*
X88265000Y-112268000D02*
X90805000Y-114808000D01*
X86487000Y-117094000D02*
X86995000Y-117094000D01*
X84455000Y-115062000D02*
X86487000Y-117094000D01*
X84201000Y-106426000D02*
X84201000Y-110490000D01*
X83820000Y-106045000D02*
X84201000Y-106426000D01*
X86360000Y-103251000D02*
X86360000Y-107823000D01*
X86233000Y-103124000D02*
X86360000Y-103251000D01*
X81407000Y-99441000D02*
X81407000Y-102997000D01*
X81534000Y-99314000D02*
X81407000Y-99441000D01*
X81534000Y-94996000D02*
X81534000Y-94742000D01*
X79248000Y-97282000D02*
X81534000Y-94996000D01*
X79121000Y-105664000D02*
X79121000Y-101346000D01*
X79248000Y-105791000D02*
X79121000Y-105664000D01*
X81788000Y-112903000D02*
X81788000Y-108204000D01*
X81534000Y-113157000D02*
X81788000Y-112903000D01*
X77978000Y-117475000D02*
X82931000Y-117475000D01*
X77851000Y-117602000D02*
X77978000Y-117475000D01*
X73533000Y-111506000D02*
X73787000Y-111506000D01*
X74041000Y-111760000D02*
X73787000Y-111506000D01*
X76708000Y-110617000D02*
X76708000Y-110998000D01*
X74041000Y-107950000D02*
X76708000Y-110617000D01*
X74041000Y-99568000D02*
X74041000Y-104267000D01*
X72009000Y-97282000D02*
X72136000Y-97282000D01*
X69342000Y-99949000D02*
X72009000Y-97282000D01*
X69215000Y-108077000D02*
X69215000Y-104267000D01*
X69215000Y-115316000D02*
X69215000Y-111760000D01*
X65786000Y-116586000D02*
X65786000Y-113030000D01*
X65913000Y-116713000D02*
X65786000Y-116586000D01*
X62865000Y-116713000D02*
X65786000Y-119634000D01*
X58674000Y-119634000D02*
X62738000Y-119634000D01*
X53594000Y-119507000D02*
X49657000Y-119507000D01*
X77343000Y-92583000D02*
X77343000Y-92456000D01*
X74549000Y-95377000D02*
X77343000Y-92583000D01*
X71628000Y-92583000D02*
X71628000Y-92456000D01*
X68961000Y-95250000D02*
X71628000Y-92583000D01*
X62865000Y-95504000D02*
X66040000Y-92329000D01*
X56515000Y-95504000D02*
X59690000Y-92329000D01*
X53340000Y-92329000D02*
X50292000Y-95377000D01*
X54991000Y-101092000D02*
X56896000Y-101092000D01*
X62992000Y-101092000D02*
X59690000Y-101092000D01*
X66802000Y-98552000D02*
X66802000Y-101092000D01*
X61341000Y-98679000D02*
X64262000Y-98679000D01*
X55753000Y-98679000D02*
X58420000Y-98679000D01*
X54737000Y-106680000D02*
X52832000Y-106680000D01*
X51308000Y-104267000D02*
X51308000Y-106426000D01*
X49403000Y-104648000D02*
X49403000Y-106553000D01*
X49403000Y-104648000D02*
X48895000Y-104140000D01*
X56515000Y-106807000D02*
X56515000Y-104394000D01*
X59690000Y-104140000D02*
X59690000Y-106680000D01*
X64770000Y-104140000D02*
X62484000Y-104140000D01*
X64643000Y-107823000D02*
X64643000Y-106680000D01*
X62865000Y-109601000D02*
X64643000Y-107823000D01*
X61849000Y-111506000D02*
X62611000Y-111506000D01*
X60198000Y-113157000D02*
X61849000Y-111506000D01*
X58039000Y-109855000D02*
X60579000Y-109855000D01*
X58039000Y-111760000D02*
X58039000Y-114935000D01*
X54483000Y-114681000D02*
X54610000Y-114681000D01*
X56134000Y-113157000D02*
X54610000Y-114681000D01*
X52959000Y-109982000D02*
X56134000Y-109982000D01*
X47244000Y-113030000D02*
X52959000Y-113030000D01*
X47117000Y-112903000D02*
X47244000Y-113030000D01*
X40640000Y-115824000D02*
X40640000Y-112903000D01*
X28956000Y-102489000D02*
X28956000Y-100330000D01*
X28956000Y-106807000D02*
X28956000Y-105410000D01*
X29845000Y-107696000D02*
X28956000Y-106807000D01*
X33020000Y-109093000D02*
X31369000Y-109093000D01*
X33274000Y-108839000D02*
X33020000Y-109093000D01*
X39497000Y-107188000D02*
X36449000Y-107188000D01*
X41783000Y-105410000D02*
X38354000Y-105410000D01*
X41656000Y-107696000D02*
X41656000Y-107315000D01*
X40386000Y-108966000D02*
X41656000Y-107696000D01*
X38354000Y-110871000D02*
X40386000Y-110871000D01*
X35179000Y-109093000D02*
X38481000Y-109093000D01*
X35179000Y-113030000D02*
X35179000Y-110998000D01*
X38227000Y-115824000D02*
X38227000Y-113030000D01*
X35687000Y-119507000D02*
X38100000Y-119507000D01*
X33020000Y-116078000D02*
X35687000Y-116078000D01*
X30353000Y-119380000D02*
X33147000Y-119380000D01*
X30480000Y-116205000D02*
X30480000Y-113665000D01*
X27432000Y-110617000D02*
X27432000Y-112268000D01*
X28321000Y-113157000D02*
X27432000Y-112268000D01*
X28321000Y-119380000D02*
X28321000Y-116078000D01*
X28194000Y-119507000D02*
X28321000Y-119380000D01*
X25273000Y-116078000D02*
X25273000Y-119507000D01*
X25273000Y-109474000D02*
X25273000Y-113030000D01*
X25273000Y-101727000D02*
X25273000Y-105410000D01*
D10*
G36*
X116211000Y-112325793D02*
X115973739Y-112195761D01*
X114885500Y-113284000D01*
X115973739Y-114372239D01*
X116211000Y-114242207D01*
X116211000Y-121037000D01*
X23997000Y-121037000D01*
X23997000Y-119660739D01*
X105158761Y-119660739D01*
X105305014Y-119927598D01*
X106005696Y-120162969D01*
X106743115Y-120112284D01*
X107188986Y-119927598D01*
X107335239Y-119660739D01*
X106247000Y-118572500D01*
X105158761Y-119660739D01*
X23997000Y-119660739D01*
X23997000Y-118042696D01*
X104368031Y-118042696D01*
X104418716Y-118780115D01*
X104603402Y-119225986D01*
X104870261Y-119372239D01*
X105958500Y-118284000D01*
X106535500Y-118284000D01*
X107623739Y-119372239D01*
X107890598Y-119225986D01*
X108125969Y-118525304D01*
X108075284Y-117787885D01*
X107890598Y-117342014D01*
X107623739Y-117195761D01*
X106535500Y-118284000D01*
X105958500Y-118284000D01*
X104870261Y-117195761D01*
X104603402Y-117342014D01*
X104368031Y-118042696D01*
X23997000Y-118042696D01*
X23997000Y-116539942D01*
X42939818Y-116539942D01*
X43099334Y-116926000D01*
X43394446Y-117221628D01*
X43780226Y-117381818D01*
X44197942Y-117382182D01*
X44376965Y-117308211D01*
X46302288Y-117308211D01*
X46380380Y-117518136D01*
X46880699Y-117661138D01*
X47397658Y-117601791D01*
X47599620Y-117518136D01*
X47677712Y-117308211D01*
X46990000Y-116620500D01*
X46302288Y-117308211D01*
X44376965Y-117308211D01*
X44584000Y-117222666D01*
X44879628Y-116927554D01*
X45039818Y-116541774D01*
X45040096Y-116222699D01*
X45660862Y-116222699D01*
X45720209Y-116739658D01*
X45803864Y-116941620D01*
X46013789Y-117019712D01*
X46701500Y-116332000D01*
X47278500Y-116332000D01*
X47966211Y-117019712D01*
X48176136Y-116941620D01*
X48290944Y-116539942D01*
X48939818Y-116539942D01*
X49099334Y-116926000D01*
X49394446Y-117221628D01*
X49780226Y-117381818D01*
X50197942Y-117382182D01*
X50584000Y-117222666D01*
X50879628Y-116927554D01*
X50888054Y-116907261D01*
X105158761Y-116907261D01*
X106247000Y-117995500D01*
X107335239Y-116907261D01*
X107188986Y-116640402D01*
X106488304Y-116405031D01*
X105750885Y-116455716D01*
X105305014Y-116640402D01*
X105158761Y-116907261D01*
X50888054Y-116907261D01*
X51039818Y-116541774D01*
X51040182Y-116124058D01*
X50880666Y-115738000D01*
X50585554Y-115442372D01*
X50199774Y-115282182D01*
X49782058Y-115281818D01*
X49396000Y-115441334D01*
X49100372Y-115736446D01*
X48940182Y-116122226D01*
X48939818Y-116539942D01*
X48290944Y-116539942D01*
X48319138Y-116441301D01*
X48259791Y-115924342D01*
X48176136Y-115722380D01*
X47966211Y-115644288D01*
X47278500Y-116332000D01*
X46701500Y-116332000D01*
X46013789Y-115644288D01*
X45803864Y-115722380D01*
X45660862Y-116222699D01*
X45040096Y-116222699D01*
X45040182Y-116124058D01*
X44880666Y-115738000D01*
X44585554Y-115442372D01*
X44377040Y-115355789D01*
X46302288Y-115355789D01*
X46990000Y-116043500D01*
X47677712Y-115355789D01*
X47599620Y-115145864D01*
X47099301Y-115002862D01*
X46582342Y-115062209D01*
X46380380Y-115145864D01*
X46302288Y-115355789D01*
X44377040Y-115355789D01*
X44199774Y-115282182D01*
X43782058Y-115281818D01*
X43396000Y-115441334D01*
X43100372Y-115736446D01*
X42940182Y-116122226D01*
X42939818Y-116539942D01*
X23997000Y-116539942D01*
X23997000Y-114368138D01*
X61279835Y-114368138D01*
X61424159Y-114717429D01*
X61691165Y-114984902D01*
X62040204Y-115129835D01*
X62418138Y-115130165D01*
X62767429Y-114985841D01*
X63034902Y-114718835D01*
X63059025Y-114660739D01*
X113508761Y-114660739D01*
X113655014Y-114927598D01*
X114355696Y-115162969D01*
X115093115Y-115112284D01*
X115538986Y-114927598D01*
X115685239Y-114660739D01*
X114597000Y-113572500D01*
X113508761Y-114660739D01*
X63059025Y-114660739D01*
X63179835Y-114369796D01*
X63180165Y-113991862D01*
X63035841Y-113642571D01*
X62768835Y-113375098D01*
X62419796Y-113230165D01*
X62041862Y-113229835D01*
X61692571Y-113374159D01*
X61425098Y-113641165D01*
X61280165Y-113990204D01*
X61279835Y-114368138D01*
X23997000Y-114368138D01*
X23997000Y-113098138D01*
X31815835Y-113098138D01*
X31960159Y-113447429D01*
X32227165Y-113714902D01*
X32576204Y-113859835D01*
X32954138Y-113860165D01*
X33303429Y-113715841D01*
X33570902Y-113448835D01*
X33715835Y-113099796D01*
X33715884Y-113042696D01*
X112718031Y-113042696D01*
X112768716Y-113780115D01*
X112953402Y-114225986D01*
X113220261Y-114372239D01*
X114308500Y-113284000D01*
X113220261Y-112195761D01*
X112953402Y-112342014D01*
X112718031Y-113042696D01*
X33715884Y-113042696D01*
X33716165Y-112721862D01*
X33571841Y-112372571D01*
X33304835Y-112105098D01*
X32955796Y-111960165D01*
X32577862Y-111959835D01*
X32228571Y-112104159D01*
X31961098Y-112371165D01*
X31816165Y-112720204D01*
X31815835Y-113098138D01*
X23997000Y-113098138D01*
X23997000Y-111353844D01*
X42698359Y-111353844D01*
X42874974Y-111674444D01*
X43192149Y-111916102D01*
X43577659Y-112017987D01*
X43738000Y-111875840D01*
X43738000Y-111202000D01*
X44146000Y-111202000D01*
X44146000Y-111875840D01*
X44306341Y-112017987D01*
X44691851Y-111916102D01*
X45009026Y-111674444D01*
X45185641Y-111353844D01*
X49048359Y-111353844D01*
X49224974Y-111674444D01*
X49542149Y-111916102D01*
X49927659Y-112017987D01*
X50088000Y-111875840D01*
X50088000Y-111202000D01*
X50496000Y-111202000D01*
X50496000Y-111875840D01*
X50656341Y-112017987D01*
X51041851Y-111916102D01*
X51053454Y-111907261D01*
X113508761Y-111907261D01*
X114597000Y-112995500D01*
X115685239Y-111907261D01*
X115538986Y-111640402D01*
X114838304Y-111405031D01*
X114100885Y-111455716D01*
X113655014Y-111640402D01*
X113508761Y-111907261D01*
X51053454Y-111907261D01*
X51359026Y-111674444D01*
X51535641Y-111353844D01*
X51436759Y-111202000D01*
X50496000Y-111202000D01*
X50088000Y-111202000D01*
X49147241Y-111202000D01*
X49048359Y-111353844D01*
X45185641Y-111353844D01*
X45086759Y-111202000D01*
X44146000Y-111202000D01*
X43738000Y-111202000D01*
X42797241Y-111202000D01*
X42698359Y-111353844D01*
X23997000Y-111353844D01*
X23997000Y-110642156D01*
X42698359Y-110642156D01*
X42797241Y-110794000D01*
X43738000Y-110794000D01*
X43738000Y-110774000D01*
X44146000Y-110774000D01*
X44146000Y-110794000D01*
X45086759Y-110794000D01*
X45185641Y-110642156D01*
X49048359Y-110642156D01*
X49147241Y-110794000D01*
X50088000Y-110794000D01*
X50088000Y-110774000D01*
X50496000Y-110774000D01*
X50496000Y-110794000D01*
X51436759Y-110794000D01*
X51535641Y-110642156D01*
X51359026Y-110321556D01*
X51188151Y-110191365D01*
X51306094Y-110014852D01*
X51363152Y-109728000D01*
X51334907Y-109586000D01*
X78292123Y-109586000D01*
X78292123Y-110886000D01*
X78313042Y-110997173D01*
X78378745Y-111099279D01*
X78478997Y-111167778D01*
X78598000Y-111191877D01*
X79898000Y-111191877D01*
X80009173Y-111170958D01*
X80111279Y-111105255D01*
X80179778Y-111005003D01*
X80203877Y-110886000D01*
X80203877Y-110424138D01*
X85797835Y-110424138D01*
X85942159Y-110773429D01*
X86209165Y-111040902D01*
X86558204Y-111185835D01*
X86936138Y-111186165D01*
X87285429Y-111041841D01*
X87552902Y-110774835D01*
X87697835Y-110425796D01*
X87698165Y-110047862D01*
X87553841Y-109698571D01*
X87286835Y-109431098D01*
X86937796Y-109286165D01*
X86559862Y-109285835D01*
X86210571Y-109430159D01*
X85943098Y-109697165D01*
X85798165Y-110046204D01*
X85797835Y-110424138D01*
X80203877Y-110424138D01*
X80203877Y-109586000D01*
X80182958Y-109474827D01*
X80117255Y-109372721D01*
X80017003Y-109304222D01*
X79898000Y-109280123D01*
X78598000Y-109280123D01*
X78486827Y-109301042D01*
X78384721Y-109366745D01*
X78316222Y-109466997D01*
X78292123Y-109586000D01*
X51334907Y-109586000D01*
X51306094Y-109441148D01*
X51143605Y-109197967D01*
X50998279Y-109100863D01*
X109446723Y-109100863D01*
X109689795Y-109689143D01*
X110139489Y-110139623D01*
X110727344Y-110383722D01*
X111363863Y-110384277D01*
X111952143Y-110141205D01*
X112402623Y-109691511D01*
X112646722Y-109103656D01*
X112647277Y-108467137D01*
X112404205Y-107878857D01*
X111954511Y-107428377D01*
X111366656Y-107184278D01*
X110730137Y-107183723D01*
X110141857Y-107426795D01*
X109691377Y-107876489D01*
X109447278Y-108464344D01*
X109446723Y-109100863D01*
X50998279Y-109100863D01*
X50986511Y-109093000D01*
X51143605Y-108988033D01*
X51306094Y-108744852D01*
X51363152Y-108458000D01*
X51306094Y-108171148D01*
X51143605Y-107927967D01*
X50900424Y-107765478D01*
X50613572Y-107708420D01*
X49970428Y-107708420D01*
X49683576Y-107765478D01*
X49440395Y-107927967D01*
X49277906Y-108171148D01*
X49220848Y-108458000D01*
X49277906Y-108744852D01*
X49440395Y-108988033D01*
X49597489Y-109093000D01*
X49440395Y-109197967D01*
X49277906Y-109441148D01*
X49220848Y-109728000D01*
X49277906Y-110014852D01*
X49395849Y-110191365D01*
X49224974Y-110321556D01*
X49048359Y-110642156D01*
X45185641Y-110642156D01*
X45009026Y-110321556D01*
X44838151Y-110191365D01*
X44956094Y-110014852D01*
X45013152Y-109728000D01*
X44956094Y-109441148D01*
X44793605Y-109197967D01*
X44636511Y-109093000D01*
X44793605Y-108988033D01*
X44956094Y-108744852D01*
X45013152Y-108458000D01*
X44956094Y-108171148D01*
X44793605Y-107927967D01*
X44550424Y-107765478D01*
X44263572Y-107708420D01*
X43620428Y-107708420D01*
X43333576Y-107765478D01*
X43090395Y-107927967D01*
X42927906Y-108171148D01*
X42870848Y-108458000D01*
X42927906Y-108744852D01*
X43090395Y-108988033D01*
X43247489Y-109093000D01*
X43090395Y-109197967D01*
X42927906Y-109441148D01*
X42870848Y-109728000D01*
X42927906Y-110014852D01*
X43045849Y-110191365D01*
X42874974Y-110321556D01*
X42698359Y-110642156D01*
X23997000Y-110642156D01*
X23997000Y-104760000D01*
X31810123Y-104760000D01*
X31810123Y-106060000D01*
X31831042Y-106171173D01*
X31896745Y-106273279D01*
X31996997Y-106341778D01*
X32116000Y-106365877D01*
X33416000Y-106365877D01*
X33527173Y-106344958D01*
X33629279Y-106279255D01*
X33697778Y-106179003D01*
X33721877Y-106060000D01*
X33721877Y-106030000D01*
X61274123Y-106030000D01*
X61274123Y-107330000D01*
X61295042Y-107441173D01*
X61360745Y-107543279D01*
X61460997Y-107611778D01*
X61580000Y-107635877D01*
X62880000Y-107635877D01*
X62991173Y-107614958D01*
X63093279Y-107549255D01*
X63161778Y-107449003D01*
X63185877Y-107330000D01*
X63185877Y-106030000D01*
X63164958Y-105918827D01*
X63099255Y-105816721D01*
X62999003Y-105748222D01*
X62880000Y-105724123D01*
X61580000Y-105724123D01*
X61468827Y-105745042D01*
X61366721Y-105810745D01*
X61298222Y-105910997D01*
X61274123Y-106030000D01*
X33721877Y-106030000D01*
X33721877Y-104760000D01*
X33700958Y-104648827D01*
X33635255Y-104546721D01*
X33535003Y-104478222D01*
X33416000Y-104454123D01*
X32116000Y-104454123D01*
X32004827Y-104475042D01*
X31902721Y-104540745D01*
X31834222Y-104640997D01*
X31810123Y-104760000D01*
X23997000Y-104760000D01*
X23997000Y-103733844D01*
X94514359Y-103733844D01*
X94690974Y-104054444D01*
X95008149Y-104296102D01*
X95393659Y-104397987D01*
X95554000Y-104255840D01*
X95554000Y-103582000D01*
X95962000Y-103582000D01*
X95962000Y-104255840D01*
X96122341Y-104397987D01*
X96507851Y-104296102D01*
X96825026Y-104054444D01*
X97001641Y-103733844D01*
X96902759Y-103582000D01*
X95962000Y-103582000D01*
X95554000Y-103582000D01*
X94613241Y-103582000D01*
X94514359Y-103733844D01*
X23997000Y-103733844D01*
X23997000Y-100076000D01*
X47696848Y-100076000D01*
X47753906Y-100362852D01*
X47916395Y-100606033D01*
X48073489Y-100711000D01*
X47916395Y-100815967D01*
X47753906Y-101059148D01*
X47696848Y-101346000D01*
X47753906Y-101632852D01*
X47916395Y-101876033D01*
X48073489Y-101981000D01*
X47916395Y-102085967D01*
X47753906Y-102329148D01*
X47696848Y-102616000D01*
X47753906Y-102902852D01*
X47916395Y-103146033D01*
X48159576Y-103308522D01*
X48446428Y-103365580D01*
X49089572Y-103365580D01*
X49376424Y-103308522D01*
X49619605Y-103146033D01*
X49702377Y-103022156D01*
X94514359Y-103022156D01*
X94613241Y-103174000D01*
X95554000Y-103174000D01*
X95554000Y-103154000D01*
X95962000Y-103154000D01*
X95962000Y-103174000D01*
X96902759Y-103174000D01*
X97001641Y-103022156D01*
X96825026Y-102701556D01*
X96654151Y-102571365D01*
X96772094Y-102394852D01*
X96829152Y-102108000D01*
X96772094Y-101821148D01*
X96609605Y-101577967D01*
X96452511Y-101473000D01*
X96609605Y-101368033D01*
X96772094Y-101124852D01*
X96829152Y-100838000D01*
X96772094Y-100551148D01*
X96609605Y-100307967D01*
X96366424Y-100145478D01*
X96079572Y-100088420D01*
X95436428Y-100088420D01*
X95149576Y-100145478D01*
X94906395Y-100307967D01*
X94743906Y-100551148D01*
X94686848Y-100838000D01*
X94743906Y-101124852D01*
X94906395Y-101368033D01*
X95063489Y-101473000D01*
X94906395Y-101577967D01*
X94743906Y-101821148D01*
X94686848Y-102108000D01*
X94743906Y-102394852D01*
X94861849Y-102571365D01*
X94690974Y-102701556D01*
X94514359Y-103022156D01*
X49702377Y-103022156D01*
X49782094Y-102902852D01*
X49839152Y-102616000D01*
X49782094Y-102329148D01*
X49619605Y-102085967D01*
X49462511Y-101981000D01*
X49619605Y-101876033D01*
X49782094Y-101632852D01*
X49839152Y-101346000D01*
X49782094Y-101059148D01*
X49619605Y-100815967D01*
X49462511Y-100711000D01*
X49619605Y-100606033D01*
X49782094Y-100362852D01*
X49839152Y-100076000D01*
X49782094Y-99789148D01*
X49619605Y-99545967D01*
X49376424Y-99383478D01*
X49089572Y-99326420D01*
X48446428Y-99326420D01*
X48159576Y-99383478D01*
X47916395Y-99545967D01*
X47753906Y-99789148D01*
X47696848Y-100076000D01*
X23997000Y-100076000D01*
X23997000Y-94425639D01*
X25668404Y-94425639D01*
X25795427Y-94732340D01*
X26183547Y-95198123D01*
X26162000Y-95198123D01*
X26050827Y-95219042D01*
X25948721Y-95284745D01*
X25880222Y-95384997D01*
X25856123Y-95504000D01*
X25856123Y-97536000D01*
X25877042Y-97647173D01*
X25942745Y-97749279D01*
X26042997Y-97817778D01*
X26162000Y-97841877D01*
X28194000Y-97841877D01*
X28305173Y-97820958D01*
X28407279Y-97755255D01*
X28475778Y-97655003D01*
X28499877Y-97536000D01*
X28499877Y-96378000D01*
X67878123Y-96378000D01*
X67878123Y-97678000D01*
X67899042Y-97789173D01*
X67964745Y-97891279D01*
X68064997Y-97959778D01*
X68184000Y-97983877D01*
X69484000Y-97983877D01*
X69595173Y-97962958D01*
X69697279Y-97897255D01*
X69765778Y-97797003D01*
X69789877Y-97678000D01*
X69789877Y-97216138D01*
X75383835Y-97216138D01*
X75528159Y-97565429D01*
X75795165Y-97832902D01*
X76144204Y-97977835D01*
X76522138Y-97978165D01*
X76871429Y-97833841D01*
X77138902Y-97566835D01*
X77283835Y-97217796D01*
X77284165Y-96839862D01*
X77139841Y-96490571D01*
X76872835Y-96223098D01*
X76523796Y-96078165D01*
X76145862Y-96077835D01*
X75796571Y-96222159D01*
X75529098Y-96489165D01*
X75384165Y-96838204D01*
X75383835Y-97216138D01*
X69789877Y-97216138D01*
X69789877Y-96378000D01*
X69768958Y-96266827D01*
X69703255Y-96164721D01*
X69603003Y-96096222D01*
X69484000Y-96072123D01*
X68184000Y-96072123D01*
X68072827Y-96093042D01*
X67970721Y-96158745D01*
X67902222Y-96258997D01*
X67878123Y-96378000D01*
X28499877Y-96378000D01*
X28499877Y-95504000D01*
X28478958Y-95392827D01*
X28413255Y-95290721D01*
X28313003Y-95222222D01*
X28194000Y-95198123D01*
X28172453Y-95198123D01*
X28392837Y-94933639D01*
X41670404Y-94933639D01*
X41797427Y-95240340D01*
X42190577Y-95712159D01*
X42734358Y-95997611D01*
X42976000Y-95909239D01*
X42976000Y-94692000D01*
X43384000Y-94692000D01*
X43384000Y-95909239D01*
X43625642Y-95997611D01*
X44169423Y-95712159D01*
X44562573Y-95240340D01*
X44663768Y-94996000D01*
X86558848Y-94996000D01*
X86615906Y-95282852D01*
X86778395Y-95526033D01*
X86935489Y-95631000D01*
X86778395Y-95735967D01*
X86615906Y-95979148D01*
X86558848Y-96266000D01*
X86615906Y-96552852D01*
X86778395Y-96796033D01*
X86935489Y-96901000D01*
X86778395Y-97005967D01*
X86615906Y-97249148D01*
X86558848Y-97536000D01*
X86615906Y-97822852D01*
X86778395Y-98066033D01*
X87021576Y-98228522D01*
X87308428Y-98285580D01*
X87951572Y-98285580D01*
X88238424Y-98228522D01*
X88481605Y-98066033D01*
X88644094Y-97822852D01*
X88701152Y-97536000D01*
X88644094Y-97249148D01*
X88481605Y-97005967D01*
X88324511Y-96901000D01*
X88481605Y-96796033D01*
X88591208Y-96632000D01*
X103438123Y-96632000D01*
X103438123Y-97932000D01*
X103459042Y-98043173D01*
X103524745Y-98145279D01*
X103624997Y-98213778D01*
X103744000Y-98237877D01*
X105044000Y-98237877D01*
X105155173Y-98216958D01*
X105257279Y-98151255D01*
X105325778Y-98051003D01*
X105349877Y-97932000D01*
X105349877Y-97470138D01*
X110943835Y-97470138D01*
X111088159Y-97819429D01*
X111355165Y-98086902D01*
X111704204Y-98231835D01*
X112082138Y-98232165D01*
X112431429Y-98087841D01*
X112698902Y-97820835D01*
X112843835Y-97471796D01*
X112844165Y-97093862D01*
X112699841Y-96744571D01*
X112432835Y-96477098D01*
X112083796Y-96332165D01*
X111705862Y-96331835D01*
X111356571Y-96476159D01*
X111089098Y-96743165D01*
X110944165Y-97092204D01*
X110943835Y-97470138D01*
X105349877Y-97470138D01*
X105349877Y-96632000D01*
X105328958Y-96520827D01*
X105263255Y-96418721D01*
X105163003Y-96350222D01*
X105044000Y-96326123D01*
X103744000Y-96326123D01*
X103632827Y-96347042D01*
X103530721Y-96412745D01*
X103462222Y-96512997D01*
X103438123Y-96632000D01*
X88591208Y-96632000D01*
X88644094Y-96552852D01*
X88701152Y-96266000D01*
X88644094Y-95979148D01*
X88481605Y-95735967D01*
X88324511Y-95631000D01*
X88481605Y-95526033D01*
X88644094Y-95282852D01*
X88701152Y-94996000D01*
X88644094Y-94709148D01*
X88481605Y-94465967D01*
X88238424Y-94303478D01*
X87951572Y-94246420D01*
X87308428Y-94246420D01*
X87021576Y-94303478D01*
X86778395Y-94465967D01*
X86615906Y-94709148D01*
X86558848Y-94996000D01*
X44663768Y-94996000D01*
X44689596Y-94933639D01*
X44599921Y-94692000D01*
X43384000Y-94692000D01*
X42976000Y-94692000D01*
X41760079Y-94692000D01*
X41670404Y-94933639D01*
X28392837Y-94933639D01*
X28560573Y-94732340D01*
X28687596Y-94425639D01*
X28597921Y-94184000D01*
X27382000Y-94184000D01*
X27382000Y-94204000D01*
X26974000Y-94204000D01*
X26974000Y-94184000D01*
X25758079Y-94184000D01*
X25668404Y-94425639D01*
X23997000Y-94425639D01*
X23997000Y-94042361D01*
X41670404Y-94042361D01*
X41760079Y-94284000D01*
X42976000Y-94284000D01*
X42976000Y-94264000D01*
X43384000Y-94264000D01*
X43384000Y-94284000D01*
X44599921Y-94284000D01*
X44689596Y-94042361D01*
X44562573Y-93735660D01*
X44174453Y-93269877D01*
X44196000Y-93269877D01*
X44307173Y-93248958D01*
X44409279Y-93183255D01*
X44477778Y-93083003D01*
X44501877Y-92964000D01*
X44501877Y-91186000D01*
X95448848Y-91186000D01*
X95505906Y-91472852D01*
X95668395Y-91716033D01*
X95825489Y-91821000D01*
X95668395Y-91925967D01*
X95505906Y-92169148D01*
X95448848Y-92456000D01*
X95505906Y-92742852D01*
X95668395Y-92986033D01*
X95825489Y-93091000D01*
X95668395Y-93195967D01*
X95505906Y-93439148D01*
X95448848Y-93726000D01*
X95505906Y-94012852D01*
X95668395Y-94256033D01*
X95911576Y-94418522D01*
X96198428Y-94475580D01*
X96841572Y-94475580D01*
X97128424Y-94418522D01*
X97371605Y-94256033D01*
X97534094Y-94012852D01*
X97591152Y-93726000D01*
X97534094Y-93439148D01*
X97371605Y-93195967D01*
X97214511Y-93091000D01*
X97371605Y-92986033D01*
X97534094Y-92742852D01*
X97591152Y-92456000D01*
X97534094Y-92169148D01*
X97371605Y-91925967D01*
X97214511Y-91821000D01*
X97371605Y-91716033D01*
X97534094Y-91472852D01*
X97591152Y-91186000D01*
X97534094Y-90899148D01*
X97371605Y-90655967D01*
X97128424Y-90493478D01*
X96841572Y-90436420D01*
X96198428Y-90436420D01*
X95911576Y-90493478D01*
X95668395Y-90655967D01*
X95505906Y-90899148D01*
X95448848Y-91186000D01*
X44501877Y-91186000D01*
X44501877Y-90932000D01*
X44480958Y-90820827D01*
X44415255Y-90718721D01*
X44315003Y-90650222D01*
X44196000Y-90626123D01*
X42164000Y-90626123D01*
X42052827Y-90647042D01*
X41950721Y-90712745D01*
X41882222Y-90812997D01*
X41858123Y-90932000D01*
X41858123Y-92964000D01*
X41879042Y-93075173D01*
X41944745Y-93177279D01*
X42044997Y-93245778D01*
X42164000Y-93269877D01*
X42185547Y-93269877D01*
X41797427Y-93735660D01*
X41670404Y-94042361D01*
X23997000Y-94042361D01*
X23997000Y-93534361D01*
X25668404Y-93534361D01*
X25758079Y-93776000D01*
X26974000Y-93776000D01*
X26974000Y-92558761D01*
X27382000Y-92558761D01*
X27382000Y-93776000D01*
X28597921Y-93776000D01*
X28687596Y-93534361D01*
X28560573Y-93227660D01*
X28167423Y-92755841D01*
X27623642Y-92470389D01*
X27382000Y-92558761D01*
X26974000Y-92558761D01*
X26732358Y-92470389D01*
X26188577Y-92755841D01*
X25795427Y-93227660D01*
X25668404Y-93534361D01*
X23997000Y-93534361D01*
X23997000Y-88767000D01*
X116211000Y-88767000D01*
X116211000Y-112325793D01*
X116211000Y-112325793D01*
G37*
X116211000Y-112325793D02*
X115973739Y-112195761D01*
X114885500Y-113284000D01*
X115973739Y-114372239D01*
X116211000Y-114242207D01*
X116211000Y-121037000D01*
X23997000Y-121037000D01*
X23997000Y-119660739D01*
X105158761Y-119660739D01*
X105305014Y-119927598D01*
X106005696Y-120162969D01*
X106743115Y-120112284D01*
X107188986Y-119927598D01*
X107335239Y-119660739D01*
X106247000Y-118572500D01*
X105158761Y-119660739D01*
X23997000Y-119660739D01*
X23997000Y-118042696D01*
X104368031Y-118042696D01*
X104418716Y-118780115D01*
X104603402Y-119225986D01*
X104870261Y-119372239D01*
X105958500Y-118284000D01*
X106535500Y-118284000D01*
X107623739Y-119372239D01*
X107890598Y-119225986D01*
X108125969Y-118525304D01*
X108075284Y-117787885D01*
X107890598Y-117342014D01*
X107623739Y-117195761D01*
X106535500Y-118284000D01*
X105958500Y-118284000D01*
X104870261Y-117195761D01*
X104603402Y-117342014D01*
X104368031Y-118042696D01*
X23997000Y-118042696D01*
X23997000Y-116539942D01*
X42939818Y-116539942D01*
X43099334Y-116926000D01*
X43394446Y-117221628D01*
X43780226Y-117381818D01*
X44197942Y-117382182D01*
X44376965Y-117308211D01*
X46302288Y-117308211D01*
X46380380Y-117518136D01*
X46880699Y-117661138D01*
X47397658Y-117601791D01*
X47599620Y-117518136D01*
X47677712Y-117308211D01*
X46990000Y-116620500D01*
X46302288Y-117308211D01*
X44376965Y-117308211D01*
X44584000Y-117222666D01*
X44879628Y-116927554D01*
X45039818Y-116541774D01*
X45040096Y-116222699D01*
X45660862Y-116222699D01*
X45720209Y-116739658D01*
X45803864Y-116941620D01*
X46013789Y-117019712D01*
X46701500Y-116332000D01*
X47278500Y-116332000D01*
X47966211Y-117019712D01*
X48176136Y-116941620D01*
X48290944Y-116539942D01*
X48939818Y-116539942D01*
X49099334Y-116926000D01*
X49394446Y-117221628D01*
X49780226Y-117381818D01*
X50197942Y-117382182D01*
X50584000Y-117222666D01*
X50879628Y-116927554D01*
X50888054Y-116907261D01*
X105158761Y-116907261D01*
X106247000Y-117995500D01*
X107335239Y-116907261D01*
X107188986Y-116640402D01*
X106488304Y-116405031D01*
X105750885Y-116455716D01*
X105305014Y-116640402D01*
X105158761Y-116907261D01*
X50888054Y-116907261D01*
X51039818Y-116541774D01*
X51040182Y-116124058D01*
X50880666Y-115738000D01*
X50585554Y-115442372D01*
X50199774Y-115282182D01*
X49782058Y-115281818D01*
X49396000Y-115441334D01*
X49100372Y-115736446D01*
X48940182Y-116122226D01*
X48939818Y-116539942D01*
X48290944Y-116539942D01*
X48319138Y-116441301D01*
X48259791Y-115924342D01*
X48176136Y-115722380D01*
X47966211Y-115644288D01*
X47278500Y-116332000D01*
X46701500Y-116332000D01*
X46013789Y-115644288D01*
X45803864Y-115722380D01*
X45660862Y-116222699D01*
X45040096Y-116222699D01*
X45040182Y-116124058D01*
X44880666Y-115738000D01*
X44585554Y-115442372D01*
X44377040Y-115355789D01*
X46302288Y-115355789D01*
X46990000Y-116043500D01*
X47677712Y-115355789D01*
X47599620Y-115145864D01*
X47099301Y-115002862D01*
X46582342Y-115062209D01*
X46380380Y-115145864D01*
X46302288Y-115355789D01*
X44377040Y-115355789D01*
X44199774Y-115282182D01*
X43782058Y-115281818D01*
X43396000Y-115441334D01*
X43100372Y-115736446D01*
X42940182Y-116122226D01*
X42939818Y-116539942D01*
X23997000Y-116539942D01*
X23997000Y-114368138D01*
X61279835Y-114368138D01*
X61424159Y-114717429D01*
X61691165Y-114984902D01*
X62040204Y-115129835D01*
X62418138Y-115130165D01*
X62767429Y-114985841D01*
X63034902Y-114718835D01*
X63059025Y-114660739D01*
X113508761Y-114660739D01*
X113655014Y-114927598D01*
X114355696Y-115162969D01*
X115093115Y-115112284D01*
X115538986Y-114927598D01*
X115685239Y-114660739D01*
X114597000Y-113572500D01*
X113508761Y-114660739D01*
X63059025Y-114660739D01*
X63179835Y-114369796D01*
X63180165Y-113991862D01*
X63035841Y-113642571D01*
X62768835Y-113375098D01*
X62419796Y-113230165D01*
X62041862Y-113229835D01*
X61692571Y-113374159D01*
X61425098Y-113641165D01*
X61280165Y-113990204D01*
X61279835Y-114368138D01*
X23997000Y-114368138D01*
X23997000Y-113098138D01*
X31815835Y-113098138D01*
X31960159Y-113447429D01*
X32227165Y-113714902D01*
X32576204Y-113859835D01*
X32954138Y-113860165D01*
X33303429Y-113715841D01*
X33570902Y-113448835D01*
X33715835Y-113099796D01*
X33715884Y-113042696D01*
X112718031Y-113042696D01*
X112768716Y-113780115D01*
X112953402Y-114225986D01*
X113220261Y-114372239D01*
X114308500Y-113284000D01*
X113220261Y-112195761D01*
X112953402Y-112342014D01*
X112718031Y-113042696D01*
X33715884Y-113042696D01*
X33716165Y-112721862D01*
X33571841Y-112372571D01*
X33304835Y-112105098D01*
X32955796Y-111960165D01*
X32577862Y-111959835D01*
X32228571Y-112104159D01*
X31961098Y-112371165D01*
X31816165Y-112720204D01*
X31815835Y-113098138D01*
X23997000Y-113098138D01*
X23997000Y-111353844D01*
X42698359Y-111353844D01*
X42874974Y-111674444D01*
X43192149Y-111916102D01*
X43577659Y-112017987D01*
X43738000Y-111875840D01*
X43738000Y-111202000D01*
X44146000Y-111202000D01*
X44146000Y-111875840D01*
X44306341Y-112017987D01*
X44691851Y-111916102D01*
X45009026Y-111674444D01*
X45185641Y-111353844D01*
X49048359Y-111353844D01*
X49224974Y-111674444D01*
X49542149Y-111916102D01*
X49927659Y-112017987D01*
X50088000Y-111875840D01*
X50088000Y-111202000D01*
X50496000Y-111202000D01*
X50496000Y-111875840D01*
X50656341Y-112017987D01*
X51041851Y-111916102D01*
X51053454Y-111907261D01*
X113508761Y-111907261D01*
X114597000Y-112995500D01*
X115685239Y-111907261D01*
X115538986Y-111640402D01*
X114838304Y-111405031D01*
X114100885Y-111455716D01*
X113655014Y-111640402D01*
X113508761Y-111907261D01*
X51053454Y-111907261D01*
X51359026Y-111674444D01*
X51535641Y-111353844D01*
X51436759Y-111202000D01*
X50496000Y-111202000D01*
X50088000Y-111202000D01*
X49147241Y-111202000D01*
X49048359Y-111353844D01*
X45185641Y-111353844D01*
X45086759Y-111202000D01*
X44146000Y-111202000D01*
X43738000Y-111202000D01*
X42797241Y-111202000D01*
X42698359Y-111353844D01*
X23997000Y-111353844D01*
X23997000Y-110642156D01*
X42698359Y-110642156D01*
X42797241Y-110794000D01*
X43738000Y-110794000D01*
X43738000Y-110774000D01*
X44146000Y-110774000D01*
X44146000Y-110794000D01*
X45086759Y-110794000D01*
X45185641Y-110642156D01*
X49048359Y-110642156D01*
X49147241Y-110794000D01*
X50088000Y-110794000D01*
X50088000Y-110774000D01*
X50496000Y-110774000D01*
X50496000Y-110794000D01*
X51436759Y-110794000D01*
X51535641Y-110642156D01*
X51359026Y-110321556D01*
X51188151Y-110191365D01*
X51306094Y-110014852D01*
X51363152Y-109728000D01*
X51334907Y-109586000D01*
X78292123Y-109586000D01*
X78292123Y-110886000D01*
X78313042Y-110997173D01*
X78378745Y-111099279D01*
X78478997Y-111167778D01*
X78598000Y-111191877D01*
X79898000Y-111191877D01*
X80009173Y-111170958D01*
X80111279Y-111105255D01*
X80179778Y-111005003D01*
X80203877Y-110886000D01*
X80203877Y-110424138D01*
X85797835Y-110424138D01*
X85942159Y-110773429D01*
X86209165Y-111040902D01*
X86558204Y-111185835D01*
X86936138Y-111186165D01*
X87285429Y-111041841D01*
X87552902Y-110774835D01*
X87697835Y-110425796D01*
X87698165Y-110047862D01*
X87553841Y-109698571D01*
X87286835Y-109431098D01*
X86937796Y-109286165D01*
X86559862Y-109285835D01*
X86210571Y-109430159D01*
X85943098Y-109697165D01*
X85798165Y-110046204D01*
X85797835Y-110424138D01*
X80203877Y-110424138D01*
X80203877Y-109586000D01*
X80182958Y-109474827D01*
X80117255Y-109372721D01*
X80017003Y-109304222D01*
X79898000Y-109280123D01*
X78598000Y-109280123D01*
X78486827Y-109301042D01*
X78384721Y-109366745D01*
X78316222Y-109466997D01*
X78292123Y-109586000D01*
X51334907Y-109586000D01*
X51306094Y-109441148D01*
X51143605Y-109197967D01*
X50998279Y-109100863D01*
X109446723Y-109100863D01*
X109689795Y-109689143D01*
X110139489Y-110139623D01*
X110727344Y-110383722D01*
X111363863Y-110384277D01*
X111952143Y-110141205D01*
X112402623Y-109691511D01*
X112646722Y-109103656D01*
X112647277Y-108467137D01*
X112404205Y-107878857D01*
X111954511Y-107428377D01*
X111366656Y-107184278D01*
X110730137Y-107183723D01*
X110141857Y-107426795D01*
X109691377Y-107876489D01*
X109447278Y-108464344D01*
X109446723Y-109100863D01*
X50998279Y-109100863D01*
X50986511Y-109093000D01*
X51143605Y-108988033D01*
X51306094Y-108744852D01*
X51363152Y-108458000D01*
X51306094Y-108171148D01*
X51143605Y-107927967D01*
X50900424Y-107765478D01*
X50613572Y-107708420D01*
X49970428Y-107708420D01*
X49683576Y-107765478D01*
X49440395Y-107927967D01*
X49277906Y-108171148D01*
X49220848Y-108458000D01*
X49277906Y-108744852D01*
X49440395Y-108988033D01*
X49597489Y-109093000D01*
X49440395Y-109197967D01*
X49277906Y-109441148D01*
X49220848Y-109728000D01*
X49277906Y-110014852D01*
X49395849Y-110191365D01*
X49224974Y-110321556D01*
X49048359Y-110642156D01*
X45185641Y-110642156D01*
X45009026Y-110321556D01*
X44838151Y-110191365D01*
X44956094Y-110014852D01*
X45013152Y-109728000D01*
X44956094Y-109441148D01*
X44793605Y-109197967D01*
X44636511Y-109093000D01*
X44793605Y-108988033D01*
X44956094Y-108744852D01*
X45013152Y-108458000D01*
X44956094Y-108171148D01*
X44793605Y-107927967D01*
X44550424Y-107765478D01*
X44263572Y-107708420D01*
X43620428Y-107708420D01*
X43333576Y-107765478D01*
X43090395Y-107927967D01*
X42927906Y-108171148D01*
X42870848Y-108458000D01*
X42927906Y-108744852D01*
X43090395Y-108988033D01*
X43247489Y-109093000D01*
X43090395Y-109197967D01*
X42927906Y-109441148D01*
X42870848Y-109728000D01*
X42927906Y-110014852D01*
X43045849Y-110191365D01*
X42874974Y-110321556D01*
X42698359Y-110642156D01*
X23997000Y-110642156D01*
X23997000Y-104760000D01*
X31810123Y-104760000D01*
X31810123Y-106060000D01*
X31831042Y-106171173D01*
X31896745Y-106273279D01*
X31996997Y-106341778D01*
X32116000Y-106365877D01*
X33416000Y-106365877D01*
X33527173Y-106344958D01*
X33629279Y-106279255D01*
X33697778Y-106179003D01*
X33721877Y-106060000D01*
X33721877Y-106030000D01*
X61274123Y-106030000D01*
X61274123Y-107330000D01*
X61295042Y-107441173D01*
X61360745Y-107543279D01*
X61460997Y-107611778D01*
X61580000Y-107635877D01*
X62880000Y-107635877D01*
X62991173Y-107614958D01*
X63093279Y-107549255D01*
X63161778Y-107449003D01*
X63185877Y-107330000D01*
X63185877Y-106030000D01*
X63164958Y-105918827D01*
X63099255Y-105816721D01*
X62999003Y-105748222D01*
X62880000Y-105724123D01*
X61580000Y-105724123D01*
X61468827Y-105745042D01*
X61366721Y-105810745D01*
X61298222Y-105910997D01*
X61274123Y-106030000D01*
X33721877Y-106030000D01*
X33721877Y-104760000D01*
X33700958Y-104648827D01*
X33635255Y-104546721D01*
X33535003Y-104478222D01*
X33416000Y-104454123D01*
X32116000Y-104454123D01*
X32004827Y-104475042D01*
X31902721Y-104540745D01*
X31834222Y-104640997D01*
X31810123Y-104760000D01*
X23997000Y-104760000D01*
X23997000Y-103733844D01*
X94514359Y-103733844D01*
X94690974Y-104054444D01*
X95008149Y-104296102D01*
X95393659Y-104397987D01*
X95554000Y-104255840D01*
X95554000Y-103582000D01*
X95962000Y-103582000D01*
X95962000Y-104255840D01*
X96122341Y-104397987D01*
X96507851Y-104296102D01*
X96825026Y-104054444D01*
X97001641Y-103733844D01*
X96902759Y-103582000D01*
X95962000Y-103582000D01*
X95554000Y-103582000D01*
X94613241Y-103582000D01*
X94514359Y-103733844D01*
X23997000Y-103733844D01*
X23997000Y-100076000D01*
X47696848Y-100076000D01*
X47753906Y-100362852D01*
X47916395Y-100606033D01*
X48073489Y-100711000D01*
X47916395Y-100815967D01*
X47753906Y-101059148D01*
X47696848Y-101346000D01*
X47753906Y-101632852D01*
X47916395Y-101876033D01*
X48073489Y-101981000D01*
X47916395Y-102085967D01*
X47753906Y-102329148D01*
X47696848Y-102616000D01*
X47753906Y-102902852D01*
X47916395Y-103146033D01*
X48159576Y-103308522D01*
X48446428Y-103365580D01*
X49089572Y-103365580D01*
X49376424Y-103308522D01*
X49619605Y-103146033D01*
X49702377Y-103022156D01*
X94514359Y-103022156D01*
X94613241Y-103174000D01*
X95554000Y-103174000D01*
X95554000Y-103154000D01*
X95962000Y-103154000D01*
X95962000Y-103174000D01*
X96902759Y-103174000D01*
X97001641Y-103022156D01*
X96825026Y-102701556D01*
X96654151Y-102571365D01*
X96772094Y-102394852D01*
X96829152Y-102108000D01*
X96772094Y-101821148D01*
X96609605Y-101577967D01*
X96452511Y-101473000D01*
X96609605Y-101368033D01*
X96772094Y-101124852D01*
X96829152Y-100838000D01*
X96772094Y-100551148D01*
X96609605Y-100307967D01*
X96366424Y-100145478D01*
X96079572Y-100088420D01*
X95436428Y-100088420D01*
X95149576Y-100145478D01*
X94906395Y-100307967D01*
X94743906Y-100551148D01*
X94686848Y-100838000D01*
X94743906Y-101124852D01*
X94906395Y-101368033D01*
X95063489Y-101473000D01*
X94906395Y-101577967D01*
X94743906Y-101821148D01*
X94686848Y-102108000D01*
X94743906Y-102394852D01*
X94861849Y-102571365D01*
X94690974Y-102701556D01*
X94514359Y-103022156D01*
X49702377Y-103022156D01*
X49782094Y-102902852D01*
X49839152Y-102616000D01*
X49782094Y-102329148D01*
X49619605Y-102085967D01*
X49462511Y-101981000D01*
X49619605Y-101876033D01*
X49782094Y-101632852D01*
X49839152Y-101346000D01*
X49782094Y-101059148D01*
X49619605Y-100815967D01*
X49462511Y-100711000D01*
X49619605Y-100606033D01*
X49782094Y-100362852D01*
X49839152Y-100076000D01*
X49782094Y-99789148D01*
X49619605Y-99545967D01*
X49376424Y-99383478D01*
X49089572Y-99326420D01*
X48446428Y-99326420D01*
X48159576Y-99383478D01*
X47916395Y-99545967D01*
X47753906Y-99789148D01*
X47696848Y-100076000D01*
X23997000Y-100076000D01*
X23997000Y-94425639D01*
X25668404Y-94425639D01*
X25795427Y-94732340D01*
X26183547Y-95198123D01*
X26162000Y-95198123D01*
X26050827Y-95219042D01*
X25948721Y-95284745D01*
X25880222Y-95384997D01*
X25856123Y-95504000D01*
X25856123Y-97536000D01*
X25877042Y-97647173D01*
X25942745Y-97749279D01*
X26042997Y-97817778D01*
X26162000Y-97841877D01*
X28194000Y-97841877D01*
X28305173Y-97820958D01*
X28407279Y-97755255D01*
X28475778Y-97655003D01*
X28499877Y-97536000D01*
X28499877Y-96378000D01*
X67878123Y-96378000D01*
X67878123Y-97678000D01*
X67899042Y-97789173D01*
X67964745Y-97891279D01*
X68064997Y-97959778D01*
X68184000Y-97983877D01*
X69484000Y-97983877D01*
X69595173Y-97962958D01*
X69697279Y-97897255D01*
X69765778Y-97797003D01*
X69789877Y-97678000D01*
X69789877Y-97216138D01*
X75383835Y-97216138D01*
X75528159Y-97565429D01*
X75795165Y-97832902D01*
X76144204Y-97977835D01*
X76522138Y-97978165D01*
X76871429Y-97833841D01*
X77138902Y-97566835D01*
X77283835Y-97217796D01*
X77284165Y-96839862D01*
X77139841Y-96490571D01*
X76872835Y-96223098D01*
X76523796Y-96078165D01*
X76145862Y-96077835D01*
X75796571Y-96222159D01*
X75529098Y-96489165D01*
X75384165Y-96838204D01*
X75383835Y-97216138D01*
X69789877Y-97216138D01*
X69789877Y-96378000D01*
X69768958Y-96266827D01*
X69703255Y-96164721D01*
X69603003Y-96096222D01*
X69484000Y-96072123D01*
X68184000Y-96072123D01*
X68072827Y-96093042D01*
X67970721Y-96158745D01*
X67902222Y-96258997D01*
X67878123Y-96378000D01*
X28499877Y-96378000D01*
X28499877Y-95504000D01*
X28478958Y-95392827D01*
X28413255Y-95290721D01*
X28313003Y-95222222D01*
X28194000Y-95198123D01*
X28172453Y-95198123D01*
X28392837Y-94933639D01*
X41670404Y-94933639D01*
X41797427Y-95240340D01*
X42190577Y-95712159D01*
X42734358Y-95997611D01*
X42976000Y-95909239D01*
X42976000Y-94692000D01*
X43384000Y-94692000D01*
X43384000Y-95909239D01*
X43625642Y-95997611D01*
X44169423Y-95712159D01*
X44562573Y-95240340D01*
X44663768Y-94996000D01*
X86558848Y-94996000D01*
X86615906Y-95282852D01*
X86778395Y-95526033D01*
X86935489Y-95631000D01*
X86778395Y-95735967D01*
X86615906Y-95979148D01*
X86558848Y-96266000D01*
X86615906Y-96552852D01*
X86778395Y-96796033D01*
X86935489Y-96901000D01*
X86778395Y-97005967D01*
X86615906Y-97249148D01*
X86558848Y-97536000D01*
X86615906Y-97822852D01*
X86778395Y-98066033D01*
X87021576Y-98228522D01*
X87308428Y-98285580D01*
X87951572Y-98285580D01*
X88238424Y-98228522D01*
X88481605Y-98066033D01*
X88644094Y-97822852D01*
X88701152Y-97536000D01*
X88644094Y-97249148D01*
X88481605Y-97005967D01*
X88324511Y-96901000D01*
X88481605Y-96796033D01*
X88591208Y-96632000D01*
X103438123Y-96632000D01*
X103438123Y-97932000D01*
X103459042Y-98043173D01*
X103524745Y-98145279D01*
X103624997Y-98213778D01*
X103744000Y-98237877D01*
X105044000Y-98237877D01*
X105155173Y-98216958D01*
X105257279Y-98151255D01*
X105325778Y-98051003D01*
X105349877Y-97932000D01*
X105349877Y-97470138D01*
X110943835Y-97470138D01*
X111088159Y-97819429D01*
X111355165Y-98086902D01*
X111704204Y-98231835D01*
X112082138Y-98232165D01*
X112431429Y-98087841D01*
X112698902Y-97820835D01*
X112843835Y-97471796D01*
X112844165Y-97093862D01*
X112699841Y-96744571D01*
X112432835Y-96477098D01*
X112083796Y-96332165D01*
X111705862Y-96331835D01*
X111356571Y-96476159D01*
X111089098Y-96743165D01*
X110944165Y-97092204D01*
X110943835Y-97470138D01*
X105349877Y-97470138D01*
X105349877Y-96632000D01*
X105328958Y-96520827D01*
X105263255Y-96418721D01*
X105163003Y-96350222D01*
X105044000Y-96326123D01*
X103744000Y-96326123D01*
X103632827Y-96347042D01*
X103530721Y-96412745D01*
X103462222Y-96512997D01*
X103438123Y-96632000D01*
X88591208Y-96632000D01*
X88644094Y-96552852D01*
X88701152Y-96266000D01*
X88644094Y-95979148D01*
X88481605Y-95735967D01*
X88324511Y-95631000D01*
X88481605Y-95526033D01*
X88644094Y-95282852D01*
X88701152Y-94996000D01*
X88644094Y-94709148D01*
X88481605Y-94465967D01*
X88238424Y-94303478D01*
X87951572Y-94246420D01*
X87308428Y-94246420D01*
X87021576Y-94303478D01*
X86778395Y-94465967D01*
X86615906Y-94709148D01*
X86558848Y-94996000D01*
X44663768Y-94996000D01*
X44689596Y-94933639D01*
X44599921Y-94692000D01*
X43384000Y-94692000D01*
X42976000Y-94692000D01*
X41760079Y-94692000D01*
X41670404Y-94933639D01*
X28392837Y-94933639D01*
X28560573Y-94732340D01*
X28687596Y-94425639D01*
X28597921Y-94184000D01*
X27382000Y-94184000D01*
X27382000Y-94204000D01*
X26974000Y-94204000D01*
X26974000Y-94184000D01*
X25758079Y-94184000D01*
X25668404Y-94425639D01*
X23997000Y-94425639D01*
X23997000Y-94042361D01*
X41670404Y-94042361D01*
X41760079Y-94284000D01*
X42976000Y-94284000D01*
X42976000Y-94264000D01*
X43384000Y-94264000D01*
X43384000Y-94284000D01*
X44599921Y-94284000D01*
X44689596Y-94042361D01*
X44562573Y-93735660D01*
X44174453Y-93269877D01*
X44196000Y-93269877D01*
X44307173Y-93248958D01*
X44409279Y-93183255D01*
X44477778Y-93083003D01*
X44501877Y-92964000D01*
X44501877Y-91186000D01*
X95448848Y-91186000D01*
X95505906Y-91472852D01*
X95668395Y-91716033D01*
X95825489Y-91821000D01*
X95668395Y-91925967D01*
X95505906Y-92169148D01*
X95448848Y-92456000D01*
X95505906Y-92742852D01*
X95668395Y-92986033D01*
X95825489Y-93091000D01*
X95668395Y-93195967D01*
X95505906Y-93439148D01*
X95448848Y-93726000D01*
X95505906Y-94012852D01*
X95668395Y-94256033D01*
X95911576Y-94418522D01*
X96198428Y-94475580D01*
X96841572Y-94475580D01*
X97128424Y-94418522D01*
X97371605Y-94256033D01*
X97534094Y-94012852D01*
X97591152Y-93726000D01*
X97534094Y-93439148D01*
X97371605Y-93195967D01*
X97214511Y-93091000D01*
X97371605Y-92986033D01*
X97534094Y-92742852D01*
X97591152Y-92456000D01*
X97534094Y-92169148D01*
X97371605Y-91925967D01*
X97214511Y-91821000D01*
X97371605Y-91716033D01*
X97534094Y-91472852D01*
X97591152Y-91186000D01*
X97534094Y-90899148D01*
X97371605Y-90655967D01*
X97128424Y-90493478D01*
X96841572Y-90436420D01*
X96198428Y-90436420D01*
X95911576Y-90493478D01*
X95668395Y-90655967D01*
X95505906Y-90899148D01*
X95448848Y-91186000D01*
X44501877Y-91186000D01*
X44501877Y-90932000D01*
X44480958Y-90820827D01*
X44415255Y-90718721D01*
X44315003Y-90650222D01*
X44196000Y-90626123D01*
X42164000Y-90626123D01*
X42052827Y-90647042D01*
X41950721Y-90712745D01*
X41882222Y-90812997D01*
X41858123Y-90932000D01*
X41858123Y-92964000D01*
X41879042Y-93075173D01*
X41944745Y-93177279D01*
X42044997Y-93245778D01*
X42164000Y-93269877D01*
X42185547Y-93269877D01*
X41797427Y-93735660D01*
X41670404Y-94042361D01*
X23997000Y-94042361D01*
X23997000Y-93534361D01*
X25668404Y-93534361D01*
X25758079Y-93776000D01*
X26974000Y-93776000D01*
X26974000Y-92558761D01*
X27382000Y-92558761D01*
X27382000Y-93776000D01*
X28597921Y-93776000D01*
X28687596Y-93534361D01*
X28560573Y-93227660D01*
X28167423Y-92755841D01*
X27623642Y-92470389D01*
X27382000Y-92558761D01*
X26974000Y-92558761D01*
X26732358Y-92470389D01*
X26188577Y-92755841D01*
X25795427Y-93227660D01*
X25668404Y-93534361D01*
X23997000Y-93534361D01*
X23997000Y-88767000D01*
X116211000Y-88767000D01*
X116211000Y-112325793D01*
M02*
