G04 #@! TF.FileFunction,Soldermask,Top*
%FSLAX46Y46*%
G04 Gerber Fmt 4.6, Leading zero omitted, Abs format (unit mm)*
G04 Created by KiCad (PCBNEW 4.0.1-stable) date 1/20/2016 5:17:17 PM*
%MOMM*%
G01*
G04 APERTURE LIST*
%ADD10C,0.100000*%
%ADD11C,3.000000*%
%ADD12R,1.150000X1.600000*%
%ADD13R,2.432000X2.432000*%
%ADD14O,2.432000X2.432000*%
%ADD15R,1.300000X1.600000*%
%ADD16R,1.600000X1.300000*%
%ADD17R,4.057600X2.432000*%
%ADD18R,1.416000X2.432000*%
%ADD19R,1.700000X1.700000*%
%ADD20C,1.700000*%
%ADD21O,1.901140X1.299160*%
%ADD22C,1.900000*%
%ADD23C,1.924000*%
G04 APERTURE END LIST*
D10*
D11*
X114597000Y-113284000D03*
X111047000Y-108784000D03*
X106247000Y-118284000D03*
D12*
X37846000Y-94676000D03*
X37846000Y-92776000D03*
X37846000Y-98740000D03*
X37846000Y-96840000D03*
D13*
X43180000Y-91948000D03*
D14*
X43180000Y-94488000D03*
D13*
X27178000Y-96520000D03*
D14*
X27178000Y-93980000D03*
D15*
X43942000Y-103548000D03*
X43942000Y-105748000D03*
X43942000Y-98722000D03*
X43942000Y-100922000D03*
X53086000Y-100500000D03*
X53086000Y-102700000D03*
D16*
X47414000Y-97028000D03*
X49614000Y-97028000D03*
D15*
X83566000Y-92626000D03*
X83566000Y-94826000D03*
X83566000Y-96944000D03*
X83566000Y-99144000D03*
D16*
X88222000Y-92456000D03*
X86022000Y-92456000D03*
X88222000Y-100076000D03*
X86022000Y-100076000D03*
X94912000Y-96266000D03*
X97112000Y-96266000D03*
X97112000Y-98298000D03*
X94912000Y-98298000D03*
D17*
X33020000Y-90678000D03*
D18*
X33020000Y-97282000D03*
X35306000Y-97282000D03*
X30734000Y-97282000D03*
D19*
X32766000Y-105410000D03*
D20*
X32766000Y-112910000D03*
D19*
X62230000Y-106680000D03*
D20*
X62230000Y-114180000D03*
D19*
X68834000Y-97028000D03*
D20*
X76334000Y-97028000D03*
D19*
X79248000Y-110236000D03*
D20*
X86748000Y-110236000D03*
D19*
X104394000Y-97282000D03*
D20*
X111894000Y-97282000D03*
D21*
X43942000Y-109728000D03*
X43942000Y-108458000D03*
X43942000Y-110998000D03*
X48768000Y-101346000D03*
X48768000Y-100076000D03*
X48768000Y-102616000D03*
X50292000Y-109728000D03*
X50292000Y-108458000D03*
X50292000Y-110998000D03*
X87630000Y-96266000D03*
X87630000Y-94996000D03*
X87630000Y-97536000D03*
X96520000Y-92456000D03*
X96520000Y-91186000D03*
X96520000Y-93726000D03*
X95758000Y-102108000D03*
X95758000Y-103378000D03*
X95758000Y-100838000D03*
D22*
X49990000Y-116332000D03*
X46990000Y-116332000D03*
X43990000Y-116332000D03*
D23*
X47752000Y-91948000D03*
X40373300Y-100914200D03*
X59690000Y-97028000D03*
X72644000Y-114808000D03*
X91694000Y-102108000D03*
D10*
G36*
X27001000Y-121362000D02*
X23672000Y-121362000D01*
X23672000Y-115239000D01*
X27001000Y-115239000D01*
X27001000Y-121362000D01*
X27001000Y-121362000D01*
G37*
X27001000Y-121362000D02*
X23672000Y-121362000D01*
X23672000Y-115239000D01*
X27001000Y-115239000D01*
X27001000Y-121362000D01*
G36*
X99264000Y-121362000D02*
X91363000Y-121362000D01*
X91363000Y-112699000D01*
X99264000Y-112699000D01*
X99264000Y-121362000D01*
X99264000Y-121362000D01*
G37*
X99264000Y-121362000D02*
X91363000Y-121362000D01*
X91363000Y-112699000D01*
X99264000Y-112699000D01*
X99264000Y-121362000D01*
M02*
