G04 #@! TF.FileFunction,Copper,L1,Top,Signal*
%FSLAX46Y46*%
G04 Gerber Fmt 4.6, Leading zero omitted, Abs format (unit mm)*
G04 Created by KiCad (PCBNEW 4.0.1-stable) date 1/9/2016 1:44:47 PM*
%MOMM*%
G01*
G04 APERTURE LIST*
%ADD10C,0.100000*%
%ADD11R,0.750000X1.200000*%
%ADD12R,2.032000X2.032000*%
%ADD13O,2.032000X2.032000*%
%ADD14R,0.900000X1.200000*%
%ADD15R,1.200000X0.900000*%
%ADD16R,3.657600X2.032000*%
%ADD17R,1.016000X2.032000*%
%ADD18R,1.300000X1.300000*%
%ADD19C,1.300000*%
%ADD20O,1.501140X0.899160*%
%ADD21C,1.500000*%
%ADD22O,1.500000X2.500000*%
%ADD23O,2.500000X1.500000*%
%ADD24C,1.524000*%
%ADD25C,0.600000*%
%ADD26C,0.750000*%
G04 APERTURE END LIST*
D10*
D11*
X37846000Y-94676000D03*
X37846000Y-92776000D03*
X37846000Y-98740000D03*
X37846000Y-96840000D03*
D12*
X43180000Y-91948000D03*
D13*
X43180000Y-94488000D03*
D12*
X27178000Y-96520000D03*
D13*
X27178000Y-93980000D03*
D14*
X43942000Y-103548000D03*
X43942000Y-105748000D03*
X43942000Y-98722000D03*
X43942000Y-100922000D03*
X53086000Y-100500000D03*
X53086000Y-102700000D03*
D15*
X47414000Y-97028000D03*
X49614000Y-97028000D03*
D14*
X83566000Y-92626000D03*
X83566000Y-94826000D03*
X83566000Y-96944000D03*
X83566000Y-99144000D03*
D15*
X88222000Y-92456000D03*
X86022000Y-92456000D03*
X88222000Y-100076000D03*
X86022000Y-100076000D03*
X94912000Y-96266000D03*
X97112000Y-96266000D03*
X97112000Y-98298000D03*
X94912000Y-98298000D03*
D16*
X33020000Y-90678000D03*
D17*
X33020000Y-97282000D03*
X35306000Y-97282000D03*
X30734000Y-97282000D03*
D18*
X32766000Y-105410000D03*
D19*
X32766000Y-112910000D03*
D18*
X62230000Y-106680000D03*
D19*
X62230000Y-114180000D03*
D18*
X68834000Y-97028000D03*
D19*
X76334000Y-97028000D03*
D18*
X79248000Y-110236000D03*
D19*
X86748000Y-110236000D03*
D18*
X104394000Y-97282000D03*
D19*
X111894000Y-97282000D03*
D20*
X43942000Y-109728000D03*
X43942000Y-108458000D03*
X43942000Y-110998000D03*
X48768000Y-101346000D03*
X48768000Y-100076000D03*
X48768000Y-102616000D03*
X50292000Y-109728000D03*
X50292000Y-108458000D03*
X50292000Y-110998000D03*
X87630000Y-96266000D03*
X87630000Y-94996000D03*
X87630000Y-97536000D03*
X96520000Y-92456000D03*
X96520000Y-91186000D03*
X96520000Y-93726000D03*
X95758000Y-102108000D03*
X95758000Y-103378000D03*
X95758000Y-100838000D03*
D21*
X49990000Y-116332000D03*
X46990000Y-116332000D03*
X43990000Y-116332000D03*
D22*
X114724000Y-114300000D03*
D23*
X111174000Y-109800000D03*
X106374000Y-119300000D03*
D24*
X47752000Y-91948000D03*
X40373300Y-100914200D03*
X59690000Y-97028000D03*
X72644000Y-114808000D03*
X91694000Y-102108000D03*
D25*
X39243000Y-112268000D03*
X25146000Y-102235000D03*
X25273000Y-109347000D03*
X26924000Y-113157000D03*
X27559000Y-117221000D03*
X34671000Y-115951000D03*
X38735000Y-118364000D03*
X29591000Y-101219000D03*
X28956000Y-106172000D03*
X32385000Y-109728000D03*
X36068000Y-108585000D03*
X41402000Y-105410000D03*
X113411000Y-94107000D03*
X111252000Y-92075000D03*
X105791000Y-92075000D03*
X100457000Y-91567000D03*
X100584000Y-94488000D03*
X107061000Y-95504000D03*
X107315000Y-103505000D03*
X107061000Y-114554000D03*
X102362000Y-113792000D03*
X102997000Y-106045000D03*
X103632000Y-100584000D03*
X99060000Y-99695000D03*
X98679000Y-105791000D03*
X97663000Y-110744000D03*
X97917000Y-118364000D03*
X92329000Y-116840000D03*
X93853000Y-108839000D03*
X90297000Y-105029000D03*
X89408000Y-112522000D03*
X84709000Y-117475000D03*
X84074000Y-107696000D03*
X86487000Y-103886000D03*
X81280000Y-103505000D03*
X81153000Y-96266000D03*
X78359000Y-98679000D03*
X78359000Y-106299000D03*
X81407000Y-107823000D03*
X81788000Y-112649000D03*
X78867000Y-117602000D03*
X68580000Y-117221000D03*
X61595000Y-117475000D03*
X66294000Y-113411000D03*
X53086000Y-98806000D03*
X53594000Y-114046000D03*
X56134000Y-111633000D03*
X61087000Y-111252000D03*
X65024000Y-108966000D03*
X69342000Y-111887000D03*
X75946000Y-111506000D03*
X72136000Y-107188000D03*
X67310000Y-107188000D03*
X64770000Y-104775000D03*
X58420000Y-106807000D03*
X50038000Y-105410000D03*
X57150000Y-103378000D03*
X60579000Y-102870000D03*
X67056000Y-103378000D03*
X74168000Y-103505000D03*
X72263000Y-98933000D03*
X64770000Y-98933000D03*
X57658000Y-98806000D03*
X45593000Y-98552000D03*
X49403000Y-98552000D03*
X92964000Y-95123000D03*
X89916000Y-96647000D03*
X89916000Y-100203000D03*
X93091000Y-100203000D03*
X91313000Y-91186000D03*
X87503000Y-93726000D03*
X90043000Y-93091000D03*
X50800000Y-95250000D03*
X78105000Y-92710000D03*
X73914000Y-96393000D03*
X72136000Y-92583000D03*
X69342000Y-94996000D03*
X66548000Y-92329000D03*
X62865000Y-95250000D03*
X60198000Y-92456000D03*
X56515000Y-95504000D03*
X53721000Y-92456000D03*
X25273000Y-93980000D03*
X29083000Y-94107000D03*
X27178000Y-92075000D03*
X112776000Y-114300000D03*
X114808000Y-112141000D03*
X114808000Y-116459000D03*
X104140000Y-119380000D03*
X106426000Y-117602000D03*
X108839000Y-119253000D03*
X94234000Y-103505000D03*
X95758000Y-104775000D03*
X97409000Y-103378000D03*
X86106000Y-98679000D03*
X85979000Y-101473000D03*
X36703000Y-96901000D03*
X38989000Y-96901000D03*
X36576000Y-92837000D03*
X38989000Y-92710000D03*
X37846000Y-91440000D03*
X48133000Y-115189000D03*
X48133000Y-117348000D03*
X45974000Y-117348000D03*
X45974000Y-115189000D03*
X48895000Y-110998000D03*
X50292000Y-112395000D03*
X51943000Y-110998000D03*
X42291000Y-110998000D03*
X43942000Y-112395000D03*
X45720000Y-110998000D03*
X51689000Y-102743000D03*
X53086000Y-104140000D03*
X54483000Y-102743000D03*
X29464000Y-97282000D03*
X30734000Y-95250000D03*
X30734000Y-99060000D03*
X30353000Y-90678000D03*
X35687000Y-90678000D03*
X33020000Y-92329000D03*
X41402000Y-94488000D03*
X44958000Y-94488000D03*
X43180000Y-96266000D03*
D26*
X43180000Y-91948000D02*
X47752000Y-91948000D01*
X43180000Y-91948000D02*
X49276000Y-91948000D01*
X94996000Y-91186000D02*
X96520000Y-91186000D01*
X92964000Y-89154000D02*
X94996000Y-91186000D01*
X52070000Y-89154000D02*
X92964000Y-89154000D01*
X49276000Y-91948000D02*
X52070000Y-89154000D01*
X37846000Y-94676000D02*
X36388000Y-94676000D01*
X35306000Y-95758000D02*
X35306000Y-97282000D01*
X36388000Y-94676000D02*
X35306000Y-95758000D01*
X43180000Y-91948000D02*
X41910000Y-91948000D01*
X39182000Y-94676000D02*
X37846000Y-94676000D01*
X41910000Y-91948000D02*
X39182000Y-94676000D01*
X25527000Y-102235000D02*
X25146000Y-102235000D01*
X25273000Y-111506000D02*
X25273000Y-109347000D01*
X26924000Y-113157000D02*
X25273000Y-111506000D01*
X33401000Y-117221000D02*
X27559000Y-117221000D01*
X34671000Y-115951000D02*
X33401000Y-117221000D01*
X38735000Y-112776000D02*
X38735000Y-118364000D01*
X38735000Y-112776000D02*
X39243000Y-112268000D01*
X41275000Y-105410000D02*
X41402000Y-105410000D01*
X29591000Y-105537000D02*
X29591000Y-101219000D01*
X28956000Y-106172000D02*
X29591000Y-105537000D01*
X34925000Y-109728000D02*
X32385000Y-109728000D01*
X36068000Y-108585000D02*
X34925000Y-109728000D01*
X66294000Y-113538000D02*
X66294000Y-113411000D01*
X105791000Y-92075000D02*
X111252000Y-92075000D01*
X100457000Y-94361000D02*
X100457000Y-91567000D01*
X100584000Y-94488000D02*
X100457000Y-94361000D01*
X107061000Y-103251000D02*
X107061000Y-95504000D01*
X107315000Y-103505000D02*
X107061000Y-103251000D01*
X103124000Y-114554000D02*
X107061000Y-114554000D01*
X102362000Y-113792000D02*
X103124000Y-114554000D01*
X102997000Y-101219000D02*
X102997000Y-106045000D01*
X103632000Y-100584000D02*
X102997000Y-101219000D01*
X99060000Y-105410000D02*
X99060000Y-99695000D01*
X98679000Y-105791000D02*
X99060000Y-105410000D01*
X97663000Y-118110000D02*
X97663000Y-110744000D01*
X97917000Y-118364000D02*
X97663000Y-118110000D01*
X92329000Y-110363000D02*
X92329000Y-116840000D01*
X93853000Y-108839000D02*
X92329000Y-110363000D01*
X90297000Y-111633000D02*
X90297000Y-105029000D01*
X89408000Y-112522000D02*
X90297000Y-111633000D01*
X84709000Y-108331000D02*
X84709000Y-117475000D01*
X84074000Y-107696000D02*
X84709000Y-108331000D01*
X81661000Y-103886000D02*
X86487000Y-103886000D01*
X81280000Y-103505000D02*
X81661000Y-103886000D01*
X80772000Y-96266000D02*
X81153000Y-96266000D01*
X78359000Y-98679000D02*
X80772000Y-96266000D01*
X79883000Y-106299000D02*
X78359000Y-106299000D01*
X81407000Y-107823000D02*
X79883000Y-106299000D01*
X81788000Y-114681000D02*
X81788000Y-112649000D01*
X78867000Y-117602000D02*
X81788000Y-114681000D01*
X61849000Y-117221000D02*
X68580000Y-117221000D01*
X61595000Y-117475000D02*
X61849000Y-117221000D01*
X58293000Y-114300000D02*
X53848000Y-114300000D01*
X53594000Y-114046000D02*
X53848000Y-114300000D01*
X60706000Y-111633000D02*
X56134000Y-111633000D01*
X61087000Y-111252000D02*
X60706000Y-111633000D01*
X66421000Y-108966000D02*
X65024000Y-108966000D01*
X69342000Y-111887000D02*
X66421000Y-108966000D01*
X75946000Y-110998000D02*
X75946000Y-111506000D01*
X72136000Y-107188000D02*
X75946000Y-110998000D01*
X67183000Y-107188000D02*
X67310000Y-107188000D01*
X64770000Y-104775000D02*
X67183000Y-107188000D01*
X51435000Y-106807000D02*
X58420000Y-106807000D01*
X50038000Y-105410000D02*
X51435000Y-106807000D01*
X60071000Y-103378000D02*
X57150000Y-103378000D01*
X60579000Y-102870000D02*
X60071000Y-103378000D01*
X74041000Y-103378000D02*
X67056000Y-103378000D01*
X74168000Y-103505000D02*
X74041000Y-103378000D01*
X64770000Y-98933000D02*
X72263000Y-98933000D01*
X57658000Y-98806000D02*
X53086000Y-98806000D01*
X49403000Y-98552000D02*
X45593000Y-98552000D01*
X89916000Y-96647000D02*
X89916000Y-100203000D01*
X93091000Y-95250000D02*
X93091000Y-100203000D01*
X93091000Y-95250000D02*
X92964000Y-95123000D01*
X87503000Y-93726000D02*
X89408000Y-93726000D01*
X90043000Y-93091000D02*
X89408000Y-93726000D01*
X80064247Y-91954247D02*
X78860753Y-91954247D01*
X78105000Y-92710000D02*
X78860753Y-91954247D01*
X73914000Y-94361000D02*
X73914000Y-96393000D01*
X72136000Y-92583000D02*
X73914000Y-94361000D01*
X69215000Y-94996000D02*
X69342000Y-94996000D01*
X66548000Y-92329000D02*
X69215000Y-94996000D01*
X62865000Y-95123000D02*
X62865000Y-95250000D01*
X60198000Y-92456000D02*
X62865000Y-95123000D01*
X56515000Y-95250000D02*
X56515000Y-95504000D01*
X53721000Y-92456000D02*
X56515000Y-95250000D01*
X27178000Y-92075000D02*
X25273000Y-93980000D01*
X114808000Y-116332000D02*
X114808000Y-116459000D01*
X114808000Y-116332000D02*
X112776000Y-114300000D01*
X106426000Y-117602000D02*
X107188000Y-117602000D01*
X108839000Y-119253000D02*
X107188000Y-117602000D01*
X94361000Y-103378000D02*
X97409000Y-103378000D01*
X94361000Y-103378000D02*
X94234000Y-103505000D01*
X85979000Y-98806000D02*
X85979000Y-101473000D01*
X85979000Y-98806000D02*
X86106000Y-98679000D01*
X36703000Y-96901000D02*
X38989000Y-96901000D01*
X38989000Y-92710000D02*
X38989000Y-92583000D01*
X37846000Y-91440000D02*
X38989000Y-92583000D01*
X45974000Y-115189000D02*
X45974000Y-117348000D01*
X51943000Y-110998000D02*
X48895000Y-110998000D01*
X44323000Y-112395000D02*
X43942000Y-112395000D01*
X45720000Y-110998000D02*
X44323000Y-112395000D01*
X54483000Y-102743000D02*
X51689000Y-102743000D01*
X30734000Y-95250000D02*
X30734000Y-99060000D01*
X35687000Y-90932000D02*
X35687000Y-90678000D01*
X32004000Y-92329000D02*
X33020000Y-92329000D01*
X32004000Y-92329000D02*
X30353000Y-90678000D01*
X44958000Y-94488000D02*
X43180000Y-96266000D01*
X47414000Y-97028000D02*
X47414000Y-95842000D01*
X88222000Y-90762000D02*
X88222000Y-92456000D01*
X88138000Y-90678000D02*
X88222000Y-90762000D01*
X52578000Y-90678000D02*
X88138000Y-90678000D01*
X47414000Y-95842000D02*
X52578000Y-90678000D01*
X33020000Y-97282000D02*
X33020000Y-102108000D01*
X37422000Y-103548000D02*
X43942000Y-103548000D01*
X33782000Y-107188000D02*
X37422000Y-103548000D01*
X31750000Y-107188000D02*
X33782000Y-107188000D01*
X30988000Y-106426000D02*
X31750000Y-107188000D01*
X30988000Y-104140000D02*
X30988000Y-106426000D01*
X33020000Y-102108000D02*
X30988000Y-104140000D01*
X43942000Y-98722000D02*
X43942000Y-97028000D01*
X43942000Y-97028000D02*
X47414000Y-97028000D01*
X37846000Y-98740000D02*
X43924000Y-98740000D01*
X43924000Y-98740000D02*
X43942000Y-98722000D01*
X33020000Y-97282000D02*
X33020000Y-99060000D01*
X37846000Y-99822000D02*
X37846000Y-98740000D01*
X33782000Y-99822000D02*
X37846000Y-99822000D01*
X33020000Y-99060000D02*
X33782000Y-99822000D01*
X43934200Y-100914200D02*
X40373300Y-100914200D01*
X43942000Y-100922000D02*
X43934200Y-100914200D01*
X43942000Y-100922000D02*
X44366000Y-101346000D01*
X44366000Y-101346000D02*
X48768000Y-101346000D01*
X48768000Y-101346000D02*
X51054000Y-101346000D01*
X51900000Y-100500000D02*
X53086000Y-100500000D01*
X51054000Y-101346000D02*
X51900000Y-100500000D01*
X43942000Y-100922000D02*
X37254000Y-100922000D01*
X37254000Y-100922000D02*
X32766000Y-105410000D01*
X43942000Y-108458000D02*
X43942000Y-109728000D01*
X43942000Y-109728000D02*
X50292000Y-109728000D01*
X43942000Y-105748000D02*
X43942000Y-108458000D01*
X27178000Y-96520000D02*
X27178000Y-107322000D01*
X27178000Y-107322000D02*
X32766000Y-112910000D01*
X49614000Y-97028000D02*
X59690000Y-97028000D01*
X51054000Y-97028000D02*
X51054000Y-99568000D01*
X50546000Y-100076000D02*
X48768000Y-100076000D01*
X51054000Y-99568000D02*
X50546000Y-100076000D01*
X49614000Y-97028000D02*
X51054000Y-97028000D01*
X51054000Y-97028000D02*
X68834000Y-97028000D01*
X79248000Y-110236000D02*
X79248000Y-112014000D01*
X76454000Y-114808000D02*
X72644000Y-114808000D01*
X79248000Y-112014000D02*
X76454000Y-114808000D01*
X87630000Y-94996000D02*
X90170000Y-94996000D01*
X92710000Y-92456000D02*
X96520000Y-92456000D01*
X90170000Y-94996000D02*
X92710000Y-92456000D01*
X86022000Y-92456000D02*
X86022000Y-94912000D01*
X86106000Y-94996000D02*
X87630000Y-94996000D01*
X86022000Y-94912000D02*
X86106000Y-94996000D01*
X76334000Y-97028000D02*
X76334000Y-107322000D01*
X76334000Y-107322000D02*
X79248000Y-110236000D01*
X83566000Y-92626000D02*
X80736000Y-92626000D01*
X80736000Y-92626000D02*
X76334000Y-97028000D01*
X86022000Y-92456000D02*
X83736000Y-92456000D01*
X83736000Y-92456000D02*
X83566000Y-92626000D01*
X83566000Y-94826000D02*
X83566000Y-96944000D01*
X83566000Y-96944000D02*
X83566000Y-96266000D01*
X83566000Y-96266000D02*
X87630000Y-96266000D01*
X89408000Y-102108000D02*
X91694000Y-102108000D01*
X87630000Y-97536000D02*
X88392000Y-97536000D01*
X88392000Y-97536000D02*
X88392000Y-99906000D01*
X88392000Y-99906000D02*
X88222000Y-100076000D01*
X83566000Y-99144000D02*
X85174000Y-97536000D01*
X85174000Y-97536000D02*
X87630000Y-97536000D01*
X88222000Y-101854000D02*
X88222000Y-108762000D01*
X88222000Y-108762000D02*
X86748000Y-110236000D01*
X88222000Y-100076000D02*
X88222000Y-101854000D01*
X88222000Y-101854000D02*
X88222000Y-101938000D01*
X88392000Y-102108000D02*
X89408000Y-102108000D01*
X89408000Y-102108000D02*
X95758000Y-102108000D01*
X88222000Y-101938000D02*
X88392000Y-102108000D01*
X96520000Y-93726000D02*
X95250000Y-93726000D01*
X94912000Y-94064000D02*
X94912000Y-96266000D01*
X95250000Y-93726000D02*
X94912000Y-94064000D01*
X104394000Y-97282000D02*
X97112000Y-97282000D01*
X97112000Y-96266000D02*
X97112000Y-97282000D01*
X97112000Y-97282000D02*
X97112000Y-98298000D01*
X95758000Y-100838000D02*
X94996000Y-100838000D01*
X94996000Y-100838000D02*
X94996000Y-98382000D01*
X94996000Y-98382000D02*
X94912000Y-98298000D01*
X48768000Y-102616000D02*
X47498000Y-102616000D01*
X48768000Y-108458000D02*
X50292000Y-108458000D01*
X47498000Y-107188000D02*
X48768000Y-108458000D01*
X47498000Y-102616000D02*
X47498000Y-107188000D01*
X50292000Y-108458000D02*
X60452000Y-108458000D01*
X60452000Y-108458000D02*
X62230000Y-106680000D01*
X62230000Y-114180000D02*
X60078000Y-116332000D01*
X60078000Y-116332000D02*
X49990000Y-116332000D01*
X111174000Y-109800000D02*
X111894000Y-109080000D01*
X111894000Y-109080000D02*
X111894000Y-97282000D01*
D10*
G36*
X48996406Y-91273000D02*
X48578763Y-91273000D01*
X48354360Y-91048205D01*
X47964172Y-90886185D01*
X47541682Y-90885816D01*
X47151211Y-91047155D01*
X46924972Y-91273000D01*
X44501877Y-91273000D01*
X44501877Y-90932000D01*
X44480958Y-90820827D01*
X44415255Y-90718721D01*
X44315003Y-90650222D01*
X44196000Y-90626123D01*
X42164000Y-90626123D01*
X42052827Y-90647042D01*
X41950721Y-90712745D01*
X41882222Y-90812997D01*
X41858123Y-90932000D01*
X41858123Y-91283319D01*
X41651689Y-91324381D01*
X41432703Y-91470703D01*
X38902406Y-94001000D01*
X38512765Y-94001000D01*
X38505958Y-93964827D01*
X38449287Y-93876757D01*
X38532550Y-93842268D01*
X38687267Y-93687550D01*
X38771000Y-93485402D01*
X38771000Y-93113500D01*
X38633500Y-92976000D01*
X38033500Y-92976000D01*
X38033500Y-92996000D01*
X37658500Y-92996000D01*
X37658500Y-92976000D01*
X37058500Y-92976000D01*
X36921000Y-93113500D01*
X36921000Y-93485402D01*
X37004733Y-93687550D01*
X37159450Y-93842268D01*
X37243753Y-93877187D01*
X37189222Y-93956997D01*
X37180311Y-94001000D01*
X36388000Y-94001000D01*
X36129688Y-94052381D01*
X35910703Y-94198703D01*
X34828703Y-95280703D01*
X34682381Y-95499688D01*
X34654615Y-95639279D01*
X34631000Y-95758000D01*
X34631000Y-96016965D01*
X34584721Y-96046745D01*
X34516222Y-96146997D01*
X34492123Y-96266000D01*
X34492123Y-98298000D01*
X34513042Y-98409173D01*
X34578745Y-98511279D01*
X34678997Y-98579778D01*
X34798000Y-98603877D01*
X35814000Y-98603877D01*
X35925173Y-98582958D01*
X36027279Y-98517255D01*
X36095778Y-98417003D01*
X36119877Y-98298000D01*
X36119877Y-96266000D01*
X36098958Y-96154827D01*
X36083368Y-96130598D01*
X36921000Y-96130598D01*
X36921000Y-96502500D01*
X37058500Y-96640000D01*
X37658500Y-96640000D01*
X37658500Y-95827500D01*
X38033500Y-95827500D01*
X38033500Y-96640000D01*
X38633500Y-96640000D01*
X38771000Y-96502500D01*
X38771000Y-96130598D01*
X38687267Y-95928450D01*
X38532550Y-95773732D01*
X38330402Y-95690000D01*
X38171000Y-95690000D01*
X38033500Y-95827500D01*
X37658500Y-95827500D01*
X37521000Y-95690000D01*
X37361598Y-95690000D01*
X37159450Y-95773732D01*
X37004733Y-95928450D01*
X36921000Y-96130598D01*
X36083368Y-96130598D01*
X36033255Y-96052721D01*
X35993225Y-96025369D01*
X36667594Y-95351000D01*
X37179235Y-95351000D01*
X37186042Y-95387173D01*
X37251745Y-95489279D01*
X37351997Y-95557778D01*
X37471000Y-95581877D01*
X38221000Y-95581877D01*
X38332173Y-95560958D01*
X38434279Y-95495255D01*
X38502778Y-95395003D01*
X38511689Y-95351000D01*
X39182000Y-95351000D01*
X39440312Y-95299619D01*
X39659297Y-95153297D01*
X39884086Y-94928508D01*
X41677233Y-94928508D01*
X41805885Y-95239140D01*
X42197932Y-95707814D01*
X42739490Y-95990782D01*
X42980000Y-95903691D01*
X42980000Y-94688000D01*
X43380000Y-94688000D01*
X43380000Y-95903691D01*
X43620510Y-95990782D01*
X44162068Y-95707814D01*
X44554115Y-95239140D01*
X44682767Y-94928508D01*
X44594430Y-94688000D01*
X43380000Y-94688000D01*
X42980000Y-94688000D01*
X41765570Y-94688000D01*
X41677233Y-94928508D01*
X39884086Y-94928508D01*
X41858123Y-92954471D01*
X41858123Y-92964000D01*
X41879042Y-93075173D01*
X41944745Y-93177279D01*
X42044997Y-93245778D01*
X42164000Y-93269877D01*
X42196517Y-93269877D01*
X41805885Y-93736860D01*
X41677233Y-94047492D01*
X41765570Y-94288000D01*
X42980000Y-94288000D01*
X42980000Y-94268000D01*
X43380000Y-94268000D01*
X43380000Y-94288000D01*
X44594430Y-94288000D01*
X44682767Y-94047492D01*
X44554115Y-93736860D01*
X44163483Y-93269877D01*
X44196000Y-93269877D01*
X44307173Y-93248958D01*
X44409279Y-93183255D01*
X44477778Y-93083003D01*
X44501877Y-92964000D01*
X44501877Y-92623000D01*
X46925237Y-92623000D01*
X47149640Y-92847795D01*
X47539828Y-93009815D01*
X47962318Y-93010184D01*
X48352789Y-92848845D01*
X48579028Y-92623000D01*
X49276000Y-92623000D01*
X49534312Y-92571619D01*
X49753297Y-92425297D01*
X52349594Y-89829000D01*
X92684406Y-89829000D01*
X94518703Y-91663297D01*
X94694857Y-91781000D01*
X92710000Y-91781000D01*
X92451689Y-91832381D01*
X92328300Y-91914827D01*
X92232703Y-91978703D01*
X89890406Y-94321000D01*
X88264647Y-94321000D01*
X88238424Y-94303478D01*
X87951572Y-94246420D01*
X87308428Y-94246420D01*
X87021576Y-94303478D01*
X86995353Y-94321000D01*
X86697000Y-94321000D01*
X86697000Y-93197765D01*
X86733173Y-93190958D01*
X86835279Y-93125255D01*
X86903778Y-93025003D01*
X86927877Y-92906000D01*
X86927877Y-92006000D01*
X86906958Y-91894827D01*
X86841255Y-91792721D01*
X86741003Y-91724222D01*
X86622000Y-91700123D01*
X85422000Y-91700123D01*
X85310827Y-91721042D01*
X85217649Y-91781000D01*
X84188830Y-91781000D01*
X84135003Y-91744222D01*
X84016000Y-91720123D01*
X83116000Y-91720123D01*
X83004827Y-91741042D01*
X82902721Y-91806745D01*
X82834222Y-91906997D01*
X82825311Y-91951000D01*
X80736000Y-91951000D01*
X80477688Y-92002381D01*
X80258703Y-92148703D01*
X76329411Y-96077995D01*
X76145862Y-96077835D01*
X75796571Y-96222159D01*
X75529098Y-96489165D01*
X75384165Y-96838204D01*
X75383835Y-97216138D01*
X75528159Y-97565429D01*
X75659000Y-97696499D01*
X75659000Y-107322000D01*
X75710381Y-107580312D01*
X75856703Y-107799297D01*
X78292123Y-110234717D01*
X78292123Y-110886000D01*
X78313042Y-110997173D01*
X78378745Y-111099279D01*
X78478997Y-111167778D01*
X78573000Y-111186814D01*
X78573000Y-111734406D01*
X76174406Y-114133000D01*
X73470763Y-114133000D01*
X73246360Y-113908205D01*
X72856172Y-113746185D01*
X72433682Y-113745816D01*
X72043211Y-113907155D01*
X71744205Y-114205640D01*
X71582185Y-114595828D01*
X71581816Y-115018318D01*
X71743155Y-115408789D01*
X72041640Y-115707795D01*
X72431828Y-115869815D01*
X72854318Y-115870184D01*
X73244789Y-115708845D01*
X73471028Y-115483000D01*
X76454000Y-115483000D01*
X76712312Y-115431619D01*
X76931297Y-115285297D01*
X77716594Y-114500000D01*
X113424000Y-114500000D01*
X113424000Y-115000000D01*
X113599493Y-115482264D01*
X113946182Y-115860660D01*
X114325519Y-116037421D01*
X114524000Y-115945166D01*
X114524000Y-114500000D01*
X114924000Y-114500000D01*
X114924000Y-115945166D01*
X115122481Y-116037421D01*
X115501818Y-115860660D01*
X115848507Y-115482264D01*
X116024000Y-115000000D01*
X116024000Y-114500000D01*
X114924000Y-114500000D01*
X114524000Y-114500000D01*
X113424000Y-114500000D01*
X77716594Y-114500000D01*
X78616594Y-113600000D01*
X113424000Y-113600000D01*
X113424000Y-114100000D01*
X114524000Y-114100000D01*
X114524000Y-112654834D01*
X114924000Y-112654834D01*
X114924000Y-114100000D01*
X116024000Y-114100000D01*
X116024000Y-113600000D01*
X115848507Y-113117736D01*
X115501818Y-112739340D01*
X115122481Y-112562579D01*
X114924000Y-112654834D01*
X114524000Y-112654834D01*
X114325519Y-112562579D01*
X113946182Y-112739340D01*
X113599493Y-113117736D01*
X113424000Y-113600000D01*
X78616594Y-113600000D01*
X79725297Y-112491297D01*
X79871619Y-112272312D01*
X79923000Y-112014000D01*
X79923000Y-111187173D01*
X80009173Y-111170958D01*
X80111279Y-111105255D01*
X80179778Y-111005003D01*
X80203877Y-110886000D01*
X80203877Y-109586000D01*
X80182958Y-109474827D01*
X80117255Y-109372721D01*
X80017003Y-109304222D01*
X79898000Y-109280123D01*
X79246717Y-109280123D01*
X77009000Y-107042406D01*
X77009000Y-100413500D01*
X84872000Y-100413500D01*
X84872000Y-100635402D01*
X84955732Y-100837550D01*
X85110450Y-100992267D01*
X85312598Y-101076000D01*
X85684500Y-101076000D01*
X85822000Y-100938500D01*
X85822000Y-100276000D01*
X86222000Y-100276000D01*
X86222000Y-100938500D01*
X86359500Y-101076000D01*
X86731402Y-101076000D01*
X86933550Y-100992267D01*
X87088268Y-100837550D01*
X87172000Y-100635402D01*
X87172000Y-100413500D01*
X87034500Y-100276000D01*
X86222000Y-100276000D01*
X85822000Y-100276000D01*
X85009500Y-100276000D01*
X84872000Y-100413500D01*
X77009000Y-100413500D01*
X77009000Y-97696510D01*
X77138902Y-97566835D01*
X77283835Y-97217796D01*
X77283997Y-97032597D01*
X81015594Y-93301000D01*
X82824235Y-93301000D01*
X82831042Y-93337173D01*
X82896745Y-93439279D01*
X82996997Y-93507778D01*
X83116000Y-93531877D01*
X84016000Y-93531877D01*
X84127173Y-93510958D01*
X84229279Y-93445255D01*
X84297778Y-93345003D01*
X84321877Y-93226000D01*
X84321877Y-93131000D01*
X85219899Y-93131000D01*
X85302997Y-93187778D01*
X85347000Y-93196689D01*
X85347000Y-94912000D01*
X85398381Y-95170312D01*
X85544703Y-95389297D01*
X85628703Y-95473297D01*
X85804857Y-95591000D01*
X84266350Y-95591000D01*
X84297778Y-95545003D01*
X84321877Y-95426000D01*
X84321877Y-94226000D01*
X84300958Y-94114827D01*
X84235255Y-94012721D01*
X84135003Y-93944222D01*
X84016000Y-93920123D01*
X83116000Y-93920123D01*
X83004827Y-93941042D01*
X82902721Y-94006745D01*
X82834222Y-94106997D01*
X82810123Y-94226000D01*
X82810123Y-95426000D01*
X82831042Y-95537173D01*
X82891000Y-95630351D01*
X82891000Y-96141899D01*
X82834222Y-96224997D01*
X82810123Y-96344000D01*
X82810123Y-97544000D01*
X82831042Y-97655173D01*
X82896745Y-97757279D01*
X82996997Y-97825778D01*
X83116000Y-97849877D01*
X83905529Y-97849877D01*
X83517283Y-98238123D01*
X83116000Y-98238123D01*
X83004827Y-98259042D01*
X82902721Y-98324745D01*
X82834222Y-98424997D01*
X82810123Y-98544000D01*
X82810123Y-99744000D01*
X82831042Y-99855173D01*
X82896745Y-99957279D01*
X82996997Y-100025778D01*
X83116000Y-100049877D01*
X84016000Y-100049877D01*
X84127173Y-100028958D01*
X84229279Y-99963255D01*
X84297778Y-99863003D01*
X84321877Y-99744000D01*
X84321877Y-99516598D01*
X84872000Y-99516598D01*
X84872000Y-99738500D01*
X85009500Y-99876000D01*
X85822000Y-99876000D01*
X85822000Y-99213500D01*
X86222000Y-99213500D01*
X86222000Y-99876000D01*
X87034500Y-99876000D01*
X87172000Y-99738500D01*
X87172000Y-99516598D01*
X87088268Y-99314450D01*
X86933550Y-99159733D01*
X86731402Y-99076000D01*
X86359500Y-99076000D01*
X86222000Y-99213500D01*
X85822000Y-99213500D01*
X85684500Y-99076000D01*
X85312598Y-99076000D01*
X85110450Y-99159733D01*
X84955732Y-99314450D01*
X84872000Y-99516598D01*
X84321877Y-99516598D01*
X84321877Y-99342717D01*
X85453594Y-98211000D01*
X86995353Y-98211000D01*
X87021576Y-98228522D01*
X87308428Y-98285580D01*
X87717000Y-98285580D01*
X87717000Y-99320123D01*
X87622000Y-99320123D01*
X87510827Y-99341042D01*
X87408721Y-99406745D01*
X87340222Y-99506997D01*
X87316123Y-99626000D01*
X87316123Y-100526000D01*
X87337042Y-100637173D01*
X87402745Y-100739279D01*
X87502997Y-100807778D01*
X87547000Y-100816689D01*
X87547000Y-108482406D01*
X86743411Y-109285995D01*
X86559862Y-109285835D01*
X86210571Y-109430159D01*
X85943098Y-109697165D01*
X85798165Y-110046204D01*
X85797835Y-110424138D01*
X85942159Y-110773429D01*
X86209165Y-111040902D01*
X86558204Y-111185835D01*
X86936138Y-111186165D01*
X87285429Y-111041841D01*
X87552902Y-110774835D01*
X87697835Y-110425796D01*
X87697997Y-110240597D01*
X88138594Y-109800000D01*
X109593634Y-109800000D01*
X109673560Y-110201818D01*
X109901172Y-110542462D01*
X110241816Y-110770074D01*
X110643634Y-110850000D01*
X111704366Y-110850000D01*
X112106184Y-110770074D01*
X112446828Y-110542462D01*
X112674440Y-110201818D01*
X112754366Y-109800000D01*
X112674440Y-109398182D01*
X112544417Y-109203589D01*
X112569000Y-109080000D01*
X112569000Y-97950510D01*
X112698902Y-97820835D01*
X112843835Y-97471796D01*
X112844165Y-97093862D01*
X112699841Y-96744571D01*
X112432835Y-96477098D01*
X112083796Y-96332165D01*
X111705862Y-96331835D01*
X111356571Y-96476159D01*
X111089098Y-96743165D01*
X110944165Y-97092204D01*
X110943835Y-97470138D01*
X111088159Y-97819429D01*
X111219000Y-97950499D01*
X111219000Y-108750000D01*
X110643634Y-108750000D01*
X110241816Y-108829926D01*
X109901172Y-109057538D01*
X109673560Y-109398182D01*
X109593634Y-109800000D01*
X88138594Y-109800000D01*
X88699297Y-109239297D01*
X88845619Y-109020312D01*
X88897000Y-108762000D01*
X88897000Y-103728744D01*
X94520988Y-103728744D01*
X94699570Y-104053143D01*
X95015593Y-104291610D01*
X95398817Y-104390989D01*
X95558000Y-104250121D01*
X95558000Y-103578000D01*
X95958000Y-103578000D01*
X95958000Y-104250121D01*
X96117183Y-104390989D01*
X96500407Y-104291610D01*
X96816430Y-104053143D01*
X96995012Y-103728744D01*
X96897549Y-103578000D01*
X95958000Y-103578000D01*
X95558000Y-103578000D01*
X94618451Y-103578000D01*
X94520988Y-103728744D01*
X88897000Y-103728744D01*
X88897000Y-102783000D01*
X90867237Y-102783000D01*
X91091640Y-103007795D01*
X91481828Y-103169815D01*
X91904318Y-103170184D01*
X92294789Y-103008845D01*
X92521028Y-102783000D01*
X94655451Y-102783000D01*
X94520988Y-103027256D01*
X94618451Y-103178000D01*
X95558000Y-103178000D01*
X95558000Y-103158000D01*
X95958000Y-103158000D01*
X95958000Y-103178000D01*
X96897549Y-103178000D01*
X96995012Y-103027256D01*
X96816430Y-102702857D01*
X96650136Y-102577374D01*
X96772094Y-102394852D01*
X96829152Y-102108000D01*
X96772094Y-101821148D01*
X96609605Y-101577967D01*
X96452511Y-101473000D01*
X96609605Y-101368033D01*
X96772094Y-101124852D01*
X96829152Y-100838000D01*
X96772094Y-100551148D01*
X96609605Y-100307967D01*
X96366424Y-100145478D01*
X96079572Y-100088420D01*
X95671000Y-100088420D01*
X95671000Y-99002182D01*
X95725279Y-98967255D01*
X95793778Y-98867003D01*
X95817877Y-98748000D01*
X95817877Y-97848000D01*
X95796958Y-97736827D01*
X95731255Y-97634721D01*
X95631003Y-97566222D01*
X95512000Y-97542123D01*
X94312000Y-97542123D01*
X94200827Y-97563042D01*
X94098721Y-97628745D01*
X94030222Y-97728997D01*
X94006123Y-97848000D01*
X94006123Y-98748000D01*
X94027042Y-98859173D01*
X94092745Y-98961279D01*
X94192997Y-99029778D01*
X94312000Y-99053877D01*
X94321000Y-99053877D01*
X94321000Y-100838000D01*
X94372381Y-101096311D01*
X94518703Y-101315297D01*
X94694858Y-101433000D01*
X92520763Y-101433000D01*
X92296360Y-101208205D01*
X91906172Y-101046185D01*
X91483682Y-101045816D01*
X91093211Y-101207155D01*
X90866972Y-101433000D01*
X88897000Y-101433000D01*
X88897000Y-100817765D01*
X88933173Y-100810958D01*
X89035279Y-100745255D01*
X89103778Y-100645003D01*
X89127877Y-100526000D01*
X89127877Y-99626000D01*
X89106958Y-99514827D01*
X89067000Y-99452730D01*
X89067000Y-97536000D01*
X89015619Y-97277689D01*
X88869297Y-97058703D01*
X88650311Y-96912381D01*
X88392000Y-96861000D01*
X88384375Y-96861000D01*
X88481605Y-96796033D01*
X88644094Y-96552852D01*
X88701152Y-96266000D01*
X88644094Y-95979148D01*
X88481605Y-95735967D01*
X88384375Y-95671000D01*
X90170000Y-95671000D01*
X90428312Y-95619619D01*
X90647297Y-95473297D01*
X92989594Y-93131000D01*
X94948857Y-93131000D01*
X94772703Y-93248703D01*
X94434703Y-93586703D01*
X94288381Y-93805688D01*
X94288381Y-93805689D01*
X94237000Y-94064000D01*
X94237000Y-95524235D01*
X94200827Y-95531042D01*
X94098721Y-95596745D01*
X94030222Y-95696997D01*
X94006123Y-95816000D01*
X94006123Y-96716000D01*
X94027042Y-96827173D01*
X94092745Y-96929279D01*
X94192997Y-96997778D01*
X94312000Y-97021877D01*
X95512000Y-97021877D01*
X95623173Y-97000958D01*
X95725279Y-96935255D01*
X95793778Y-96835003D01*
X95817877Y-96716000D01*
X95817877Y-95816000D01*
X96206123Y-95816000D01*
X96206123Y-96716000D01*
X96227042Y-96827173D01*
X96292745Y-96929279D01*
X96392997Y-96997778D01*
X96437000Y-97006689D01*
X96437000Y-97556235D01*
X96400827Y-97563042D01*
X96298721Y-97628745D01*
X96230222Y-97728997D01*
X96206123Y-97848000D01*
X96206123Y-98748000D01*
X96227042Y-98859173D01*
X96292745Y-98961279D01*
X96392997Y-99029778D01*
X96512000Y-99053877D01*
X97712000Y-99053877D01*
X97823173Y-99032958D01*
X97925279Y-98967255D01*
X97993778Y-98867003D01*
X98017877Y-98748000D01*
X98017877Y-97957000D01*
X103442827Y-97957000D01*
X103459042Y-98043173D01*
X103524745Y-98145279D01*
X103624997Y-98213778D01*
X103744000Y-98237877D01*
X105044000Y-98237877D01*
X105155173Y-98216958D01*
X105257279Y-98151255D01*
X105325778Y-98051003D01*
X105349877Y-97932000D01*
X105349877Y-96632000D01*
X105328958Y-96520827D01*
X105263255Y-96418721D01*
X105163003Y-96350222D01*
X105044000Y-96326123D01*
X103744000Y-96326123D01*
X103632827Y-96347042D01*
X103530721Y-96412745D01*
X103462222Y-96512997D01*
X103443186Y-96607000D01*
X98017877Y-96607000D01*
X98017877Y-95816000D01*
X97996958Y-95704827D01*
X97931255Y-95602721D01*
X97831003Y-95534222D01*
X97712000Y-95510123D01*
X96512000Y-95510123D01*
X96400827Y-95531042D01*
X96298721Y-95596745D01*
X96230222Y-95696997D01*
X96206123Y-95816000D01*
X95817877Y-95816000D01*
X95796958Y-95704827D01*
X95731255Y-95602721D01*
X95631003Y-95534222D01*
X95587000Y-95525311D01*
X95587000Y-94401000D01*
X95885353Y-94401000D01*
X95911576Y-94418522D01*
X96198428Y-94475580D01*
X96841572Y-94475580D01*
X97128424Y-94418522D01*
X97371605Y-94256033D01*
X97534094Y-94012852D01*
X97591152Y-93726000D01*
X97534094Y-93439148D01*
X97371605Y-93195967D01*
X97214511Y-93091000D01*
X97371605Y-92986033D01*
X97534094Y-92742852D01*
X97591152Y-92456000D01*
X97534094Y-92169148D01*
X97371605Y-91925967D01*
X97214511Y-91821000D01*
X97371605Y-91716033D01*
X97534094Y-91472852D01*
X97591152Y-91186000D01*
X97534094Y-90899148D01*
X97371605Y-90655967D01*
X97128424Y-90493478D01*
X96841572Y-90436420D01*
X96198428Y-90436420D01*
X95911576Y-90493478D01*
X95885353Y-90511000D01*
X95275594Y-90511000D01*
X93531594Y-88767000D01*
X116211000Y-88767000D01*
X116211000Y-121037000D01*
X23997000Y-121037000D01*
X23997000Y-119698481D01*
X104636579Y-119698481D01*
X104813340Y-120077818D01*
X105191736Y-120424507D01*
X105674000Y-120600000D01*
X106174000Y-120600000D01*
X106174000Y-119500000D01*
X106574000Y-119500000D01*
X106574000Y-120600000D01*
X107074000Y-120600000D01*
X107556264Y-120424507D01*
X107934660Y-120077818D01*
X108111421Y-119698481D01*
X108019166Y-119500000D01*
X106574000Y-119500000D01*
X106174000Y-119500000D01*
X104728834Y-119500000D01*
X104636579Y-119698481D01*
X23997000Y-119698481D01*
X23997000Y-118901519D01*
X104636579Y-118901519D01*
X104728834Y-119100000D01*
X106174000Y-119100000D01*
X106174000Y-118000000D01*
X106574000Y-118000000D01*
X106574000Y-119100000D01*
X108019166Y-119100000D01*
X108111421Y-118901519D01*
X107934660Y-118522182D01*
X107556264Y-118175493D01*
X107074000Y-118000000D01*
X106574000Y-118000000D01*
X106174000Y-118000000D01*
X105674000Y-118000000D01*
X105191736Y-118175493D01*
X104813340Y-118522182D01*
X104636579Y-118901519D01*
X23997000Y-118901519D01*
X23997000Y-116539942D01*
X42939818Y-116539942D01*
X43099334Y-116926000D01*
X43394446Y-117221628D01*
X43780226Y-117381818D01*
X44197942Y-117382182D01*
X44393320Y-117301453D01*
X46303390Y-117301453D01*
X46381633Y-117509606D01*
X46878592Y-117652778D01*
X47392513Y-117594874D01*
X47598367Y-117509606D01*
X47676610Y-117301453D01*
X46990000Y-116614843D01*
X46303390Y-117301453D01*
X44393320Y-117301453D01*
X44584000Y-117222666D01*
X44879628Y-116927554D01*
X45039818Y-116541774D01*
X45040097Y-116220592D01*
X45669222Y-116220592D01*
X45727126Y-116734513D01*
X45812394Y-116940367D01*
X46020547Y-117018610D01*
X46707157Y-116332000D01*
X47272843Y-116332000D01*
X47959453Y-117018610D01*
X48167606Y-116940367D01*
X48282966Y-116539942D01*
X48939818Y-116539942D01*
X49099334Y-116926000D01*
X49394446Y-117221628D01*
X49780226Y-117381818D01*
X50197942Y-117382182D01*
X50584000Y-117222666D01*
X50800043Y-117007000D01*
X60078000Y-117007000D01*
X60336312Y-116955619D01*
X60555297Y-116809297D01*
X62234589Y-115130005D01*
X62418138Y-115130165D01*
X62767429Y-114985841D01*
X63034902Y-114718835D01*
X63179835Y-114369796D01*
X63180165Y-113991862D01*
X63035841Y-113642571D01*
X62768835Y-113375098D01*
X62419796Y-113230165D01*
X62041862Y-113229835D01*
X61692571Y-113374159D01*
X61425098Y-113641165D01*
X61280165Y-113990204D01*
X61280003Y-114175403D01*
X59798406Y-115657000D01*
X50799807Y-115657000D01*
X50585554Y-115442372D01*
X50199774Y-115282182D01*
X49782058Y-115281818D01*
X49396000Y-115441334D01*
X49100372Y-115736446D01*
X48940182Y-116122226D01*
X48939818Y-116539942D01*
X48282966Y-116539942D01*
X48310778Y-116443408D01*
X48252874Y-115929487D01*
X48167606Y-115723633D01*
X47959453Y-115645390D01*
X47272843Y-116332000D01*
X46707157Y-116332000D01*
X46020547Y-115645390D01*
X45812394Y-115723633D01*
X45669222Y-116220592D01*
X45040097Y-116220592D01*
X45040182Y-116124058D01*
X44880666Y-115738000D01*
X44585554Y-115442372D01*
X44393315Y-115362547D01*
X46303390Y-115362547D01*
X46990000Y-116049157D01*
X47676610Y-115362547D01*
X47598367Y-115154394D01*
X47101408Y-115011222D01*
X46587487Y-115069126D01*
X46381633Y-115154394D01*
X46303390Y-115362547D01*
X44393315Y-115362547D01*
X44199774Y-115282182D01*
X43782058Y-115281818D01*
X43396000Y-115441334D01*
X43100372Y-115736446D01*
X42940182Y-116122226D01*
X42939818Y-116539942D01*
X23997000Y-116539942D01*
X23997000Y-94420508D01*
X25675233Y-94420508D01*
X25803885Y-94731140D01*
X26194517Y-95198123D01*
X26162000Y-95198123D01*
X26050827Y-95219042D01*
X25948721Y-95284745D01*
X25880222Y-95384997D01*
X25856123Y-95504000D01*
X25856123Y-97536000D01*
X25877042Y-97647173D01*
X25942745Y-97749279D01*
X26042997Y-97817778D01*
X26162000Y-97841877D01*
X26503000Y-97841877D01*
X26503000Y-107322000D01*
X26554381Y-107580312D01*
X26700703Y-107799297D01*
X31815995Y-112914589D01*
X31815835Y-113098138D01*
X31960159Y-113447429D01*
X32227165Y-113714902D01*
X32576204Y-113859835D01*
X32954138Y-113860165D01*
X33303429Y-113715841D01*
X33570902Y-113448835D01*
X33715835Y-113099796D01*
X33716165Y-112721862D01*
X33571841Y-112372571D01*
X33304835Y-112105098D01*
X32955796Y-111960165D01*
X32770597Y-111960003D01*
X32159338Y-111348744D01*
X42704988Y-111348744D01*
X42883570Y-111673143D01*
X43199593Y-111911610D01*
X43582817Y-112010989D01*
X43742000Y-111870121D01*
X43742000Y-111198000D01*
X44142000Y-111198000D01*
X44142000Y-111870121D01*
X44301183Y-112010989D01*
X44684407Y-111911610D01*
X45000430Y-111673143D01*
X45179012Y-111348744D01*
X49054988Y-111348744D01*
X49233570Y-111673143D01*
X49549593Y-111911610D01*
X49932817Y-112010989D01*
X50092000Y-111870121D01*
X50092000Y-111198000D01*
X50492000Y-111198000D01*
X50492000Y-111870121D01*
X50651183Y-112010989D01*
X51034407Y-111911610D01*
X51350430Y-111673143D01*
X51529012Y-111348744D01*
X51431549Y-111198000D01*
X50492000Y-111198000D01*
X50092000Y-111198000D01*
X49152451Y-111198000D01*
X49054988Y-111348744D01*
X45179012Y-111348744D01*
X45081549Y-111198000D01*
X44142000Y-111198000D01*
X43742000Y-111198000D01*
X42802451Y-111198000D01*
X42704988Y-111348744D01*
X32159338Y-111348744D01*
X27853000Y-107042406D01*
X27853000Y-104140000D01*
X30313000Y-104140000D01*
X30313000Y-106426000D01*
X30364381Y-106684312D01*
X30510703Y-106903297D01*
X31272703Y-107665297D01*
X31491688Y-107811619D01*
X31750000Y-107863000D01*
X33782000Y-107863000D01*
X34040312Y-107811619D01*
X34259297Y-107665297D01*
X37701594Y-104223000D01*
X43200235Y-104223000D01*
X43207042Y-104259173D01*
X43272745Y-104361279D01*
X43372997Y-104429778D01*
X43492000Y-104453877D01*
X44392000Y-104453877D01*
X44503173Y-104432958D01*
X44605279Y-104367255D01*
X44673778Y-104267003D01*
X44697877Y-104148000D01*
X44697877Y-102948000D01*
X44676958Y-102836827D01*
X44611255Y-102734721D01*
X44511003Y-102666222D01*
X44392000Y-102642123D01*
X43492000Y-102642123D01*
X43380827Y-102663042D01*
X43278721Y-102728745D01*
X43210222Y-102828997D01*
X43201311Y-102873000D01*
X37422000Y-102873000D01*
X37163689Y-102924381D01*
X37037280Y-103008845D01*
X36944703Y-103070703D01*
X33502406Y-106513000D01*
X32029594Y-106513000D01*
X31663000Y-106146406D01*
X31663000Y-104419594D01*
X33497297Y-102585297D01*
X33643619Y-102366312D01*
X33695000Y-102108000D01*
X33695000Y-100479695D01*
X33782000Y-100497000D01*
X36724406Y-100497000D01*
X32767283Y-104454123D01*
X32116000Y-104454123D01*
X32004827Y-104475042D01*
X31902721Y-104540745D01*
X31834222Y-104640997D01*
X31810123Y-104760000D01*
X31810123Y-106060000D01*
X31831042Y-106171173D01*
X31896745Y-106273279D01*
X31996997Y-106341778D01*
X32116000Y-106365877D01*
X33416000Y-106365877D01*
X33527173Y-106344958D01*
X33629279Y-106279255D01*
X33697778Y-106179003D01*
X33721877Y-106060000D01*
X33721877Y-105408717D01*
X37533594Y-101597000D01*
X39554323Y-101597000D01*
X39770940Y-101813995D01*
X40161128Y-101976015D01*
X40583618Y-101976384D01*
X40974089Y-101815045D01*
X41192515Y-101597000D01*
X43200235Y-101597000D01*
X43207042Y-101633173D01*
X43272745Y-101735279D01*
X43372997Y-101803778D01*
X43492000Y-101827877D01*
X43895557Y-101827877D01*
X44107689Y-101969619D01*
X44366000Y-102021000D01*
X47196858Y-102021000D01*
X47020703Y-102138703D01*
X46874381Y-102357689D01*
X46823000Y-102616000D01*
X46823000Y-107188000D01*
X46874381Y-107446312D01*
X47020703Y-107665297D01*
X48290703Y-108935297D01*
X48466857Y-109053000D01*
X44696375Y-109053000D01*
X44793605Y-108988033D01*
X44956094Y-108744852D01*
X45013152Y-108458000D01*
X44956094Y-108171148D01*
X44793605Y-107927967D01*
X44617000Y-107809963D01*
X44617000Y-106550101D01*
X44673778Y-106467003D01*
X44697877Y-106348000D01*
X44697877Y-105148000D01*
X44676958Y-105036827D01*
X44611255Y-104934721D01*
X44511003Y-104866222D01*
X44392000Y-104842123D01*
X43492000Y-104842123D01*
X43380827Y-104863042D01*
X43278721Y-104928745D01*
X43210222Y-105028997D01*
X43186123Y-105148000D01*
X43186123Y-106348000D01*
X43207042Y-106459173D01*
X43267000Y-106552351D01*
X43267000Y-107809963D01*
X43090395Y-107927967D01*
X42927906Y-108171148D01*
X42870848Y-108458000D01*
X42927906Y-108744852D01*
X43090395Y-108988033D01*
X43247489Y-109093000D01*
X43090395Y-109197967D01*
X42927906Y-109441148D01*
X42870848Y-109728000D01*
X42927906Y-110014852D01*
X43049864Y-110197374D01*
X42883570Y-110322857D01*
X42704988Y-110647256D01*
X42802451Y-110798000D01*
X43742000Y-110798000D01*
X43742000Y-110778000D01*
X44142000Y-110778000D01*
X44142000Y-110798000D01*
X45081549Y-110798000D01*
X45179012Y-110647256D01*
X45044549Y-110403000D01*
X49189451Y-110403000D01*
X49054988Y-110647256D01*
X49152451Y-110798000D01*
X50092000Y-110798000D01*
X50092000Y-110778000D01*
X50492000Y-110778000D01*
X50492000Y-110798000D01*
X51431549Y-110798000D01*
X51529012Y-110647256D01*
X51350430Y-110322857D01*
X51184136Y-110197374D01*
X51306094Y-110014852D01*
X51363152Y-109728000D01*
X51306094Y-109441148D01*
X51143605Y-109197967D01*
X51046375Y-109133000D01*
X60452000Y-109133000D01*
X60710312Y-109081619D01*
X60929297Y-108935297D01*
X62228717Y-107635877D01*
X62880000Y-107635877D01*
X62991173Y-107614958D01*
X63093279Y-107549255D01*
X63161778Y-107449003D01*
X63185877Y-107330000D01*
X63185877Y-106030000D01*
X63164958Y-105918827D01*
X63099255Y-105816721D01*
X62999003Y-105748222D01*
X62880000Y-105724123D01*
X61580000Y-105724123D01*
X61468827Y-105745042D01*
X61366721Y-105810745D01*
X61298222Y-105910997D01*
X61274123Y-106030000D01*
X61274123Y-106681283D01*
X60172406Y-107783000D01*
X50926647Y-107783000D01*
X50900424Y-107765478D01*
X50613572Y-107708420D01*
X49970428Y-107708420D01*
X49683576Y-107765478D01*
X49657353Y-107783000D01*
X49047594Y-107783000D01*
X48173000Y-106908406D01*
X48173000Y-103311192D01*
X48446428Y-103365580D01*
X49089572Y-103365580D01*
X49376424Y-103308522D01*
X49619605Y-103146033D01*
X49692124Y-103037500D01*
X52086000Y-103037500D01*
X52086000Y-103409402D01*
X52169733Y-103611550D01*
X52324450Y-103766268D01*
X52526598Y-103850000D01*
X52748500Y-103850000D01*
X52886000Y-103712500D01*
X52886000Y-102900000D01*
X53286000Y-102900000D01*
X53286000Y-103712500D01*
X53423500Y-103850000D01*
X53645402Y-103850000D01*
X53847550Y-103766268D01*
X54002267Y-103611550D01*
X54086000Y-103409402D01*
X54086000Y-103037500D01*
X53948500Y-102900000D01*
X53286000Y-102900000D01*
X52886000Y-102900000D01*
X52223500Y-102900000D01*
X52086000Y-103037500D01*
X49692124Y-103037500D01*
X49782094Y-102902852D01*
X49839152Y-102616000D01*
X49782094Y-102329148D01*
X49619605Y-102085967D01*
X49522375Y-102021000D01*
X51054000Y-102021000D01*
X51206842Y-101990598D01*
X52086000Y-101990598D01*
X52086000Y-102362500D01*
X52223500Y-102500000D01*
X52886000Y-102500000D01*
X52886000Y-101687500D01*
X53286000Y-101687500D01*
X53286000Y-102500000D01*
X53948500Y-102500000D01*
X54086000Y-102362500D01*
X54086000Y-101990598D01*
X54002267Y-101788450D01*
X53847550Y-101633732D01*
X53645402Y-101550000D01*
X53423500Y-101550000D01*
X53286000Y-101687500D01*
X52886000Y-101687500D01*
X52748500Y-101550000D01*
X52526598Y-101550000D01*
X52324450Y-101633732D01*
X52169733Y-101788450D01*
X52086000Y-101990598D01*
X51206842Y-101990598D01*
X51312312Y-101969619D01*
X51531297Y-101823297D01*
X52179594Y-101175000D01*
X52344235Y-101175000D01*
X52351042Y-101211173D01*
X52416745Y-101313279D01*
X52516997Y-101381778D01*
X52636000Y-101405877D01*
X53536000Y-101405877D01*
X53647173Y-101384958D01*
X53749279Y-101319255D01*
X53817778Y-101219003D01*
X53841877Y-101100000D01*
X53841877Y-99900000D01*
X53820958Y-99788827D01*
X53755255Y-99686721D01*
X53655003Y-99618222D01*
X53536000Y-99594123D01*
X52636000Y-99594123D01*
X52524827Y-99615042D01*
X52422721Y-99680745D01*
X52354222Y-99780997D01*
X52345311Y-99825000D01*
X51900000Y-99825000D01*
X51644543Y-99875813D01*
X51677619Y-99826311D01*
X51729000Y-99568000D01*
X51729000Y-97703000D01*
X58863237Y-97703000D01*
X59087640Y-97927795D01*
X59477828Y-98089815D01*
X59900318Y-98090184D01*
X60290789Y-97928845D01*
X60517028Y-97703000D01*
X67882827Y-97703000D01*
X67899042Y-97789173D01*
X67964745Y-97891279D01*
X68064997Y-97959778D01*
X68184000Y-97983877D01*
X69484000Y-97983877D01*
X69595173Y-97962958D01*
X69697279Y-97897255D01*
X69765778Y-97797003D01*
X69789877Y-97678000D01*
X69789877Y-96378000D01*
X69768958Y-96266827D01*
X69703255Y-96164721D01*
X69603003Y-96096222D01*
X69484000Y-96072123D01*
X68184000Y-96072123D01*
X68072827Y-96093042D01*
X67970721Y-96158745D01*
X67902222Y-96258997D01*
X67883186Y-96353000D01*
X60516763Y-96353000D01*
X60292360Y-96128205D01*
X59902172Y-95966185D01*
X59479682Y-95965816D01*
X59089211Y-96127155D01*
X58862972Y-96353000D01*
X50416101Y-96353000D01*
X50333003Y-96296222D01*
X50214000Y-96272123D01*
X49014000Y-96272123D01*
X48902827Y-96293042D01*
X48800721Y-96358745D01*
X48732222Y-96458997D01*
X48708123Y-96578000D01*
X48708123Y-97478000D01*
X48729042Y-97589173D01*
X48794745Y-97691279D01*
X48894997Y-97759778D01*
X49014000Y-97783877D01*
X50214000Y-97783877D01*
X50325173Y-97762958D01*
X50379000Y-97728321D01*
X50379000Y-99288406D01*
X50266406Y-99401000D01*
X49402647Y-99401000D01*
X49376424Y-99383478D01*
X49089572Y-99326420D01*
X48446428Y-99326420D01*
X48159576Y-99383478D01*
X47916395Y-99545967D01*
X47753906Y-99789148D01*
X47696848Y-100076000D01*
X47753906Y-100362852D01*
X47916395Y-100606033D01*
X48013625Y-100671000D01*
X44697877Y-100671000D01*
X44697877Y-100322000D01*
X44676958Y-100210827D01*
X44611255Y-100108721D01*
X44511003Y-100040222D01*
X44392000Y-100016123D01*
X43492000Y-100016123D01*
X43380827Y-100037042D01*
X43278721Y-100102745D01*
X43210222Y-100202997D01*
X43202891Y-100239200D01*
X41200063Y-100239200D01*
X40975660Y-100014405D01*
X40585472Y-99852385D01*
X40162982Y-99852016D01*
X39772511Y-100013355D01*
X39538458Y-100247000D01*
X38358241Y-100247000D01*
X38469619Y-100080311D01*
X38521000Y-99822000D01*
X38521000Y-99415000D01*
X43203622Y-99415000D01*
X43207042Y-99433173D01*
X43272745Y-99535279D01*
X43372997Y-99603778D01*
X43492000Y-99627877D01*
X44392000Y-99627877D01*
X44503173Y-99606958D01*
X44605279Y-99541255D01*
X44673778Y-99441003D01*
X44697877Y-99322000D01*
X44697877Y-98122000D01*
X44676958Y-98010827D01*
X44617000Y-97917649D01*
X44617000Y-97703000D01*
X46611899Y-97703000D01*
X46694997Y-97759778D01*
X46814000Y-97783877D01*
X48014000Y-97783877D01*
X48125173Y-97762958D01*
X48227279Y-97697255D01*
X48295778Y-97597003D01*
X48319877Y-97478000D01*
X48319877Y-96578000D01*
X48298958Y-96466827D01*
X48233255Y-96364721D01*
X48133003Y-96296222D01*
X48089000Y-96287311D01*
X48089000Y-96121594D01*
X52857594Y-91353000D01*
X87547000Y-91353000D01*
X87547000Y-91714235D01*
X87510827Y-91721042D01*
X87408721Y-91786745D01*
X87340222Y-91886997D01*
X87316123Y-92006000D01*
X87316123Y-92906000D01*
X87337042Y-93017173D01*
X87402745Y-93119279D01*
X87502997Y-93187778D01*
X87622000Y-93211877D01*
X88822000Y-93211877D01*
X88933173Y-93190958D01*
X89035279Y-93125255D01*
X89103778Y-93025003D01*
X89127877Y-92906000D01*
X89127877Y-92006000D01*
X89106958Y-91894827D01*
X89041255Y-91792721D01*
X88941003Y-91724222D01*
X88897000Y-91715311D01*
X88897000Y-90762000D01*
X88886399Y-90708703D01*
X88845619Y-90503688D01*
X88699297Y-90284703D01*
X88615297Y-90200703D01*
X88396312Y-90054381D01*
X88138000Y-90003000D01*
X52578000Y-90003000D01*
X52319688Y-90054381D01*
X52100703Y-90200703D01*
X46936703Y-95364703D01*
X46790381Y-95583688D01*
X46752579Y-95773732D01*
X46739000Y-95842000D01*
X46739000Y-96286235D01*
X46702827Y-96293042D01*
X46609649Y-96353000D01*
X43942000Y-96353000D01*
X43683689Y-96404381D01*
X43464703Y-96550703D01*
X43318381Y-96769689D01*
X43267000Y-97028000D01*
X43267000Y-97919899D01*
X43210222Y-98002997D01*
X43197666Y-98065000D01*
X38512765Y-98065000D01*
X38505958Y-98028827D01*
X38449287Y-97940757D01*
X38532550Y-97906268D01*
X38687267Y-97751550D01*
X38771000Y-97549402D01*
X38771000Y-97177500D01*
X38633500Y-97040000D01*
X38033500Y-97040000D01*
X38033500Y-97060000D01*
X37658500Y-97060000D01*
X37658500Y-97040000D01*
X37058500Y-97040000D01*
X36921000Y-97177500D01*
X36921000Y-97549402D01*
X37004733Y-97751550D01*
X37159450Y-97906268D01*
X37243753Y-97941187D01*
X37189222Y-98020997D01*
X37165123Y-98140000D01*
X37165123Y-99147000D01*
X34061594Y-99147000D01*
X33695000Y-98780406D01*
X33695000Y-98547035D01*
X33741279Y-98517255D01*
X33809778Y-98417003D01*
X33833877Y-98298000D01*
X33833877Y-96266000D01*
X33812958Y-96154827D01*
X33747255Y-96052721D01*
X33647003Y-95984222D01*
X33528000Y-95960123D01*
X32512000Y-95960123D01*
X32400827Y-95981042D01*
X32298721Y-96046745D01*
X32230222Y-96146997D01*
X32206123Y-96266000D01*
X32206123Y-98298000D01*
X32227042Y-98409173D01*
X32292745Y-98511279D01*
X32345000Y-98546983D01*
X32345000Y-101828406D01*
X30510703Y-103662703D01*
X30364381Y-103881688D01*
X30364381Y-103881689D01*
X30313000Y-104140000D01*
X27853000Y-104140000D01*
X27853000Y-97841877D01*
X28194000Y-97841877D01*
X28305173Y-97820958D01*
X28407279Y-97755255D01*
X28475778Y-97655003D01*
X28482967Y-97619500D01*
X29676000Y-97619500D01*
X29676000Y-98407402D01*
X29759732Y-98609550D01*
X29914450Y-98764267D01*
X30116598Y-98848000D01*
X30396500Y-98848000D01*
X30534000Y-98710500D01*
X30534000Y-97482000D01*
X30934000Y-97482000D01*
X30934000Y-98710500D01*
X31071500Y-98848000D01*
X31351402Y-98848000D01*
X31553550Y-98764267D01*
X31708268Y-98609550D01*
X31792000Y-98407402D01*
X31792000Y-97619500D01*
X31654500Y-97482000D01*
X30934000Y-97482000D01*
X30534000Y-97482000D01*
X29813500Y-97482000D01*
X29676000Y-97619500D01*
X28482967Y-97619500D01*
X28499877Y-97536000D01*
X28499877Y-96156598D01*
X29676000Y-96156598D01*
X29676000Y-96944500D01*
X29813500Y-97082000D01*
X30534000Y-97082000D01*
X30534000Y-95853500D01*
X30934000Y-95853500D01*
X30934000Y-97082000D01*
X31654500Y-97082000D01*
X31792000Y-96944500D01*
X31792000Y-96156598D01*
X31708268Y-95954450D01*
X31553550Y-95799733D01*
X31351402Y-95716000D01*
X31071500Y-95716000D01*
X30934000Y-95853500D01*
X30534000Y-95853500D01*
X30396500Y-95716000D01*
X30116598Y-95716000D01*
X29914450Y-95799733D01*
X29759732Y-95954450D01*
X29676000Y-96156598D01*
X28499877Y-96156598D01*
X28499877Y-95504000D01*
X28478958Y-95392827D01*
X28413255Y-95290721D01*
X28313003Y-95222222D01*
X28194000Y-95198123D01*
X28161483Y-95198123D01*
X28552115Y-94731140D01*
X28680767Y-94420508D01*
X28592430Y-94180000D01*
X27378000Y-94180000D01*
X27378000Y-94200000D01*
X26978000Y-94200000D01*
X26978000Y-94180000D01*
X25763570Y-94180000D01*
X25675233Y-94420508D01*
X23997000Y-94420508D01*
X23997000Y-93539492D01*
X25675233Y-93539492D01*
X25763570Y-93780000D01*
X26978000Y-93780000D01*
X26978000Y-92564309D01*
X27378000Y-92564309D01*
X27378000Y-93780000D01*
X28592430Y-93780000D01*
X28680767Y-93539492D01*
X28552115Y-93228860D01*
X28160068Y-92760186D01*
X27618510Y-92477218D01*
X27378000Y-92564309D01*
X26978000Y-92564309D01*
X26737490Y-92477218D01*
X26195932Y-92760186D01*
X25803885Y-93228860D01*
X25675233Y-93539492D01*
X23997000Y-93539492D01*
X23997000Y-91015500D01*
X30641200Y-91015500D01*
X30641200Y-91803402D01*
X30724932Y-92005550D01*
X30879650Y-92160267D01*
X31081798Y-92244000D01*
X32682500Y-92244000D01*
X32820000Y-92106500D01*
X32820000Y-90878000D01*
X33220000Y-90878000D01*
X33220000Y-92106500D01*
X33357500Y-92244000D01*
X34958202Y-92244000D01*
X35160350Y-92160267D01*
X35254019Y-92066598D01*
X36921000Y-92066598D01*
X36921000Y-92438500D01*
X37058500Y-92576000D01*
X37658500Y-92576000D01*
X37658500Y-91763500D01*
X38033500Y-91763500D01*
X38033500Y-92576000D01*
X38633500Y-92576000D01*
X38771000Y-92438500D01*
X38771000Y-92066598D01*
X38687267Y-91864450D01*
X38532550Y-91709732D01*
X38330402Y-91626000D01*
X38171000Y-91626000D01*
X38033500Y-91763500D01*
X37658500Y-91763500D01*
X37521000Y-91626000D01*
X37361598Y-91626000D01*
X37159450Y-91709732D01*
X37004733Y-91864450D01*
X36921000Y-92066598D01*
X35254019Y-92066598D01*
X35315068Y-92005550D01*
X35398800Y-91803402D01*
X35398800Y-91015500D01*
X35261300Y-90878000D01*
X33220000Y-90878000D01*
X32820000Y-90878000D01*
X30778700Y-90878000D01*
X30641200Y-91015500D01*
X23997000Y-91015500D01*
X23997000Y-89552598D01*
X30641200Y-89552598D01*
X30641200Y-90340500D01*
X30778700Y-90478000D01*
X32820000Y-90478000D01*
X32820000Y-89249500D01*
X33220000Y-89249500D01*
X33220000Y-90478000D01*
X35261300Y-90478000D01*
X35398800Y-90340500D01*
X35398800Y-89552598D01*
X35315068Y-89350450D01*
X35160350Y-89195733D01*
X34958202Y-89112000D01*
X33357500Y-89112000D01*
X33220000Y-89249500D01*
X32820000Y-89249500D01*
X32682500Y-89112000D01*
X31081798Y-89112000D01*
X30879650Y-89195733D01*
X30724932Y-89350450D01*
X30641200Y-89552598D01*
X23997000Y-89552598D01*
X23997000Y-88767000D01*
X51502406Y-88767000D01*
X48996406Y-91273000D01*
X48996406Y-91273000D01*
G37*
X48996406Y-91273000D02*
X48578763Y-91273000D01*
X48354360Y-91048205D01*
X47964172Y-90886185D01*
X47541682Y-90885816D01*
X47151211Y-91047155D01*
X46924972Y-91273000D01*
X44501877Y-91273000D01*
X44501877Y-90932000D01*
X44480958Y-90820827D01*
X44415255Y-90718721D01*
X44315003Y-90650222D01*
X44196000Y-90626123D01*
X42164000Y-90626123D01*
X42052827Y-90647042D01*
X41950721Y-90712745D01*
X41882222Y-90812997D01*
X41858123Y-90932000D01*
X41858123Y-91283319D01*
X41651689Y-91324381D01*
X41432703Y-91470703D01*
X38902406Y-94001000D01*
X38512765Y-94001000D01*
X38505958Y-93964827D01*
X38449287Y-93876757D01*
X38532550Y-93842268D01*
X38687267Y-93687550D01*
X38771000Y-93485402D01*
X38771000Y-93113500D01*
X38633500Y-92976000D01*
X38033500Y-92976000D01*
X38033500Y-92996000D01*
X37658500Y-92996000D01*
X37658500Y-92976000D01*
X37058500Y-92976000D01*
X36921000Y-93113500D01*
X36921000Y-93485402D01*
X37004733Y-93687550D01*
X37159450Y-93842268D01*
X37243753Y-93877187D01*
X37189222Y-93956997D01*
X37180311Y-94001000D01*
X36388000Y-94001000D01*
X36129688Y-94052381D01*
X35910703Y-94198703D01*
X34828703Y-95280703D01*
X34682381Y-95499688D01*
X34654615Y-95639279D01*
X34631000Y-95758000D01*
X34631000Y-96016965D01*
X34584721Y-96046745D01*
X34516222Y-96146997D01*
X34492123Y-96266000D01*
X34492123Y-98298000D01*
X34513042Y-98409173D01*
X34578745Y-98511279D01*
X34678997Y-98579778D01*
X34798000Y-98603877D01*
X35814000Y-98603877D01*
X35925173Y-98582958D01*
X36027279Y-98517255D01*
X36095778Y-98417003D01*
X36119877Y-98298000D01*
X36119877Y-96266000D01*
X36098958Y-96154827D01*
X36083368Y-96130598D01*
X36921000Y-96130598D01*
X36921000Y-96502500D01*
X37058500Y-96640000D01*
X37658500Y-96640000D01*
X37658500Y-95827500D01*
X38033500Y-95827500D01*
X38033500Y-96640000D01*
X38633500Y-96640000D01*
X38771000Y-96502500D01*
X38771000Y-96130598D01*
X38687267Y-95928450D01*
X38532550Y-95773732D01*
X38330402Y-95690000D01*
X38171000Y-95690000D01*
X38033500Y-95827500D01*
X37658500Y-95827500D01*
X37521000Y-95690000D01*
X37361598Y-95690000D01*
X37159450Y-95773732D01*
X37004733Y-95928450D01*
X36921000Y-96130598D01*
X36083368Y-96130598D01*
X36033255Y-96052721D01*
X35993225Y-96025369D01*
X36667594Y-95351000D01*
X37179235Y-95351000D01*
X37186042Y-95387173D01*
X37251745Y-95489279D01*
X37351997Y-95557778D01*
X37471000Y-95581877D01*
X38221000Y-95581877D01*
X38332173Y-95560958D01*
X38434279Y-95495255D01*
X38502778Y-95395003D01*
X38511689Y-95351000D01*
X39182000Y-95351000D01*
X39440312Y-95299619D01*
X39659297Y-95153297D01*
X39884086Y-94928508D01*
X41677233Y-94928508D01*
X41805885Y-95239140D01*
X42197932Y-95707814D01*
X42739490Y-95990782D01*
X42980000Y-95903691D01*
X42980000Y-94688000D01*
X43380000Y-94688000D01*
X43380000Y-95903691D01*
X43620510Y-95990782D01*
X44162068Y-95707814D01*
X44554115Y-95239140D01*
X44682767Y-94928508D01*
X44594430Y-94688000D01*
X43380000Y-94688000D01*
X42980000Y-94688000D01*
X41765570Y-94688000D01*
X41677233Y-94928508D01*
X39884086Y-94928508D01*
X41858123Y-92954471D01*
X41858123Y-92964000D01*
X41879042Y-93075173D01*
X41944745Y-93177279D01*
X42044997Y-93245778D01*
X42164000Y-93269877D01*
X42196517Y-93269877D01*
X41805885Y-93736860D01*
X41677233Y-94047492D01*
X41765570Y-94288000D01*
X42980000Y-94288000D01*
X42980000Y-94268000D01*
X43380000Y-94268000D01*
X43380000Y-94288000D01*
X44594430Y-94288000D01*
X44682767Y-94047492D01*
X44554115Y-93736860D01*
X44163483Y-93269877D01*
X44196000Y-93269877D01*
X44307173Y-93248958D01*
X44409279Y-93183255D01*
X44477778Y-93083003D01*
X44501877Y-92964000D01*
X44501877Y-92623000D01*
X46925237Y-92623000D01*
X47149640Y-92847795D01*
X47539828Y-93009815D01*
X47962318Y-93010184D01*
X48352789Y-92848845D01*
X48579028Y-92623000D01*
X49276000Y-92623000D01*
X49534312Y-92571619D01*
X49753297Y-92425297D01*
X52349594Y-89829000D01*
X92684406Y-89829000D01*
X94518703Y-91663297D01*
X94694857Y-91781000D01*
X92710000Y-91781000D01*
X92451689Y-91832381D01*
X92328300Y-91914827D01*
X92232703Y-91978703D01*
X89890406Y-94321000D01*
X88264647Y-94321000D01*
X88238424Y-94303478D01*
X87951572Y-94246420D01*
X87308428Y-94246420D01*
X87021576Y-94303478D01*
X86995353Y-94321000D01*
X86697000Y-94321000D01*
X86697000Y-93197765D01*
X86733173Y-93190958D01*
X86835279Y-93125255D01*
X86903778Y-93025003D01*
X86927877Y-92906000D01*
X86927877Y-92006000D01*
X86906958Y-91894827D01*
X86841255Y-91792721D01*
X86741003Y-91724222D01*
X86622000Y-91700123D01*
X85422000Y-91700123D01*
X85310827Y-91721042D01*
X85217649Y-91781000D01*
X84188830Y-91781000D01*
X84135003Y-91744222D01*
X84016000Y-91720123D01*
X83116000Y-91720123D01*
X83004827Y-91741042D01*
X82902721Y-91806745D01*
X82834222Y-91906997D01*
X82825311Y-91951000D01*
X80736000Y-91951000D01*
X80477688Y-92002381D01*
X80258703Y-92148703D01*
X76329411Y-96077995D01*
X76145862Y-96077835D01*
X75796571Y-96222159D01*
X75529098Y-96489165D01*
X75384165Y-96838204D01*
X75383835Y-97216138D01*
X75528159Y-97565429D01*
X75659000Y-97696499D01*
X75659000Y-107322000D01*
X75710381Y-107580312D01*
X75856703Y-107799297D01*
X78292123Y-110234717D01*
X78292123Y-110886000D01*
X78313042Y-110997173D01*
X78378745Y-111099279D01*
X78478997Y-111167778D01*
X78573000Y-111186814D01*
X78573000Y-111734406D01*
X76174406Y-114133000D01*
X73470763Y-114133000D01*
X73246360Y-113908205D01*
X72856172Y-113746185D01*
X72433682Y-113745816D01*
X72043211Y-113907155D01*
X71744205Y-114205640D01*
X71582185Y-114595828D01*
X71581816Y-115018318D01*
X71743155Y-115408789D01*
X72041640Y-115707795D01*
X72431828Y-115869815D01*
X72854318Y-115870184D01*
X73244789Y-115708845D01*
X73471028Y-115483000D01*
X76454000Y-115483000D01*
X76712312Y-115431619D01*
X76931297Y-115285297D01*
X77716594Y-114500000D01*
X113424000Y-114500000D01*
X113424000Y-115000000D01*
X113599493Y-115482264D01*
X113946182Y-115860660D01*
X114325519Y-116037421D01*
X114524000Y-115945166D01*
X114524000Y-114500000D01*
X114924000Y-114500000D01*
X114924000Y-115945166D01*
X115122481Y-116037421D01*
X115501818Y-115860660D01*
X115848507Y-115482264D01*
X116024000Y-115000000D01*
X116024000Y-114500000D01*
X114924000Y-114500000D01*
X114524000Y-114500000D01*
X113424000Y-114500000D01*
X77716594Y-114500000D01*
X78616594Y-113600000D01*
X113424000Y-113600000D01*
X113424000Y-114100000D01*
X114524000Y-114100000D01*
X114524000Y-112654834D01*
X114924000Y-112654834D01*
X114924000Y-114100000D01*
X116024000Y-114100000D01*
X116024000Y-113600000D01*
X115848507Y-113117736D01*
X115501818Y-112739340D01*
X115122481Y-112562579D01*
X114924000Y-112654834D01*
X114524000Y-112654834D01*
X114325519Y-112562579D01*
X113946182Y-112739340D01*
X113599493Y-113117736D01*
X113424000Y-113600000D01*
X78616594Y-113600000D01*
X79725297Y-112491297D01*
X79871619Y-112272312D01*
X79923000Y-112014000D01*
X79923000Y-111187173D01*
X80009173Y-111170958D01*
X80111279Y-111105255D01*
X80179778Y-111005003D01*
X80203877Y-110886000D01*
X80203877Y-109586000D01*
X80182958Y-109474827D01*
X80117255Y-109372721D01*
X80017003Y-109304222D01*
X79898000Y-109280123D01*
X79246717Y-109280123D01*
X77009000Y-107042406D01*
X77009000Y-100413500D01*
X84872000Y-100413500D01*
X84872000Y-100635402D01*
X84955732Y-100837550D01*
X85110450Y-100992267D01*
X85312598Y-101076000D01*
X85684500Y-101076000D01*
X85822000Y-100938500D01*
X85822000Y-100276000D01*
X86222000Y-100276000D01*
X86222000Y-100938500D01*
X86359500Y-101076000D01*
X86731402Y-101076000D01*
X86933550Y-100992267D01*
X87088268Y-100837550D01*
X87172000Y-100635402D01*
X87172000Y-100413500D01*
X87034500Y-100276000D01*
X86222000Y-100276000D01*
X85822000Y-100276000D01*
X85009500Y-100276000D01*
X84872000Y-100413500D01*
X77009000Y-100413500D01*
X77009000Y-97696510D01*
X77138902Y-97566835D01*
X77283835Y-97217796D01*
X77283997Y-97032597D01*
X81015594Y-93301000D01*
X82824235Y-93301000D01*
X82831042Y-93337173D01*
X82896745Y-93439279D01*
X82996997Y-93507778D01*
X83116000Y-93531877D01*
X84016000Y-93531877D01*
X84127173Y-93510958D01*
X84229279Y-93445255D01*
X84297778Y-93345003D01*
X84321877Y-93226000D01*
X84321877Y-93131000D01*
X85219899Y-93131000D01*
X85302997Y-93187778D01*
X85347000Y-93196689D01*
X85347000Y-94912000D01*
X85398381Y-95170312D01*
X85544703Y-95389297D01*
X85628703Y-95473297D01*
X85804857Y-95591000D01*
X84266350Y-95591000D01*
X84297778Y-95545003D01*
X84321877Y-95426000D01*
X84321877Y-94226000D01*
X84300958Y-94114827D01*
X84235255Y-94012721D01*
X84135003Y-93944222D01*
X84016000Y-93920123D01*
X83116000Y-93920123D01*
X83004827Y-93941042D01*
X82902721Y-94006745D01*
X82834222Y-94106997D01*
X82810123Y-94226000D01*
X82810123Y-95426000D01*
X82831042Y-95537173D01*
X82891000Y-95630351D01*
X82891000Y-96141899D01*
X82834222Y-96224997D01*
X82810123Y-96344000D01*
X82810123Y-97544000D01*
X82831042Y-97655173D01*
X82896745Y-97757279D01*
X82996997Y-97825778D01*
X83116000Y-97849877D01*
X83905529Y-97849877D01*
X83517283Y-98238123D01*
X83116000Y-98238123D01*
X83004827Y-98259042D01*
X82902721Y-98324745D01*
X82834222Y-98424997D01*
X82810123Y-98544000D01*
X82810123Y-99744000D01*
X82831042Y-99855173D01*
X82896745Y-99957279D01*
X82996997Y-100025778D01*
X83116000Y-100049877D01*
X84016000Y-100049877D01*
X84127173Y-100028958D01*
X84229279Y-99963255D01*
X84297778Y-99863003D01*
X84321877Y-99744000D01*
X84321877Y-99516598D01*
X84872000Y-99516598D01*
X84872000Y-99738500D01*
X85009500Y-99876000D01*
X85822000Y-99876000D01*
X85822000Y-99213500D01*
X86222000Y-99213500D01*
X86222000Y-99876000D01*
X87034500Y-99876000D01*
X87172000Y-99738500D01*
X87172000Y-99516598D01*
X87088268Y-99314450D01*
X86933550Y-99159733D01*
X86731402Y-99076000D01*
X86359500Y-99076000D01*
X86222000Y-99213500D01*
X85822000Y-99213500D01*
X85684500Y-99076000D01*
X85312598Y-99076000D01*
X85110450Y-99159733D01*
X84955732Y-99314450D01*
X84872000Y-99516598D01*
X84321877Y-99516598D01*
X84321877Y-99342717D01*
X85453594Y-98211000D01*
X86995353Y-98211000D01*
X87021576Y-98228522D01*
X87308428Y-98285580D01*
X87717000Y-98285580D01*
X87717000Y-99320123D01*
X87622000Y-99320123D01*
X87510827Y-99341042D01*
X87408721Y-99406745D01*
X87340222Y-99506997D01*
X87316123Y-99626000D01*
X87316123Y-100526000D01*
X87337042Y-100637173D01*
X87402745Y-100739279D01*
X87502997Y-100807778D01*
X87547000Y-100816689D01*
X87547000Y-108482406D01*
X86743411Y-109285995D01*
X86559862Y-109285835D01*
X86210571Y-109430159D01*
X85943098Y-109697165D01*
X85798165Y-110046204D01*
X85797835Y-110424138D01*
X85942159Y-110773429D01*
X86209165Y-111040902D01*
X86558204Y-111185835D01*
X86936138Y-111186165D01*
X87285429Y-111041841D01*
X87552902Y-110774835D01*
X87697835Y-110425796D01*
X87697997Y-110240597D01*
X88138594Y-109800000D01*
X109593634Y-109800000D01*
X109673560Y-110201818D01*
X109901172Y-110542462D01*
X110241816Y-110770074D01*
X110643634Y-110850000D01*
X111704366Y-110850000D01*
X112106184Y-110770074D01*
X112446828Y-110542462D01*
X112674440Y-110201818D01*
X112754366Y-109800000D01*
X112674440Y-109398182D01*
X112544417Y-109203589D01*
X112569000Y-109080000D01*
X112569000Y-97950510D01*
X112698902Y-97820835D01*
X112843835Y-97471796D01*
X112844165Y-97093862D01*
X112699841Y-96744571D01*
X112432835Y-96477098D01*
X112083796Y-96332165D01*
X111705862Y-96331835D01*
X111356571Y-96476159D01*
X111089098Y-96743165D01*
X110944165Y-97092204D01*
X110943835Y-97470138D01*
X111088159Y-97819429D01*
X111219000Y-97950499D01*
X111219000Y-108750000D01*
X110643634Y-108750000D01*
X110241816Y-108829926D01*
X109901172Y-109057538D01*
X109673560Y-109398182D01*
X109593634Y-109800000D01*
X88138594Y-109800000D01*
X88699297Y-109239297D01*
X88845619Y-109020312D01*
X88897000Y-108762000D01*
X88897000Y-103728744D01*
X94520988Y-103728744D01*
X94699570Y-104053143D01*
X95015593Y-104291610D01*
X95398817Y-104390989D01*
X95558000Y-104250121D01*
X95558000Y-103578000D01*
X95958000Y-103578000D01*
X95958000Y-104250121D01*
X96117183Y-104390989D01*
X96500407Y-104291610D01*
X96816430Y-104053143D01*
X96995012Y-103728744D01*
X96897549Y-103578000D01*
X95958000Y-103578000D01*
X95558000Y-103578000D01*
X94618451Y-103578000D01*
X94520988Y-103728744D01*
X88897000Y-103728744D01*
X88897000Y-102783000D01*
X90867237Y-102783000D01*
X91091640Y-103007795D01*
X91481828Y-103169815D01*
X91904318Y-103170184D01*
X92294789Y-103008845D01*
X92521028Y-102783000D01*
X94655451Y-102783000D01*
X94520988Y-103027256D01*
X94618451Y-103178000D01*
X95558000Y-103178000D01*
X95558000Y-103158000D01*
X95958000Y-103158000D01*
X95958000Y-103178000D01*
X96897549Y-103178000D01*
X96995012Y-103027256D01*
X96816430Y-102702857D01*
X96650136Y-102577374D01*
X96772094Y-102394852D01*
X96829152Y-102108000D01*
X96772094Y-101821148D01*
X96609605Y-101577967D01*
X96452511Y-101473000D01*
X96609605Y-101368033D01*
X96772094Y-101124852D01*
X96829152Y-100838000D01*
X96772094Y-100551148D01*
X96609605Y-100307967D01*
X96366424Y-100145478D01*
X96079572Y-100088420D01*
X95671000Y-100088420D01*
X95671000Y-99002182D01*
X95725279Y-98967255D01*
X95793778Y-98867003D01*
X95817877Y-98748000D01*
X95817877Y-97848000D01*
X95796958Y-97736827D01*
X95731255Y-97634721D01*
X95631003Y-97566222D01*
X95512000Y-97542123D01*
X94312000Y-97542123D01*
X94200827Y-97563042D01*
X94098721Y-97628745D01*
X94030222Y-97728997D01*
X94006123Y-97848000D01*
X94006123Y-98748000D01*
X94027042Y-98859173D01*
X94092745Y-98961279D01*
X94192997Y-99029778D01*
X94312000Y-99053877D01*
X94321000Y-99053877D01*
X94321000Y-100838000D01*
X94372381Y-101096311D01*
X94518703Y-101315297D01*
X94694858Y-101433000D01*
X92520763Y-101433000D01*
X92296360Y-101208205D01*
X91906172Y-101046185D01*
X91483682Y-101045816D01*
X91093211Y-101207155D01*
X90866972Y-101433000D01*
X88897000Y-101433000D01*
X88897000Y-100817765D01*
X88933173Y-100810958D01*
X89035279Y-100745255D01*
X89103778Y-100645003D01*
X89127877Y-100526000D01*
X89127877Y-99626000D01*
X89106958Y-99514827D01*
X89067000Y-99452730D01*
X89067000Y-97536000D01*
X89015619Y-97277689D01*
X88869297Y-97058703D01*
X88650311Y-96912381D01*
X88392000Y-96861000D01*
X88384375Y-96861000D01*
X88481605Y-96796033D01*
X88644094Y-96552852D01*
X88701152Y-96266000D01*
X88644094Y-95979148D01*
X88481605Y-95735967D01*
X88384375Y-95671000D01*
X90170000Y-95671000D01*
X90428312Y-95619619D01*
X90647297Y-95473297D01*
X92989594Y-93131000D01*
X94948857Y-93131000D01*
X94772703Y-93248703D01*
X94434703Y-93586703D01*
X94288381Y-93805688D01*
X94288381Y-93805689D01*
X94237000Y-94064000D01*
X94237000Y-95524235D01*
X94200827Y-95531042D01*
X94098721Y-95596745D01*
X94030222Y-95696997D01*
X94006123Y-95816000D01*
X94006123Y-96716000D01*
X94027042Y-96827173D01*
X94092745Y-96929279D01*
X94192997Y-96997778D01*
X94312000Y-97021877D01*
X95512000Y-97021877D01*
X95623173Y-97000958D01*
X95725279Y-96935255D01*
X95793778Y-96835003D01*
X95817877Y-96716000D01*
X95817877Y-95816000D01*
X96206123Y-95816000D01*
X96206123Y-96716000D01*
X96227042Y-96827173D01*
X96292745Y-96929279D01*
X96392997Y-96997778D01*
X96437000Y-97006689D01*
X96437000Y-97556235D01*
X96400827Y-97563042D01*
X96298721Y-97628745D01*
X96230222Y-97728997D01*
X96206123Y-97848000D01*
X96206123Y-98748000D01*
X96227042Y-98859173D01*
X96292745Y-98961279D01*
X96392997Y-99029778D01*
X96512000Y-99053877D01*
X97712000Y-99053877D01*
X97823173Y-99032958D01*
X97925279Y-98967255D01*
X97993778Y-98867003D01*
X98017877Y-98748000D01*
X98017877Y-97957000D01*
X103442827Y-97957000D01*
X103459042Y-98043173D01*
X103524745Y-98145279D01*
X103624997Y-98213778D01*
X103744000Y-98237877D01*
X105044000Y-98237877D01*
X105155173Y-98216958D01*
X105257279Y-98151255D01*
X105325778Y-98051003D01*
X105349877Y-97932000D01*
X105349877Y-96632000D01*
X105328958Y-96520827D01*
X105263255Y-96418721D01*
X105163003Y-96350222D01*
X105044000Y-96326123D01*
X103744000Y-96326123D01*
X103632827Y-96347042D01*
X103530721Y-96412745D01*
X103462222Y-96512997D01*
X103443186Y-96607000D01*
X98017877Y-96607000D01*
X98017877Y-95816000D01*
X97996958Y-95704827D01*
X97931255Y-95602721D01*
X97831003Y-95534222D01*
X97712000Y-95510123D01*
X96512000Y-95510123D01*
X96400827Y-95531042D01*
X96298721Y-95596745D01*
X96230222Y-95696997D01*
X96206123Y-95816000D01*
X95817877Y-95816000D01*
X95796958Y-95704827D01*
X95731255Y-95602721D01*
X95631003Y-95534222D01*
X95587000Y-95525311D01*
X95587000Y-94401000D01*
X95885353Y-94401000D01*
X95911576Y-94418522D01*
X96198428Y-94475580D01*
X96841572Y-94475580D01*
X97128424Y-94418522D01*
X97371605Y-94256033D01*
X97534094Y-94012852D01*
X97591152Y-93726000D01*
X97534094Y-93439148D01*
X97371605Y-93195967D01*
X97214511Y-93091000D01*
X97371605Y-92986033D01*
X97534094Y-92742852D01*
X97591152Y-92456000D01*
X97534094Y-92169148D01*
X97371605Y-91925967D01*
X97214511Y-91821000D01*
X97371605Y-91716033D01*
X97534094Y-91472852D01*
X97591152Y-91186000D01*
X97534094Y-90899148D01*
X97371605Y-90655967D01*
X97128424Y-90493478D01*
X96841572Y-90436420D01*
X96198428Y-90436420D01*
X95911576Y-90493478D01*
X95885353Y-90511000D01*
X95275594Y-90511000D01*
X93531594Y-88767000D01*
X116211000Y-88767000D01*
X116211000Y-121037000D01*
X23997000Y-121037000D01*
X23997000Y-119698481D01*
X104636579Y-119698481D01*
X104813340Y-120077818D01*
X105191736Y-120424507D01*
X105674000Y-120600000D01*
X106174000Y-120600000D01*
X106174000Y-119500000D01*
X106574000Y-119500000D01*
X106574000Y-120600000D01*
X107074000Y-120600000D01*
X107556264Y-120424507D01*
X107934660Y-120077818D01*
X108111421Y-119698481D01*
X108019166Y-119500000D01*
X106574000Y-119500000D01*
X106174000Y-119500000D01*
X104728834Y-119500000D01*
X104636579Y-119698481D01*
X23997000Y-119698481D01*
X23997000Y-118901519D01*
X104636579Y-118901519D01*
X104728834Y-119100000D01*
X106174000Y-119100000D01*
X106174000Y-118000000D01*
X106574000Y-118000000D01*
X106574000Y-119100000D01*
X108019166Y-119100000D01*
X108111421Y-118901519D01*
X107934660Y-118522182D01*
X107556264Y-118175493D01*
X107074000Y-118000000D01*
X106574000Y-118000000D01*
X106174000Y-118000000D01*
X105674000Y-118000000D01*
X105191736Y-118175493D01*
X104813340Y-118522182D01*
X104636579Y-118901519D01*
X23997000Y-118901519D01*
X23997000Y-116539942D01*
X42939818Y-116539942D01*
X43099334Y-116926000D01*
X43394446Y-117221628D01*
X43780226Y-117381818D01*
X44197942Y-117382182D01*
X44393320Y-117301453D01*
X46303390Y-117301453D01*
X46381633Y-117509606D01*
X46878592Y-117652778D01*
X47392513Y-117594874D01*
X47598367Y-117509606D01*
X47676610Y-117301453D01*
X46990000Y-116614843D01*
X46303390Y-117301453D01*
X44393320Y-117301453D01*
X44584000Y-117222666D01*
X44879628Y-116927554D01*
X45039818Y-116541774D01*
X45040097Y-116220592D01*
X45669222Y-116220592D01*
X45727126Y-116734513D01*
X45812394Y-116940367D01*
X46020547Y-117018610D01*
X46707157Y-116332000D01*
X47272843Y-116332000D01*
X47959453Y-117018610D01*
X48167606Y-116940367D01*
X48282966Y-116539942D01*
X48939818Y-116539942D01*
X49099334Y-116926000D01*
X49394446Y-117221628D01*
X49780226Y-117381818D01*
X50197942Y-117382182D01*
X50584000Y-117222666D01*
X50800043Y-117007000D01*
X60078000Y-117007000D01*
X60336312Y-116955619D01*
X60555297Y-116809297D01*
X62234589Y-115130005D01*
X62418138Y-115130165D01*
X62767429Y-114985841D01*
X63034902Y-114718835D01*
X63179835Y-114369796D01*
X63180165Y-113991862D01*
X63035841Y-113642571D01*
X62768835Y-113375098D01*
X62419796Y-113230165D01*
X62041862Y-113229835D01*
X61692571Y-113374159D01*
X61425098Y-113641165D01*
X61280165Y-113990204D01*
X61280003Y-114175403D01*
X59798406Y-115657000D01*
X50799807Y-115657000D01*
X50585554Y-115442372D01*
X50199774Y-115282182D01*
X49782058Y-115281818D01*
X49396000Y-115441334D01*
X49100372Y-115736446D01*
X48940182Y-116122226D01*
X48939818Y-116539942D01*
X48282966Y-116539942D01*
X48310778Y-116443408D01*
X48252874Y-115929487D01*
X48167606Y-115723633D01*
X47959453Y-115645390D01*
X47272843Y-116332000D01*
X46707157Y-116332000D01*
X46020547Y-115645390D01*
X45812394Y-115723633D01*
X45669222Y-116220592D01*
X45040097Y-116220592D01*
X45040182Y-116124058D01*
X44880666Y-115738000D01*
X44585554Y-115442372D01*
X44393315Y-115362547D01*
X46303390Y-115362547D01*
X46990000Y-116049157D01*
X47676610Y-115362547D01*
X47598367Y-115154394D01*
X47101408Y-115011222D01*
X46587487Y-115069126D01*
X46381633Y-115154394D01*
X46303390Y-115362547D01*
X44393315Y-115362547D01*
X44199774Y-115282182D01*
X43782058Y-115281818D01*
X43396000Y-115441334D01*
X43100372Y-115736446D01*
X42940182Y-116122226D01*
X42939818Y-116539942D01*
X23997000Y-116539942D01*
X23997000Y-94420508D01*
X25675233Y-94420508D01*
X25803885Y-94731140D01*
X26194517Y-95198123D01*
X26162000Y-95198123D01*
X26050827Y-95219042D01*
X25948721Y-95284745D01*
X25880222Y-95384997D01*
X25856123Y-95504000D01*
X25856123Y-97536000D01*
X25877042Y-97647173D01*
X25942745Y-97749279D01*
X26042997Y-97817778D01*
X26162000Y-97841877D01*
X26503000Y-97841877D01*
X26503000Y-107322000D01*
X26554381Y-107580312D01*
X26700703Y-107799297D01*
X31815995Y-112914589D01*
X31815835Y-113098138D01*
X31960159Y-113447429D01*
X32227165Y-113714902D01*
X32576204Y-113859835D01*
X32954138Y-113860165D01*
X33303429Y-113715841D01*
X33570902Y-113448835D01*
X33715835Y-113099796D01*
X33716165Y-112721862D01*
X33571841Y-112372571D01*
X33304835Y-112105098D01*
X32955796Y-111960165D01*
X32770597Y-111960003D01*
X32159338Y-111348744D01*
X42704988Y-111348744D01*
X42883570Y-111673143D01*
X43199593Y-111911610D01*
X43582817Y-112010989D01*
X43742000Y-111870121D01*
X43742000Y-111198000D01*
X44142000Y-111198000D01*
X44142000Y-111870121D01*
X44301183Y-112010989D01*
X44684407Y-111911610D01*
X45000430Y-111673143D01*
X45179012Y-111348744D01*
X49054988Y-111348744D01*
X49233570Y-111673143D01*
X49549593Y-111911610D01*
X49932817Y-112010989D01*
X50092000Y-111870121D01*
X50092000Y-111198000D01*
X50492000Y-111198000D01*
X50492000Y-111870121D01*
X50651183Y-112010989D01*
X51034407Y-111911610D01*
X51350430Y-111673143D01*
X51529012Y-111348744D01*
X51431549Y-111198000D01*
X50492000Y-111198000D01*
X50092000Y-111198000D01*
X49152451Y-111198000D01*
X49054988Y-111348744D01*
X45179012Y-111348744D01*
X45081549Y-111198000D01*
X44142000Y-111198000D01*
X43742000Y-111198000D01*
X42802451Y-111198000D01*
X42704988Y-111348744D01*
X32159338Y-111348744D01*
X27853000Y-107042406D01*
X27853000Y-104140000D01*
X30313000Y-104140000D01*
X30313000Y-106426000D01*
X30364381Y-106684312D01*
X30510703Y-106903297D01*
X31272703Y-107665297D01*
X31491688Y-107811619D01*
X31750000Y-107863000D01*
X33782000Y-107863000D01*
X34040312Y-107811619D01*
X34259297Y-107665297D01*
X37701594Y-104223000D01*
X43200235Y-104223000D01*
X43207042Y-104259173D01*
X43272745Y-104361279D01*
X43372997Y-104429778D01*
X43492000Y-104453877D01*
X44392000Y-104453877D01*
X44503173Y-104432958D01*
X44605279Y-104367255D01*
X44673778Y-104267003D01*
X44697877Y-104148000D01*
X44697877Y-102948000D01*
X44676958Y-102836827D01*
X44611255Y-102734721D01*
X44511003Y-102666222D01*
X44392000Y-102642123D01*
X43492000Y-102642123D01*
X43380827Y-102663042D01*
X43278721Y-102728745D01*
X43210222Y-102828997D01*
X43201311Y-102873000D01*
X37422000Y-102873000D01*
X37163689Y-102924381D01*
X37037280Y-103008845D01*
X36944703Y-103070703D01*
X33502406Y-106513000D01*
X32029594Y-106513000D01*
X31663000Y-106146406D01*
X31663000Y-104419594D01*
X33497297Y-102585297D01*
X33643619Y-102366312D01*
X33695000Y-102108000D01*
X33695000Y-100479695D01*
X33782000Y-100497000D01*
X36724406Y-100497000D01*
X32767283Y-104454123D01*
X32116000Y-104454123D01*
X32004827Y-104475042D01*
X31902721Y-104540745D01*
X31834222Y-104640997D01*
X31810123Y-104760000D01*
X31810123Y-106060000D01*
X31831042Y-106171173D01*
X31896745Y-106273279D01*
X31996997Y-106341778D01*
X32116000Y-106365877D01*
X33416000Y-106365877D01*
X33527173Y-106344958D01*
X33629279Y-106279255D01*
X33697778Y-106179003D01*
X33721877Y-106060000D01*
X33721877Y-105408717D01*
X37533594Y-101597000D01*
X39554323Y-101597000D01*
X39770940Y-101813995D01*
X40161128Y-101976015D01*
X40583618Y-101976384D01*
X40974089Y-101815045D01*
X41192515Y-101597000D01*
X43200235Y-101597000D01*
X43207042Y-101633173D01*
X43272745Y-101735279D01*
X43372997Y-101803778D01*
X43492000Y-101827877D01*
X43895557Y-101827877D01*
X44107689Y-101969619D01*
X44366000Y-102021000D01*
X47196858Y-102021000D01*
X47020703Y-102138703D01*
X46874381Y-102357689D01*
X46823000Y-102616000D01*
X46823000Y-107188000D01*
X46874381Y-107446312D01*
X47020703Y-107665297D01*
X48290703Y-108935297D01*
X48466857Y-109053000D01*
X44696375Y-109053000D01*
X44793605Y-108988033D01*
X44956094Y-108744852D01*
X45013152Y-108458000D01*
X44956094Y-108171148D01*
X44793605Y-107927967D01*
X44617000Y-107809963D01*
X44617000Y-106550101D01*
X44673778Y-106467003D01*
X44697877Y-106348000D01*
X44697877Y-105148000D01*
X44676958Y-105036827D01*
X44611255Y-104934721D01*
X44511003Y-104866222D01*
X44392000Y-104842123D01*
X43492000Y-104842123D01*
X43380827Y-104863042D01*
X43278721Y-104928745D01*
X43210222Y-105028997D01*
X43186123Y-105148000D01*
X43186123Y-106348000D01*
X43207042Y-106459173D01*
X43267000Y-106552351D01*
X43267000Y-107809963D01*
X43090395Y-107927967D01*
X42927906Y-108171148D01*
X42870848Y-108458000D01*
X42927906Y-108744852D01*
X43090395Y-108988033D01*
X43247489Y-109093000D01*
X43090395Y-109197967D01*
X42927906Y-109441148D01*
X42870848Y-109728000D01*
X42927906Y-110014852D01*
X43049864Y-110197374D01*
X42883570Y-110322857D01*
X42704988Y-110647256D01*
X42802451Y-110798000D01*
X43742000Y-110798000D01*
X43742000Y-110778000D01*
X44142000Y-110778000D01*
X44142000Y-110798000D01*
X45081549Y-110798000D01*
X45179012Y-110647256D01*
X45044549Y-110403000D01*
X49189451Y-110403000D01*
X49054988Y-110647256D01*
X49152451Y-110798000D01*
X50092000Y-110798000D01*
X50092000Y-110778000D01*
X50492000Y-110778000D01*
X50492000Y-110798000D01*
X51431549Y-110798000D01*
X51529012Y-110647256D01*
X51350430Y-110322857D01*
X51184136Y-110197374D01*
X51306094Y-110014852D01*
X51363152Y-109728000D01*
X51306094Y-109441148D01*
X51143605Y-109197967D01*
X51046375Y-109133000D01*
X60452000Y-109133000D01*
X60710312Y-109081619D01*
X60929297Y-108935297D01*
X62228717Y-107635877D01*
X62880000Y-107635877D01*
X62991173Y-107614958D01*
X63093279Y-107549255D01*
X63161778Y-107449003D01*
X63185877Y-107330000D01*
X63185877Y-106030000D01*
X63164958Y-105918827D01*
X63099255Y-105816721D01*
X62999003Y-105748222D01*
X62880000Y-105724123D01*
X61580000Y-105724123D01*
X61468827Y-105745042D01*
X61366721Y-105810745D01*
X61298222Y-105910997D01*
X61274123Y-106030000D01*
X61274123Y-106681283D01*
X60172406Y-107783000D01*
X50926647Y-107783000D01*
X50900424Y-107765478D01*
X50613572Y-107708420D01*
X49970428Y-107708420D01*
X49683576Y-107765478D01*
X49657353Y-107783000D01*
X49047594Y-107783000D01*
X48173000Y-106908406D01*
X48173000Y-103311192D01*
X48446428Y-103365580D01*
X49089572Y-103365580D01*
X49376424Y-103308522D01*
X49619605Y-103146033D01*
X49692124Y-103037500D01*
X52086000Y-103037500D01*
X52086000Y-103409402D01*
X52169733Y-103611550D01*
X52324450Y-103766268D01*
X52526598Y-103850000D01*
X52748500Y-103850000D01*
X52886000Y-103712500D01*
X52886000Y-102900000D01*
X53286000Y-102900000D01*
X53286000Y-103712500D01*
X53423500Y-103850000D01*
X53645402Y-103850000D01*
X53847550Y-103766268D01*
X54002267Y-103611550D01*
X54086000Y-103409402D01*
X54086000Y-103037500D01*
X53948500Y-102900000D01*
X53286000Y-102900000D01*
X52886000Y-102900000D01*
X52223500Y-102900000D01*
X52086000Y-103037500D01*
X49692124Y-103037500D01*
X49782094Y-102902852D01*
X49839152Y-102616000D01*
X49782094Y-102329148D01*
X49619605Y-102085967D01*
X49522375Y-102021000D01*
X51054000Y-102021000D01*
X51206842Y-101990598D01*
X52086000Y-101990598D01*
X52086000Y-102362500D01*
X52223500Y-102500000D01*
X52886000Y-102500000D01*
X52886000Y-101687500D01*
X53286000Y-101687500D01*
X53286000Y-102500000D01*
X53948500Y-102500000D01*
X54086000Y-102362500D01*
X54086000Y-101990598D01*
X54002267Y-101788450D01*
X53847550Y-101633732D01*
X53645402Y-101550000D01*
X53423500Y-101550000D01*
X53286000Y-101687500D01*
X52886000Y-101687500D01*
X52748500Y-101550000D01*
X52526598Y-101550000D01*
X52324450Y-101633732D01*
X52169733Y-101788450D01*
X52086000Y-101990598D01*
X51206842Y-101990598D01*
X51312312Y-101969619D01*
X51531297Y-101823297D01*
X52179594Y-101175000D01*
X52344235Y-101175000D01*
X52351042Y-101211173D01*
X52416745Y-101313279D01*
X52516997Y-101381778D01*
X52636000Y-101405877D01*
X53536000Y-101405877D01*
X53647173Y-101384958D01*
X53749279Y-101319255D01*
X53817778Y-101219003D01*
X53841877Y-101100000D01*
X53841877Y-99900000D01*
X53820958Y-99788827D01*
X53755255Y-99686721D01*
X53655003Y-99618222D01*
X53536000Y-99594123D01*
X52636000Y-99594123D01*
X52524827Y-99615042D01*
X52422721Y-99680745D01*
X52354222Y-99780997D01*
X52345311Y-99825000D01*
X51900000Y-99825000D01*
X51644543Y-99875813D01*
X51677619Y-99826311D01*
X51729000Y-99568000D01*
X51729000Y-97703000D01*
X58863237Y-97703000D01*
X59087640Y-97927795D01*
X59477828Y-98089815D01*
X59900318Y-98090184D01*
X60290789Y-97928845D01*
X60517028Y-97703000D01*
X67882827Y-97703000D01*
X67899042Y-97789173D01*
X67964745Y-97891279D01*
X68064997Y-97959778D01*
X68184000Y-97983877D01*
X69484000Y-97983877D01*
X69595173Y-97962958D01*
X69697279Y-97897255D01*
X69765778Y-97797003D01*
X69789877Y-97678000D01*
X69789877Y-96378000D01*
X69768958Y-96266827D01*
X69703255Y-96164721D01*
X69603003Y-96096222D01*
X69484000Y-96072123D01*
X68184000Y-96072123D01*
X68072827Y-96093042D01*
X67970721Y-96158745D01*
X67902222Y-96258997D01*
X67883186Y-96353000D01*
X60516763Y-96353000D01*
X60292360Y-96128205D01*
X59902172Y-95966185D01*
X59479682Y-95965816D01*
X59089211Y-96127155D01*
X58862972Y-96353000D01*
X50416101Y-96353000D01*
X50333003Y-96296222D01*
X50214000Y-96272123D01*
X49014000Y-96272123D01*
X48902827Y-96293042D01*
X48800721Y-96358745D01*
X48732222Y-96458997D01*
X48708123Y-96578000D01*
X48708123Y-97478000D01*
X48729042Y-97589173D01*
X48794745Y-97691279D01*
X48894997Y-97759778D01*
X49014000Y-97783877D01*
X50214000Y-97783877D01*
X50325173Y-97762958D01*
X50379000Y-97728321D01*
X50379000Y-99288406D01*
X50266406Y-99401000D01*
X49402647Y-99401000D01*
X49376424Y-99383478D01*
X49089572Y-99326420D01*
X48446428Y-99326420D01*
X48159576Y-99383478D01*
X47916395Y-99545967D01*
X47753906Y-99789148D01*
X47696848Y-100076000D01*
X47753906Y-100362852D01*
X47916395Y-100606033D01*
X48013625Y-100671000D01*
X44697877Y-100671000D01*
X44697877Y-100322000D01*
X44676958Y-100210827D01*
X44611255Y-100108721D01*
X44511003Y-100040222D01*
X44392000Y-100016123D01*
X43492000Y-100016123D01*
X43380827Y-100037042D01*
X43278721Y-100102745D01*
X43210222Y-100202997D01*
X43202891Y-100239200D01*
X41200063Y-100239200D01*
X40975660Y-100014405D01*
X40585472Y-99852385D01*
X40162982Y-99852016D01*
X39772511Y-100013355D01*
X39538458Y-100247000D01*
X38358241Y-100247000D01*
X38469619Y-100080311D01*
X38521000Y-99822000D01*
X38521000Y-99415000D01*
X43203622Y-99415000D01*
X43207042Y-99433173D01*
X43272745Y-99535279D01*
X43372997Y-99603778D01*
X43492000Y-99627877D01*
X44392000Y-99627877D01*
X44503173Y-99606958D01*
X44605279Y-99541255D01*
X44673778Y-99441003D01*
X44697877Y-99322000D01*
X44697877Y-98122000D01*
X44676958Y-98010827D01*
X44617000Y-97917649D01*
X44617000Y-97703000D01*
X46611899Y-97703000D01*
X46694997Y-97759778D01*
X46814000Y-97783877D01*
X48014000Y-97783877D01*
X48125173Y-97762958D01*
X48227279Y-97697255D01*
X48295778Y-97597003D01*
X48319877Y-97478000D01*
X48319877Y-96578000D01*
X48298958Y-96466827D01*
X48233255Y-96364721D01*
X48133003Y-96296222D01*
X48089000Y-96287311D01*
X48089000Y-96121594D01*
X52857594Y-91353000D01*
X87547000Y-91353000D01*
X87547000Y-91714235D01*
X87510827Y-91721042D01*
X87408721Y-91786745D01*
X87340222Y-91886997D01*
X87316123Y-92006000D01*
X87316123Y-92906000D01*
X87337042Y-93017173D01*
X87402745Y-93119279D01*
X87502997Y-93187778D01*
X87622000Y-93211877D01*
X88822000Y-93211877D01*
X88933173Y-93190958D01*
X89035279Y-93125255D01*
X89103778Y-93025003D01*
X89127877Y-92906000D01*
X89127877Y-92006000D01*
X89106958Y-91894827D01*
X89041255Y-91792721D01*
X88941003Y-91724222D01*
X88897000Y-91715311D01*
X88897000Y-90762000D01*
X88886399Y-90708703D01*
X88845619Y-90503688D01*
X88699297Y-90284703D01*
X88615297Y-90200703D01*
X88396312Y-90054381D01*
X88138000Y-90003000D01*
X52578000Y-90003000D01*
X52319688Y-90054381D01*
X52100703Y-90200703D01*
X46936703Y-95364703D01*
X46790381Y-95583688D01*
X46752579Y-95773732D01*
X46739000Y-95842000D01*
X46739000Y-96286235D01*
X46702827Y-96293042D01*
X46609649Y-96353000D01*
X43942000Y-96353000D01*
X43683689Y-96404381D01*
X43464703Y-96550703D01*
X43318381Y-96769689D01*
X43267000Y-97028000D01*
X43267000Y-97919899D01*
X43210222Y-98002997D01*
X43197666Y-98065000D01*
X38512765Y-98065000D01*
X38505958Y-98028827D01*
X38449287Y-97940757D01*
X38532550Y-97906268D01*
X38687267Y-97751550D01*
X38771000Y-97549402D01*
X38771000Y-97177500D01*
X38633500Y-97040000D01*
X38033500Y-97040000D01*
X38033500Y-97060000D01*
X37658500Y-97060000D01*
X37658500Y-97040000D01*
X37058500Y-97040000D01*
X36921000Y-97177500D01*
X36921000Y-97549402D01*
X37004733Y-97751550D01*
X37159450Y-97906268D01*
X37243753Y-97941187D01*
X37189222Y-98020997D01*
X37165123Y-98140000D01*
X37165123Y-99147000D01*
X34061594Y-99147000D01*
X33695000Y-98780406D01*
X33695000Y-98547035D01*
X33741279Y-98517255D01*
X33809778Y-98417003D01*
X33833877Y-98298000D01*
X33833877Y-96266000D01*
X33812958Y-96154827D01*
X33747255Y-96052721D01*
X33647003Y-95984222D01*
X33528000Y-95960123D01*
X32512000Y-95960123D01*
X32400827Y-95981042D01*
X32298721Y-96046745D01*
X32230222Y-96146997D01*
X32206123Y-96266000D01*
X32206123Y-98298000D01*
X32227042Y-98409173D01*
X32292745Y-98511279D01*
X32345000Y-98546983D01*
X32345000Y-101828406D01*
X30510703Y-103662703D01*
X30364381Y-103881688D01*
X30364381Y-103881689D01*
X30313000Y-104140000D01*
X27853000Y-104140000D01*
X27853000Y-97841877D01*
X28194000Y-97841877D01*
X28305173Y-97820958D01*
X28407279Y-97755255D01*
X28475778Y-97655003D01*
X28482967Y-97619500D01*
X29676000Y-97619500D01*
X29676000Y-98407402D01*
X29759732Y-98609550D01*
X29914450Y-98764267D01*
X30116598Y-98848000D01*
X30396500Y-98848000D01*
X30534000Y-98710500D01*
X30534000Y-97482000D01*
X30934000Y-97482000D01*
X30934000Y-98710500D01*
X31071500Y-98848000D01*
X31351402Y-98848000D01*
X31553550Y-98764267D01*
X31708268Y-98609550D01*
X31792000Y-98407402D01*
X31792000Y-97619500D01*
X31654500Y-97482000D01*
X30934000Y-97482000D01*
X30534000Y-97482000D01*
X29813500Y-97482000D01*
X29676000Y-97619500D01*
X28482967Y-97619500D01*
X28499877Y-97536000D01*
X28499877Y-96156598D01*
X29676000Y-96156598D01*
X29676000Y-96944500D01*
X29813500Y-97082000D01*
X30534000Y-97082000D01*
X30534000Y-95853500D01*
X30934000Y-95853500D01*
X30934000Y-97082000D01*
X31654500Y-97082000D01*
X31792000Y-96944500D01*
X31792000Y-96156598D01*
X31708268Y-95954450D01*
X31553550Y-95799733D01*
X31351402Y-95716000D01*
X31071500Y-95716000D01*
X30934000Y-95853500D01*
X30534000Y-95853500D01*
X30396500Y-95716000D01*
X30116598Y-95716000D01*
X29914450Y-95799733D01*
X29759732Y-95954450D01*
X29676000Y-96156598D01*
X28499877Y-96156598D01*
X28499877Y-95504000D01*
X28478958Y-95392827D01*
X28413255Y-95290721D01*
X28313003Y-95222222D01*
X28194000Y-95198123D01*
X28161483Y-95198123D01*
X28552115Y-94731140D01*
X28680767Y-94420508D01*
X28592430Y-94180000D01*
X27378000Y-94180000D01*
X27378000Y-94200000D01*
X26978000Y-94200000D01*
X26978000Y-94180000D01*
X25763570Y-94180000D01*
X25675233Y-94420508D01*
X23997000Y-94420508D01*
X23997000Y-93539492D01*
X25675233Y-93539492D01*
X25763570Y-93780000D01*
X26978000Y-93780000D01*
X26978000Y-92564309D01*
X27378000Y-92564309D01*
X27378000Y-93780000D01*
X28592430Y-93780000D01*
X28680767Y-93539492D01*
X28552115Y-93228860D01*
X28160068Y-92760186D01*
X27618510Y-92477218D01*
X27378000Y-92564309D01*
X26978000Y-92564309D01*
X26737490Y-92477218D01*
X26195932Y-92760186D01*
X25803885Y-93228860D01*
X25675233Y-93539492D01*
X23997000Y-93539492D01*
X23997000Y-91015500D01*
X30641200Y-91015500D01*
X30641200Y-91803402D01*
X30724932Y-92005550D01*
X30879650Y-92160267D01*
X31081798Y-92244000D01*
X32682500Y-92244000D01*
X32820000Y-92106500D01*
X32820000Y-90878000D01*
X33220000Y-90878000D01*
X33220000Y-92106500D01*
X33357500Y-92244000D01*
X34958202Y-92244000D01*
X35160350Y-92160267D01*
X35254019Y-92066598D01*
X36921000Y-92066598D01*
X36921000Y-92438500D01*
X37058500Y-92576000D01*
X37658500Y-92576000D01*
X37658500Y-91763500D01*
X38033500Y-91763500D01*
X38033500Y-92576000D01*
X38633500Y-92576000D01*
X38771000Y-92438500D01*
X38771000Y-92066598D01*
X38687267Y-91864450D01*
X38532550Y-91709732D01*
X38330402Y-91626000D01*
X38171000Y-91626000D01*
X38033500Y-91763500D01*
X37658500Y-91763500D01*
X37521000Y-91626000D01*
X37361598Y-91626000D01*
X37159450Y-91709732D01*
X37004733Y-91864450D01*
X36921000Y-92066598D01*
X35254019Y-92066598D01*
X35315068Y-92005550D01*
X35398800Y-91803402D01*
X35398800Y-91015500D01*
X35261300Y-90878000D01*
X33220000Y-90878000D01*
X32820000Y-90878000D01*
X30778700Y-90878000D01*
X30641200Y-91015500D01*
X23997000Y-91015500D01*
X23997000Y-89552598D01*
X30641200Y-89552598D01*
X30641200Y-90340500D01*
X30778700Y-90478000D01*
X32820000Y-90478000D01*
X32820000Y-89249500D01*
X33220000Y-89249500D01*
X33220000Y-90478000D01*
X35261300Y-90478000D01*
X35398800Y-90340500D01*
X35398800Y-89552598D01*
X35315068Y-89350450D01*
X35160350Y-89195733D01*
X34958202Y-89112000D01*
X33357500Y-89112000D01*
X33220000Y-89249500D01*
X32820000Y-89249500D01*
X32682500Y-89112000D01*
X31081798Y-89112000D01*
X30879650Y-89195733D01*
X30724932Y-89350450D01*
X30641200Y-89552598D01*
X23997000Y-89552598D01*
X23997000Y-88767000D01*
X51502406Y-88767000D01*
X48996406Y-91273000D01*
M02*
