G04 #@! TF.FileFunction,Legend,Bot*
%FSLAX46Y46*%
G04 Gerber Fmt 4.6, Leading zero omitted, Abs format (unit mm)*
G04 Created by KiCad (PCBNEW 4.0.1-stable) date 1/9/2016 1:44:47 PM*
%MOMM*%
G01*
G04 APERTURE LIST*
%ADD10C,0.100000*%
%ADD11R,2.432000X2.432000*%
%ADD12O,2.432000X2.432000*%
%ADD13R,1.700000X1.700000*%
%ADD14C,1.700000*%
%ADD15O,1.901140X1.299160*%
%ADD16C,1.900000*%
%ADD17O,1.900000X2.900000*%
%ADD18O,2.900000X1.900000*%
G04 APERTURE END LIST*
D10*
%LPC*%
D11*
X43180000Y-91948000D03*
D12*
X43180000Y-94488000D03*
D11*
X27178000Y-96520000D03*
D12*
X27178000Y-93980000D03*
D13*
X32766000Y-105410000D03*
D14*
X32766000Y-112910000D03*
D13*
X62230000Y-106680000D03*
D14*
X62230000Y-114180000D03*
D13*
X68834000Y-97028000D03*
D14*
X76334000Y-97028000D03*
D13*
X79248000Y-110236000D03*
D14*
X86748000Y-110236000D03*
D13*
X104394000Y-97282000D03*
D14*
X111894000Y-97282000D03*
D15*
X43942000Y-109728000D03*
X43942000Y-108458000D03*
X43942000Y-110998000D03*
X48768000Y-101346000D03*
X48768000Y-100076000D03*
X48768000Y-102616000D03*
X50292000Y-109728000D03*
X50292000Y-108458000D03*
X50292000Y-110998000D03*
X87630000Y-96266000D03*
X87630000Y-94996000D03*
X87630000Y-97536000D03*
X96520000Y-92456000D03*
X96520000Y-91186000D03*
X96520000Y-93726000D03*
X95758000Y-102108000D03*
X95758000Y-103378000D03*
X95758000Y-100838000D03*
D16*
X49990000Y-116332000D03*
X46990000Y-116332000D03*
X43990000Y-116332000D03*
D17*
X114724000Y-114300000D03*
D18*
X111174000Y-109800000D03*
X106374000Y-119300000D03*
D10*
G36*
X99264000Y-121362000D02*
X91363000Y-121362000D01*
X91363000Y-112699000D01*
X99264000Y-112699000D01*
X99264000Y-121362000D01*
X99264000Y-121362000D01*
G37*
X99264000Y-121362000D02*
X91363000Y-121362000D01*
X91363000Y-112699000D01*
X99264000Y-112699000D01*
X99264000Y-121362000D01*
G36*
X27001000Y-121362000D02*
X23672000Y-121362000D01*
X23672000Y-115239000D01*
X27001000Y-115239000D01*
X27001000Y-121362000D01*
X27001000Y-121362000D01*
G37*
X27001000Y-121362000D02*
X23672000Y-121362000D01*
X23672000Y-115239000D01*
X27001000Y-115239000D01*
X27001000Y-121362000D01*
M02*
